<svg 
     id="ef4b9f88-aa9d-49a4-8d9d-19286ba76987" 
     data-name="Layer 1" 
     xmlns="http://www.w3.org/2000/svg" 
     xmlns:xlink="http://www.w3.org/1999/xlink" 
     viewBox="0 0 1920 1080">
  <defs>
    <style>.\39 e2e8f14-48be-40a9-81e7-80afe14c6232{font-size:725.36px;}.\35 2729551-ed26-4b9d-bdd6-15bf286eb16c,.\37 9b88a37-476c-41e3-9f02-8209175af19f,.\37 c4b8b36-ab58-454b-ba9a-0e8b07c803fa,.\39 e2e8f14-48be-40a9-81e7-80afe14c6232,.a5ad094b-5837-4636-bbd3-7c15407da639{font-family:MyriadPro-Bold, Myriad Pro;font-weight:700;}.\39 a6b7e19-8085-4ee8-899b-800310b50aa2{fill:none;}.\32 2c87335-bef3-4aca-a506-473f01caabf8{fill:#739d5c;}.\36 de16af7-7702-4fde-be98-8628db2b9083{fill:#c7db98;}.\31 6eae3d8-5bd0-4303-b7f2-d2a334a97891{font-size:82.21px;font-family:TimesNewRomanPSMT, Times New Roman;}.\32 f52f138-9b51-49f6-a33e-42fa0a063f7d{letter-spacing:-0.04em;}.\30 18228b5-19c9-43f0-8c2c-6c6dc9a1a683{letter-spacing:-0.1em;}.\37 9b88a37-476c-41e3-9f02-8209175af19f{font-size:100px;}.\37 c4b8b36-ab58-454b-ba9a-0e8b07c803fa{font-size:159.64px;}.\35 2729551-ed26-4b9d-bdd6-15bf286eb16c{font-size:238px;}.a5ad094b-5837-4636-bbd3-7c15407da639{font-size:300px;}.\35 1e007c1-67ed-4e0a-8ede-17a41aa1c6ae{fill:#6b9753;}.\31 108f964-adf6-43cb-afdb-3700baaca005,.\35 1e007c1-67ed-4e0a-8ede-17a41aa1c6ae{fill-opacity:0.95;}.\31 108f964-adf6-43cb-afdb-3700baaca005{fill:#ccde9c;}.bb0450ed-5a51-45f8-a521-ccfa7653d074{fill:#baa59a;}.\33 03d20fc-8ed8-4205-b9ee-7bb680c4563b{fill:#8e7a72;opacity:0.49;}.\33 03d20fc-8ed8-4205-b9ee-7bb680c4563b,.\36 a304455-ae94-4336-85fc-326f1933c53d,.b5df2c02-85d2-4585-8e9d-e0c2577da3d1,.ccf8ccae-2b72-45f5-8659-f80f30943731{isolation:isolate;}.b5df2c02-85d2-4585-8e9d-e0c2577da3d1{opacity:0.77;fill:url(#60f3acae-c6d5-48f6-a392-3fe7cbe7d2b0);}.\37 cd16c68-4a7c-4e33-82cc-721cfbf006c3{fill:url(#871c3dcc-0438-4bc3-878c-1ea5db8482b3);}.ccf8ccae-2b72-45f5-8659-f80f30943731{opacity:0.64;fill:url(#bd9c5d47-a6e3-46cd-9820-428df5cb74bd);}.\35 2b5d40e-f5e3-402f-8de2-909d2aeae20f{fill:url(#e8069f56-6634-4f28-9be3-46e0533413d6);}.\33 7ba8594-adc5-4e0e-9e17-9d870ad4f66b{fill:url(#908d7c31-a504-478f-80c3-8f38ed95a22e);}.\32 03cd084-f6af-4a85-a419-b66dda73b95c{fill:url(#f1a049a2-7389-4964-b04a-77652fff4302);}.ef468e38-935c-4daa-a2b9-57197092e265{fill:url(#eba8c98c-3a54-4ea7-bf1f-4ab4a17b3b5f);}.\36 a304455-ae94-4336-85fc-326f1933c53d{opacity:0.89;fill:url(#4bcde0b0-1dd1-448a-896b-b0dcf5d6e391);}.\31 3fa26e0-e5a0-4183-9cf4-ae80a5034e3e{fill:#4d6c3b;}.\36 ed945ea-043b-45c5-93b6-1f9485b00901{fill:#b7b7b7;}</style><linearGradient id="60f3acae-c6d5-48f6-a392-3fe7cbe7d2b0" x1="193.13" y1="1972.75" x2="185.01" y2="2004.87" gradientTransform="matrix(1, 0, 0, -1, 564, 2394)" gradientUnits="userSpaceOnUse"><stop offset="0" stop-color="#fcfcfc"/><stop offset="1" stop-color="#e0d8c1"/></linearGradient><linearGradient id="871c3dcc-0438-4bc3-878c-1ea5db8482b3" x1="237.94" y1="2074.64" x2="273.17" y2="2100.2" gradientTransform="matrix(1, 0, 0, -1, 564, 2394)" gradientUnits="userSpaceOnUse"><stop offset="0" stop-color="#6c5852"/><stop offset="1" stop-color="#6c5852" stop-opacity="0"/></linearGradient><linearGradient id="bd9c5d47-a6e3-46cd-9820-428df5cb74bd" x1="208.45" y1="2102.7" x2="212.8" y2="2090.88" gradientTransform="matrix(1, 0, 0, -1, 564, 2394)" gradientUnits="userSpaceOnUse"><stop offset="0"/><stop offset="1" stop-opacity="0"/></linearGradient><linearGradient id="e8069f56-6634-4f28-9be3-46e0533413d6" x1="169.31" y1="2061.68" x2="120.21" y2="2090.01" xlink:href="#871c3dcc-0438-4bc3-878c-1ea5db8482b3"/><linearGradient id="908d7c31-a504-478f-80c3-8f38ed95a22e" x1="148.41" y1="2072.75" x2="186.02" y2="2051.72" xlink:href="#60f3acae-c6d5-48f6-a392-3fe7cbe7d2b0"/><linearGradient id="f1a049a2-7389-4964-b04a-77652fff4302" x1="301.82" y1="2324.37" x2="295.36" y2="2320.9" gradientTransform="matrix(0.77, 0, 0, -0.77, 571.98, 2147.18)" gradientUnits="userSpaceOnUse"><stop offset="0" stop-color="#fcfcfc"/><stop offset="1" stop-color="#c7c7c7"/></linearGradient><linearGradient id="eba8c98c-3a54-4ea7-bf1f-4ab4a17b3b5f" x1="264.79" y1="2013.56" x2="304.15" y2="2039.77" xlink:href="#871c3dcc-0438-4bc3-878c-1ea5db8482b3"/><linearGradient id="4bcde0b0-1dd1-448a-896b-b0dcf5d6e391" x1="462.51" y1="1934.9" x2="449.21" y2="1924.74" gradientTransform="matrix(0.97, -0.23, -0.23, -0.97, 804.01, 2373.84)" xlink:href="#bd9c5d47-a6e3-46cd-9820-428df5cb74bd"/></defs><title>Artboard 1</title><text class="9e2e8f14-48be-40a9-81e7-80afe14c6232" transform="translate(412.52 1080.77) scale(0.91 1)">404</text><path class="9a6b7e19-8085-4ee8-899b-800310b50aa2" d="M1354.34,1078.27l23.51.75c1.11-34.24,12-68.25,30.57-97.21a183.89,183.89,0,0,1,33.27-39,155.83,155.83,0,0,1,42.82-27l-9-21.73a178.91,178.91,0,0,0-49.35,31.09,207.7,207.7,0,0,0-37.56,44A216.89,216.89,0,0,0,1354.34,1078.27Z"/><path class="22c87335-bef3-4aca-a506-473f01caabf8" d="M1377.85,1079l-11.76-.38-11.75-.39a213.52,213.52,0,0,1,39.39-105.85A199.83,199.83,0,0,1,1432.19,932a168.15,168.15,0,0,1,48-26.69,165.2,165.2,0,0,0-44.1,31.11,191,191,0,0,0-32.43,42.32C1386.15,1009.58,1377.06,1044.71,1377.85,1079Z"/><path class="6de16af7-7702-4fde-be98-8628db2b9083" d="M1473.28,907.93a170.16,170.16,0,0,0-44,26.42,201.65,201.65,0,0,0-35.54,38,213.52,213.52,0,0,0-39.39,105.85l11.75.39a205.47,205.47,0,0,1,30.46-100.06,196.29,196.29,0,0,1,33.28-40.89A170.48,170.48,0,0,1,1473.28,907.93Z"/><path class="9a6b7e19-8085-4ee8-899b-800310b50aa2" d="M1357.5,1099.76l23.34,3a139.07,139.07,0,0,0-1.39-41.71,268.4,268.4,0,0,0-10.35-38.73c-4.16-12.4-8.69-24.39-12.78-36.27a290.73,290.73,0,0,1-10.21-35.4l-23,4.79a312.1,312.1,0,0,0,11,38.28c4.24,12.3,8.75,24.24,12.72,36.09a244.5,244.5,0,0,1,9.47,35.3A115.26,115.26,0,0,1,1357.5,1099.76Z"/><path class="22c87335-bef3-4aca-a506-473f01caabf8" d="M1380.84,1102.72l-11.67-1.49-11.67-1.49a115.28,115.28,0,0,0,1.77-35.2,244,244,0,0,0-6.7-36.72c-6.11-24.59-14.34-49.44-17.57-74.9a299.38,299.38,0,0,0,13.27,35.87c5,11.72,10.43,23.33,15.45,35.3a258.86,258.86,0,0,1,12.93,37.41A136,136,0,0,1,1380.84,1102.72Z"/><path class="6de16af7-7702-4fde-be98-8628db2b9083" d="M1335.71,958c3.63,23.69,11.15,46.83,16.86,69.78a244,244,0,0,1,6.7,36.72,115.28,115.28,0,0,1-1.77,35.2l11.67,1.49a126.61,126.61,0,0,0-1.09-36.92,243.87,243.87,0,0,0-9.32-35.84C1351,1005,1341.38,982.14,1335.71,958Z"/><path class="9a6b7e19-8085-4ee8-899b-800310b50aa2" d="M1296.9,1092.73l23.2-3.87a1183,1183,0,0,1-15.27-150.61l-23.51.87A1206.47,1206.47,0,0,0,1296.9,1092.73Z"/><path class="22c87335-bef3-4aca-a506-473f01caabf8" d="M1320.1,1088.86l-11.6,1.93-11.61,1.93q-3.35-38.6-4.19-77.17t.78-76.88q4.26,38.1,10.93,75.7T1320.1,1088.86Z"/><path class="6de16af7-7702-4fde-be98-8628db2b9083" d="M1293.29,943.82q-1.36,35.76-.59,71.73.85,38.55,4.19,77.17l11.61-1.93A1193.61,1193.61,0,0,1,1293.29,943.82Z"/><path class="9a6b7e19-8085-4ee8-899b-800310b50aa2" d="M1307.77,1102.59l23.51.83a719.27,719.27,0,0,0-7.45-131.79l-23.27,3.49A695.15,695.15,0,0,1,1307.77,1102.59Z"/><path class="22c87335-bef3-4aca-a506-473f01caabf8" d="M1331.28,1103.42l-11.75-.42-11.76-.42q4.18-31.83,5.41-64.24t-.58-65q7.62,31.76,12.32,64.37T1331.28,1103.42Z"/><path class="6de16af7-7702-4fde-be98-8628db2b9083" d="M1312.82,977.7q1.48,30.42.36,60.64-1.23,32.36-5.41,64.24l11.76.42A708.69,708.69,0,0,0,1312.82,977.7Z"/><path class="9a6b7e19-8085-4ee8-899b-800310b50aa2" d="M1339.91,1113.75l23.5,1.13,2.36-49.27L1367,1041c.4-8.22.77-16.33,1.39-24.27a228.27,228.27,0,0,1,2.86-23.27,138.4,138.4,0,0,1,5.87-22c5.11-14.65,12.53-29.83,17.15-47.24l-22.76-6a197.57,197.57,0,0,1-7.52,22c-3,7.49-6.18,15.23-9.06,23.41a162.15,162.15,0,0,0-6.82,25.59,253.11,253.11,0,0,0-3.18,25.66c-.65,8.46-1,16.78-1.42,25l-1.19,24.63Z"/><path class="22c87335-bef3-4aca-a506-473f01caabf8" d="M1363.41,1114.88l-11.75-.57-11.75-.58,5.4-49.12,2.71-24.56c.9-8.17,1.78-16.43,2.93-24.71a245.61,245.61,0,0,1,4.6-24.77,154,154,0,0,1,7.94-23.93c6.48-15.36,14.56-29.61,19.75-45.35-3.28,16.23-9.73,31.72-14.2,47.3a145.38,145.38,0,0,0-4.82,23.57,238,238,0,0,0-1.54,24.1c-.16,8.1-.06,16.26,0,24.51l.24,24.7Z"/><path class="6de16af7-7702-4fde-be98-8628db2b9083" d="M1381,927.56c-5.49,14.37-13,27.71-18.79,42.2-1.44,3.62-2.78,7.32-4,11.08s-2.18,7.56-3.1,11.38c-1.79,7.66-3.11,15.4-4.19,23.12-1.15,8.28-2,16.54-2.93,24.71l-2.71,24.56-5.4,49.12,11.75.58,2.28-47.61,1.15-23.81c.38-7.93.73-15.87,1.28-23.8,1.09-15.82,3.08-31.72,8-46.86S1376.26,942.75,1381,927.56Z"/><path class="9a6b7e19-8085-4ee8-899b-800310b50aa2" d="M1252.24,1105.16l23.53,0a168,168,0,0,0-16.2-72.07,157.55,157.55,0,0,0-9-16.35c-3.32-5.24-6.85-10.19-10.39-14.95-7.11-9.52-14.29-18.32-20.3-27.3a109,109,0,0,1-13.95-28,143.67,143.67,0,0,1-6.08-31.28,256,256,0,0,1-.54-33.07c.45-11.2,1.37-22.52,2.37-34l-23.43-2.06c-1,11.54-2,23.22-2.44,35.09a276,276,0,0,0,.61,36.08,166.9,166.9,0,0,0,7.15,36.51c.45,1.51,1.06,3,1.59,4.47s1.06,3,1.68,4.45l1.93,4.38,1,2.19c.34.72.71,1.42,1.07,2.13a148.28,148.28,0,0,0,9.54,16.16c6.85,10.2,14.29,19.27,21,28.25,3.34,4.49,6.51,8.95,9.36,13.46a132.91,132.91,0,0,1,7.7,13.92A144.45,144.45,0,0,1,1252.24,1105.16Z"/><path class="22c87335-bef3-4aca-a506-473f01caabf8" d="M1275.77,1105.2l-11.76,0-11.77,0a145.78,145.78,0,0,0-11.16-63.19,136,136,0,0,0-7.23-14.63c-2.71-4.77-5.74-9.46-8.92-14.16-6.36-9.38-13.37-18.75-19.58-28.91a145.46,145.46,0,0,1-8.47-15.84c-.31-.69-.63-1.37-.92-2.06l-.83-2.11-1.64-4.19c-.53-1.41-.94-2.85-1.41-4.27s-1-2.84-1.32-4.28a158.51,158.51,0,0,1-5.29-35,268.12,268.12,0,0,1,.94-34.86c1-11.53,2.41-23,3.92-34.44-.53,11.54-1,23.07-1,34.56a263,263,0,0,0,2,34.22,151.08,151.08,0,0,0,7.82,32.74c.45,1.31,1,2.56,1.56,3.85s1,2.57,1.62,3.81l1.84,3.71.91,1.85c.31.61.67,1.2,1,1.8a134.37,134.37,0,0,0,9,13.91c6.61,9,14.2,17.55,21.6,26.69,3.7,4.57,7.36,9.29,10.81,14.3a152.43,152.43,0,0,1,9.48,15.67A166.55,166.55,0,0,1,1275.77,1105.2Z"/><path class="6de16af7-7702-4fde-be98-8628db2b9083" d="M1189.14,856.49c-2.68,21.34-4.86,42.91-3.4,64.77.15,2.73.5,5.45.75,8.18s.77,5.44,1.15,8.17c.55,2.71,1,5.43,1.65,8.13l1,4c.34,1.34.67,2.7,1.13,4l1.27,4c.22.67.41,1.34.66,2l.77,2,1.54,3.92c.48,1.32,1.13,2.56,1.7,3.85a146.87,146.87,0,0,0,8,14.74c6.21,10.16,13.22,19.53,19.58,28.91,3.18,4.7,6.21,9.39,8.92,14.16a136,136,0,0,1,7.23,14.63,145.78,145.78,0,0,1,11.16,63.19l11.77,0a156.28,156.28,0,0,0-14.08-64.87,146.59,146.59,0,0,0-7.81-14.77c-2.89-4.77-6.06-9.36-9.35-13.86-6.56-9-13.64-17.64-20.06-26.76a163,163,0,0,1-9-14.09,113.12,113.12,0,0,1-7.06-15.14,141.89,141.89,0,0,1-7.84-32.43,231.2,231.2,0,0,1-1.55-33.38C1187.48,878.73,1188.23,867.6,1189.14,856.49Z"/><path class="9a6b7e19-8085-4ee8-899b-800310b50aa2" d="M1273.25,1109.34l22.68-6.26c-7.27-26.34-14.33-52.43-18.66-78.66s-5.84-52.59-1.89-78.07l-23.25-3.58a233,233,0,0,0-2.42,43.12,324.75,324.75,0,0,0,4.35,42.35C1258.66,1056.07,1266,1082.92,1273.25,1109.34Z"/><path class="22c87335-bef3-4aca-a506-473f01caabf8" d="M1295.93,1103.08l-11.34,3.12-11.34,3.13c-5.33-26.95-10.67-54.34-13.19-82.09a320.28,320.28,0,0,1-1.23-41.65,221.59,221.59,0,0,1,5.33-41,218.57,218.57,0,0,0,.55,40.78,309.73,309.73,0,0,0,7,39.94C1277.93,1051.65,1286.84,1077.24,1295.93,1103.08Z"/><path class="6de16af7-7702-4fde-be98-8628db2b9083" d="M1263.06,950c-5.11,25.13-5.34,51.37-3,77.2,2.52,27.75,7.86,55.14,13.19,82.09l11.34-3.13c-7-25.49-14-51.07-18.44-77.15S1259.72,976.33,1263.06,950Z"/><path class="9a6b7e19-8085-4ee8-899b-800310b50aa2" d="M1034.67,1101.84l23.29-3.36a197.42,197.42,0,0,1,4.26-76.43c6.33-24.89,17.46-48.62,33.07-68.7l-18.55-14.46c-17.82,22.93-30.23,49.56-37.32,77.37A221.06,221.06,0,0,0,1034.67,1101.84Z"/><path class="22c87335-bef3-4aca-a506-473f01caabf8" d="M1058,1098.48l-11.65,1.67-11.64,1.67a217.15,217.15,0,0,1,10.65-84.07c8.85-26.56,22.73-51.17,41-71.38a195.52,195.52,0,0,0-29.62,74.28A199.62,199.62,0,0,0,1058,1098.48Z"/><path class="6de16af7-7702-4fde-be98-8628db2b9083" d="M1082.76,950.55a203.3,203.3,0,0,0-37.44,67.2,217.15,217.15,0,0,0-10.65,84.07l11.64-1.67a209.47,209.47,0,0,1,3.89-78.32A200.58,200.58,0,0,1,1082.76,950.55Z"/><path class="9a6b7e19-8085-4ee8-899b-800310b50aa2" d="M1019.44,1091.13l21.82,8.79a91.69,91.69,0,0,0,6.28-35.85,120.05,120.05,0,0,0-6-34.8,166.3,166.3,0,0,0-14.1-31.28,316.57,316.57,0,0,0-18.18-27.74L990.23,984a294.83,294.83,0,0,1,16.83,25.66,142.41,142.41,0,0,1,12.15,26.85,96.88,96.88,0,0,1,4.81,27.94A68.24,68.24,0,0,1,1019.44,1091.13Z"/><path class="22c87335-bef3-4aca-a506-473f01caabf8" d="M1041.26,1099.92l-10.91-4.4-10.9-4.4a68.65,68.65,0,0,0,7.61-26.73,100.23,100.23,0,0,0-2.06-29.76,148.56,148.56,0,0,0-10-29.5,303.83,303.83,0,0,0-14.89-28.25,304.08,304.08,0,0,1,20,25.33,158,158,0,0,1,16.1,28.8,115,115,0,0,1,8.51,33.1A89.4,89.4,0,0,1,1041.26,1099.92Z"/><path class="6de16af7-7702-4fde-be98-8628db2b9083" d="M1002.27,980.62a273,273,0,0,1,13.58,26.46,146.43,146.43,0,0,1,9.15,27.55,100.23,100.23,0,0,1,2.06,29.76,68.65,68.65,0,0,1-7.61,26.73l10.9,4.4a79.67,79.67,0,0,0,5.43-30.19,107.64,107.64,0,0,0-4.74-30.39,148.19,148.19,0,0,0-12.19-28.3A273.85,273.85,0,0,0,1002.27,980.62Z"/><path class="9a6b7e19-8085-4ee8-899b-800310b50aa2" d="M1000.22,1100.92l22.66-6.31a91.91,91.91,0,0,0-17.87-33.55,117.21,117.21,0,0,0-28.21-23.84,159.86,159.86,0,0,0-32.67-14.91c-1.41-.49-2.84-.88-4.26-1.32s-2.87-.89-4.24-1.25c-2.79-.77-5.54-1.49-8.24-2.19-5.41-1.39-10.64-2.72-15.62-4.21-10-3-18.88-6.71-25.76-12.29l-2.5-2.17-2.3-2.39A22.16,22.16,0,0,1,879,994L878,992.64l-.52-.65-.47-.72-1.89-2.85c-.6-1-1.12-2-1.69-3l-.84-1.53-.73-1.62c-.47-1.09-1-2.14-1.45-3.26-.84-2.27-1.75-4.5-2.42-6.9s-1.34-4.79-2-7.22a149.87,149.87,0,0,1-2.65-15.19c-1.36-10.36-1.82-21.13-2.18-32.06l-23.51.71c.37,11.23.84,22.67,2.35,34.32a174.42,174.42,0,0,0,3.08,17.57c.75,2.95,1.43,5.89,2.41,8.83s2,5.87,3.1,8.8c.57,1.46,1.28,2.89,1.92,4.34l1,2.16c.37.72.77,1.42,1.15,2.13.79,1.41,1.52,2.83,2.37,4.22l2.7,4.09.68,1c.24.33.51.65.76,1l1.54,2a41.31,41.31,0,0,0,3.24,3.77l3.49,3.58q1.88,1.66,3.79,3.29a79.12,79.12,0,0,0,16.61,10.17,130.45,130.45,0,0,0,17.16,6.35c5.65,1.69,11.17,3.08,16.51,4.46,2.67.69,5.28,1.37,7.84,2.08,1.31.34,2.49.74,3.74,1.1s2.48.72,3.69,1.15a136.83,136.83,0,0,1,27.76,12.64A93.84,93.84,0,0,1,987,1076.18,68.32,68.32,0,0,1,1000.22,1100.92Z"/><path class="22c87335-bef3-4aca-a506-473f01caabf8" d="M1022.88,1094.61l-11.33,3.15-11.33,3.14a69.16,69.16,0,0,0-12.07-25.71,95.81,95.81,0,0,0-22-20.5,139.42,139.42,0,0,0-27.92-14.37c-9.81-3.79-20.67-6.51-31.45-10.29a122.16,122.16,0,0,1-16-6.73,72.12,72.12,0,0,1-14.71-9.87l-3.24-3.07-3-3.32a32.54,32.54,0,0,1-2.73-3.47l-1.3-1.78c-.21-.29-.44-.58-.64-.89l-.56-.94-2.25-3.75c-.71-1.27-1.31-2.59-2-3.88-.31-.65-.64-1.29-.94-1.94l-.81-2c-.52-1.34-1.11-2.65-1.57-4-.88-2.71-1.82-5.4-2.47-8.17s-1.28-5.5-1.86-8.26a165.93,165.93,0,0,1-2.15-16.67c-.93-11.13-.88-22.25-.75-33.34.84,11.06,1.78,22.13,3.67,33,.88,5.44,2.12,10.78,3.52,16,.8,2.6,1.52,5.22,2.49,7.75s2,5,3,7.48c.54,1.22,1.2,2.38,1.79,3.57l.9,1.78,1,1.69c.7,1.12,1.35,2.28,2.08,3.36l2.31,3.17.57.79.64.74,1.29,1.46a27.09,27.09,0,0,0,2.65,2.81l2.8,2.64,3,2.38c8.26,6.07,18.19,9.59,28.58,12.2,5.21,1.32,10.56,2.43,16,3.59,2.72.58,5.47,1.18,8.25,1.82s5.61,1.4,8.4,2.17a155.57,155.57,0,0,1,32.52,13.3,114.57,114.57,0,0,1,28.61,22.32A91.2,91.2,0,0,1,1022.88,1094.61Z"/><path class="6de16af7-7702-4fde-be98-8628db2b9083" d="M849.75,926.9A257.52,257.52,0,0,0,851.24,958a147.58,147.58,0,0,0,2.64,15.5l1,3.84.51,1.92.61,1.89,1.24,3.8,1.5,3.72.76,1.87.89,1.81c.6,1.21,1.18,2.43,1.81,3.63l2.09,3.49c.36.58.68,1.18,1.08,1.74l1.21,1.66c.82,1.09,1.59,2.24,2.46,3.29l2.75,3.09a37,37,0,0,0,2.92,3,40.65,40.65,0,0,0,3.14,2.73,73.92,73.92,0,0,0,13.92,8.88,126.76,126.76,0,0,0,15,6.2c10.78,3.78,21.64,6.5,31.45,10.29a139.42,139.42,0,0,1,27.92,14.37,95.81,95.81,0,0,1,22,20.5,69.16,69.16,0,0,1,12.07,25.71l11.33-3.14a79.18,79.18,0,0,0-14.86-28.27,39.94,39.94,0,0,0-2.62-3l-2.72-3-2.91-2.77c-1-.91-1.91-1.88-3-2.7-2.08-1.69-4.08-3.48-6.3-5l-3.25-2.37-3.37-2.17a137.67,137.67,0,0,0-14.06-7.8c-2.45-1.08-4.87-2.24-7.35-3.24s-5-2-7.52-2.85c-10.11-3.61-20.61-5.87-30.94-8.74s-20.59-6.39-29.54-12.36c-.55-.37-1.13-.72-1.66-1.12l-1.61-1.21c-.53-.41-1.08-.79-1.59-1.23l-1.51-1.32c-.5-.45-1-.86-1.5-1.34l-1.4-1.45-1.4-1.44a17.16,17.16,0,0,1-1.35-1.48l-2.51-3.14L868,999l-.55-.84-1.11-1.67a74,74,0,0,1-4.06-6.94c-.6-1.19-1.12-2.43-1.69-3.65l-.83-1.83-.71-1.87-1.42-3.77-1.19-3.84c-.19-.64-.4-1.27-.58-1.92l-.5-2-1-3.9-.81-3.93-.4-2-.32-2A253.92,253.92,0,0,1,849.75,926.9Z"/><path class="9a6b7e19-8085-4ee8-899b-800310b50aa2" d="M1008.69,1104.52l23-4.94a324.45,324.45,0,0,0-16.33-53.21c-3.49-8.61-7.33-17.09-11.56-25.37-2.13-4.13-4.34-8.26-6.61-12.26s-4.5-7.81-6.56-11.56-3.94-7.4-5.52-11c-.4-.91-.76-1.81-1.13-2.72l-1-2.76c-.72-1.82-1.2-3.75-1.79-5.63a112.4,112.4,0,0,1-3.74-24,201.68,201.68,0,0,1,.32-25.38c.57-8.62,1.5-17.35,2.49-26.21l-23.38-2.61c-1,8.93-2,18-2.59,27.26a225.25,225.25,0,0,0-.32,28.27,135.14,135.14,0,0,0,4.56,29c.73,2.39,1.37,4.81,2.28,7.16l1.29,3.55c.47,1.17.94,2.34,1.45,3.48,2,4.58,4.22,8.87,6.47,13s4.55,8,6.7,11.8,4.15,7.54,6.13,11.37c3.92,7.65,7.47,15.5,10.7,23.48A302.09,302.09,0,0,1,1008.69,1104.52Z"/><path class="22c87335-bef3-4aca-a506-473f01caabf8" d="M1031.69,1099.58l-11.51,2.46-11.5,2.46A300.82,300.82,0,0,0,996.36,1054c-2.79-8.25-5.92-16.41-9.45-24.42-1.78-4-3.61-8-5.56-11.92s-4-8-6-12.11-3.89-8.37-5.53-12.78c-.42-1.09-.8-2.21-1.18-3.32l-1-3.38c-.73-2.23-1.2-4.53-1.76-6.79a126.6,126.6,0,0,1-2.78-27.44,215.1,215.1,0,0,1,1.84-27c1.11-8.93,2.56-17.77,4.06-26.61-.53,8.95-1,17.89-1.13,26.81a210.54,210.54,0,0,0,1.1,26.52A119.28,119.28,0,0,0,974.36,977c.74,2,1.38,4,2.27,6l1.24,2.92c.45,1,.9,1.91,1.39,2.86,1.9,3.8,4.09,7.51,6.4,11.22s4.76,7.43,7.2,11.26,4.84,7.79,7.14,11.76c4.61,8,8.83,16.13,12.73,24.49A323,323,0,0,1,1031.69,1099.58Z"/><path class="6de16af7-7702-4fde-be98-8628db2b9083" d="M967.78,905.35c-2.68,16.49-5,33.15-4.68,50.2a122.76,122.76,0,0,0,3.2,25.59c.26,1.06.49,2.13.78,3.18l.95,3.14c.6,2.11,1.35,4.19,2.12,6.23,1.57,4.09,3.35,8,5.2,11.89,2,4.13,4,8.15,6,12.11s3.78,7.92,5.56,11.92c3.53,8,6.66,16.17,9.45,24.42a300.82,300.82,0,0,1,12.32,50.47l11.5-2.46a314.39,314.39,0,0,0-15-49.6c-3.2-8-6.73-15.94-10.6-23.67-1.92-3.88-3.95-7.69-6-11.49s-4.27-7.51-6.4-11.28c-4.26-7.51-8.27-15.23-10.94-23.48a117.41,117.41,0,0,1-5-25.39,185.34,185.34,0,0,1-.44-25.92C966.07,922.57,966.87,914,967.78,905.35Z"/><path class="9a6b7e19-8085-4ee8-899b-800310b50aa2" d="M676.92,1113.48l23.42-2.21c-.81-9.15.91-18.62,4.58-27.91a132.36,132.36,0,0,1,15.37-27.11c6.19-8.71,13.51-17.47,20.5-26.93,3.5-4.73,7-9.64,10.18-14.82A127.22,127.22,0,0,0,759.8,998a100.46,100.46,0,0,0,6.11-18.34A87.1,87.1,0,0,0,768,960.24,112.7,112.7,0,0,0,761.29,923a167.34,167.34,0,0,0-16.22-32.78c-6.32-10.14-13.23-19.54-19.94-28.71l-19,13.91c6.71,9.15,13.25,18.1,19,27.25a143.89,143.89,0,0,1,14,28.15,89.4,89.4,0,0,1,5.41,29.46A63.53,63.53,0,0,1,743,974.58a76.51,76.51,0,0,1-4.66,13.93c-4,9.18-9.91,18-16.4,26.8s-13.78,17.51-20.77,27.31A155.57,155.57,0,0,0,683,1074.71a93.22,93.22,0,0,0-5.28,18.72A78,78,0,0,0,676.92,1113.48Z"/><path class="22c87335-bef3-4aca-a506-473f01caabf8" d="M700.34,1111.27l-11.72,1.09-11.71,1.09a77.49,77.49,0,0,1,1.6-19.91,91.5,91.5,0,0,1,6-18.29,151,151,0,0,1,19.14-30.88c7.29-9.36,14.95-17.7,22-26.35s13.52-17.44,18.29-27a83.32,83.32,0,0,0,5.77-14.9,70.61,70.61,0,0,0,2.48-15.84,97.11,97.11,0,0,0-4.4-32.49A153.3,153.3,0,0,0,734.14,897c-5.55-9.87-11.86-19.35-18.17-28.81,7.1,8.89,14.21,17.79,20.67,27.26a157.81,157.81,0,0,1,16.62,30.35,104.69,104.69,0,0,1,7.68,34.45,80.79,80.79,0,0,1-1.26,18.07,94.94,94.94,0,0,1-5.07,17.43c-9,22.52-24.76,40.64-36.63,58.86a133,133,0,0,0-14.38,28.24C700.31,1092.46,699.05,1102.17,700.34,1111.27Z"/><path class="6de16af7-7702-4fde-be98-8628db2b9083" d="M721.05,875.83A311.06,311.06,0,0,1,737.41,903a137.62,137.62,0,0,1,11.51,29.06A93.89,93.89,0,0,1,752,962.41c-.13,1.25-.23,2.5-.38,3.74s-.32,2.48-.57,3.7c-.41,2.45-1.07,4.85-1.68,7.25A87.45,87.45,0,0,1,743.86,991c-4.77,9.61-11.31,18.42-18.29,27s-14.67,17-22,26.35a151,151,0,0,0-19.14,30.88,91.5,91.5,0,0,0-6,18.29,77.49,77.49,0,0,0-1.6,19.91l11.71-1.09a72,72,0,0,1,5-32.26,117.39,117.39,0,0,1,7-14.88c2.68-4.78,5.66-9.41,8.78-13.92s6.44-8.89,9.82-13.21,6.76-8.65,10.08-13c6.59-8.76,12.93-17.79,17.81-27.64a96.29,96.29,0,0,0,6-15.29l1.07-4,.82-4c.29-1.35.42-2.72.64-4.07s.28-2.73.41-4.1a95,95,0,0,0-3.8-32.54,137,137,0,0,0-13.08-30.13A307.44,307.44,0,0,0,721.05,875.83Z"/><path class="9a6b7e19-8085-4ee8-899b-800310b50aa2" d="M682.92,1104.72l20.13-12.17c-9.41-15.56-18.67-30.93-26.72-46.65s-14.87-31.78-19.39-48.33a156,156,0,0,1-5.54-50.21c1-16.66,5.24-32.94,13.39-46.7l-20.24-12a116.27,116.27,0,0,0-11.79,27.91,141.54,141.54,0,0,0-4.84,29.34,179.08,179.08,0,0,0,6.33,57.86c5.08,18.59,12.6,36.18,21.15,52.85S673.5,1089.15,682.92,1104.72Z"/><path class="22c87335-bef3-4aca-a506-473f01caabf8" d="M703.05,1092.55,693,1098.63l-10.07,6.08c-8.55-16.1-17.23-32.46-24.81-49.48s-14-34.74-18-53.07A171.52,171.52,0,0,1,637,946.47a131.72,131.72,0,0,1,6-27,104.31,104.31,0,0,1,12-24.57c-8.44,16.12-12,34.19-12.13,52a163,163,0,0,0,8.56,52.23c5.58,16.79,13.4,32.74,22.35,48.13S692.83,1077.48,703.05,1092.55Z"/><path class="6de16af7-7702-4fde-be98-8628db2b9083" d="M651.19,901.13a107.85,107.85,0,0,0-9.83,23.64,138.11,138.11,0,0,0-4.68,25.43,173.25,173.25,0,0,0,3.44,52c4,18.33,10.4,36.06,18,53.07s16.26,33.38,24.81,49.48l10.07-6.08c-9.1-15.05-18.19-30.12-26.27-45.74s-15.16-31.8-20.1-48.69a171.85,171.85,0,0,1-7.17-52.06A136.22,136.22,0,0,1,642.52,926,109.36,109.36,0,0,1,651.19,901.13Z"/><path class="9a6b7e19-8085-4ee8-899b-800310b50aa2" d="M723.67,1107l21.49,9.56c4.89-11,9.82-22.27,14-34.13,2.12-5.91,4-12,5.54-18.25a141,141,0,0,0,3.52-19.22c.42-3.27.56-6.6.74-9.92,0-3.34.07-6.68-.19-10a116.4,116.4,0,0,0-2.91-19.68c-2.92-12.69-7.27-24.32-11.07-35.47-1.91-5.58-3.69-11-5.16-16.44-.7-2.7-1.32-5.4-2-8.1l-.78-4.11c-.26-1.37-.56-2.72-.72-4.11a163.57,163.57,0,0,1-1.69-33.4,158.5,158.5,0,0,1,5.21-33.06,154.3,154.3,0,0,1,12-31.06l-20.85-10.9A177.69,177.69,0,0,0,727,864.6a181.88,181.88,0,0,0-6,37.85,186.77,186.77,0,0,0,1.94,38.3c.2,1.59.53,3.17.83,4.74l.9,4.73c.73,3.13,1.46,6.27,2.27,9.37,1.68,6.17,3.63,12.11,5.6,17.87,3.94,11.53,8,22.43,10.4,33.13a93.86,93.86,0,0,1,2.36,15.85c.22,2.62.15,5.27.15,7.92-.16,2.67-.25,5.33-.6,8a115.91,115.91,0,0,1-3,16.12c-1.37,5.39-3,10.77-4.9,16.15C733.19,1085.4,728.51,1096.12,723.67,1107Z"/><path class="22c87335-bef3-4aca-a506-473f01caabf8" d="M745.16,1116.58l-10.74-4.79L723.68,1107c5.3-10.69,10.45-21.21,14.74-31.87,2.18-5.33,4-10.7,5.68-16.1a120.58,120.58,0,0,0,3.76-16.34c.49-2.74.72-5.49,1-8.24l.19-4.13.06-1v-1l0-2.06a96.75,96.75,0,0,0-1.71-16.63c-2-11.2-5.67-22.49-9.1-34.08-1.71-5.79-3.37-11.68-4.74-17.7-.66-3-1.24-6-1.81-9.07l-.68-4.58c-.22-1.52-.48-3-.61-4.57a178.74,178.74,0,0,1-.33-36.63,170.88,170.88,0,0,1,7.14-35.6,165.94,165.94,0,0,1,14.34-33,164.52,164.52,0,0,0-11.5,33.77A166.47,166.47,0,0,0,736,903.25a171.5,171.5,0,0,0,3.18,35c.23,1.44.6,2.85.93,4.27l1,4.25c.79,2.8,1.56,5.6,2.4,8.38,1.75,5.54,3.8,11,5.95,16.59,4.28,11.09,9,22.37,12.29,34.59a110.44,110.44,0,0,1,3.69,38.38,139.43,139.43,0,0,1-2.76,19c-1.34,6.21-2.93,12.34-4.81,18.3C754.12,1093.93,749.62,1105.39,745.16,1116.58Z"/><path class="6de16af7-7702-4fde-be98-8628db2b9083" d="M747,842.86A175,175,0,0,0,730.74,942l.63,4.26c.21,1.42.39,2.84.7,4.25l.84,4.24.42,2.12.49,2.09c1.31,5.6,2.87,11.09,4.46,16.49,3.43,11.59,7.05,22.88,9.1,34.08a96.75,96.75,0,0,1,1.71,16.63l0,2.06v1l0,1-.2,4.13c-.29,2.75-.52,5.5-1,8.24A120.58,120.58,0,0,1,744.1,1059c-1.64,5.4-3.5,10.77-5.68,16.1-4.29,10.66-9.44,21.18-14.74,31.87l10.74,4.79c2.35-5.29,4.68-10.6,6.93-15.93s4.36-10.74,6.33-16.18,3.68-11,5.18-16.58a156.43,156.43,0,0,0,3.41-17,118.15,118.15,0,0,0,.93-17.33,104.15,104.15,0,0,0-2-17.24c-2.28-11.37-6.14-22.33-9.93-33.27-1.89-5.47-3.77-11-5.44-16.5-.43-1.38-.83-2.77-1.21-4.17s-.76-2.8-1.09-4.21c-.68-2.81-1.39-5.62-1.88-8.48a172.62,172.62,0,0,1,.73-69A169,169,0,0,1,747,842.86Z"/><path class="9a6b7e19-8085-4ee8-899b-800310b50aa2" d="M609.82,1111.64l23.44-2A1416.09,1416.09,0,0,0,611.2,954.32l-23.07,4.59A1396.33,1396.33,0,0,1,609.82,1111.64Z"/><path class="22c87335-bef3-4aca-a506-473f01caabf8" d="M633.26,1109.63l-11.72,1-11.72,1q-.27-38.7-2.71-77.52t-7-77.57q10.38,37.61,18.69,75.93T633.26,1109.63Z"/><path class="6de16af7-7702-4fde-be98-8628db2b9083" d="M600.67,961.75q4.17,36.16,6.44,72.36,2.45,38.81,2.71,77.52l11.72-1A1408.78,1408.78,0,0,0,600.67,961.75Z"/><path class="9a6b7e19-8085-4ee8-899b-800310b50aa2" d="M610.37,1117.53l23.51.52a113.2,113.2,0,0,1,4.22-27.13,246.91,246.91,0,0,1,9.55-27.36c7.39-18.37,16.3-37.24,21.78-58.31l-22.78-5.88c-4.69,18.24-13.06,36.25-20.81,55.39a270.58,270.58,0,0,0-10.44,30A135.91,135.91,0,0,0,610.37,1117.53Z"/><path class="22c87335-bef3-4aca-a506-473f01caabf8" d="M633.88,1118.05l-11.76-.26-11.75-.27a132,132,0,0,1,8-32A260.54,260.54,0,0,1,631.48,1057c9.53-18.19,19.88-35.43,26.95-54.62-3.25,20.18-10.31,39.77-16,59a243.22,243.22,0,0,0-7,28.74A111.35,111.35,0,0,0,633.88,1118.05Z"/><path class="6de16af7-7702-4fde-be98-8628db2b9083" d="M656.93,1006.24c-7,17.69-16.55,33.83-25.45,50.79a260.54,260.54,0,0,0-13.14,28.51,132,132,0,0,0-8,32l11.75.27a124.48,124.48,0,0,1,4.38-29,245.42,245.42,0,0,1,9.49-27.76C643.23,1042.89,651.58,1025.1,656.93,1006.24Z"/><path class="9a6b7e19-8085-4ee8-899b-800310b50aa2" d="M515.41,1126.69l23.52-.54-2.2-95.16c-.4-15.86-.65-31.66-1.23-47.73S534,951,531.83,934.74c-1.06-8.14-2.41-16.28-4.13-24.4l-1.37-6.08-1.54-6c-.5-2-1.16-4-1.73-6s-1.14-4-1.81-6a264.76,264.76,0,0,0-20-45.62,314.18,314.18,0,0,0-27.57-41.06,376.49,376.49,0,0,0-33.14-36.29l-16.29,17a352.59,352.59,0,0,1,31,33.94A292,292,0,0,1,480.73,852a241.09,241.09,0,0,1,18.14,41.44c.6,1.78,1.08,3.59,1.63,5.39s1.11,3.59,1.56,5.42l1.39,5.47,1.25,5.53c1.57,7.4,2.81,14.92,3.8,22.51,2,15.19,2.92,30.69,3.5,46.35s.82,31.57,1.21,47.42Z"/><path class="22c87335-bef3-4aca-a506-473f01caabf8" d="M538.93,1126.15l-11.76.26-11.76.25.84-95.22c.12-15.86.36-31.77.31-47.5s-.49-31.43-2-47c-.76-7.76-1.78-15.49-3.15-23.15l-1.1-5.74L509,902.39c-.41-1.91-1-3.77-1.43-5.66s-.94-3.78-1.51-5.64a248.34,248.34,0,0,0-17.4-43.53,300.64,300.64,0,0,0-25.07-40,365.51,365.51,0,0,0-30.91-36.1,367.07,367.07,0,0,1,33.22,34.27,306.56,306.56,0,0,1,27.91,39,257,257,0,0,1,20.65,43.68c.7,1.89,1.28,3.84,1.93,5.76s1.3,3.84,1.85,5.79l1.67,5.85,1.51,5.89c1.91,7.87,3.46,15.82,4.74,23.79,2.57,15.95,4,32,5,47.95s1.77,31.79,2.64,47.64Z"/><path class="6de16af7-7702-4fde-be98-8628db2b9083" d="M441.5,780.75a341.75,341.75,0,0,1,27.71,34.54,285,285,0,0,1,22.29,38,231.43,231.43,0,0,1,15.43,40.87A252.22,252.22,0,0,1,514.54,937c1.53,15.54,1.94,31.22,2,47s-.19,31.64-.31,47.5l-.84,95.22,11.76-.26L525,1034.46c-.37-15.33-.66-30.66-1.12-46s-1.25-30.64-3-45.88c-.86-7.61-2-15.2-3.33-22.74s-3.12-15-5.25-22.38a242.76,242.76,0,0,0-16.84-42.71,287.88,287.88,0,0,0-24.23-39A333.37,333.37,0,0,0,441.5,780.75Z"/><path class="9a6b7e19-8085-4ee8-899b-800310b50aa2" d="M449.73,1090.14l23.52.69c.41-14.42.83-29.21-.22-44.36a182.76,182.76,0,0,0-2.93-22.87c-.41-1.91-.78-3.82-1.25-5.73s-.91-3.82-1.5-5.72c-1.07-3.8-2.32-7.58-3.71-11.21-2.78-7.29-6-14.16-9.3-20.75l-9.78-19.37-19.5-38.56-21,10.62,19.51,38.56,9.7,19.21c3.13,6.3,6,12.48,8.38,18.66,1.19,3.09,2.19,6.15,3.08,9.28.49,1.55.82,3.16,1.24,4.74s.7,3.21,1,4.82a160.06,160.06,0,0,1,2.55,20C450.51,1061.72,450.16,1075.77,449.73,1090.14Z"/><path class="22c87335-bef3-4aca-a506-473f01caabf8" d="M473.25,1090.83l-11.76-.35-11.76-.36c1.44-14.33,2.82-28.35,2.87-42.23a166.31,166.31,0,0,0-1.1-20.63,121.36,121.36,0,0,0-4.16-20.13c-2-6.64-4.53-13.25-7.26-19.87l-8.36-20-16.79-39.92,22,37.27,11,18.68c3.66,6.29,7.23,12.77,10.35,19.62a134,134,0,0,1,7.6,21.46,182.17,182.17,0,0,1,4.27,22.25C472.18,1061.56,472.72,1076.39,473.25,1090.83Z"/><path class="6de16af7-7702-4fde-be98-8628db2b9083" d="M417.18,932.76,432.85,970c5.15,12.45,10.77,24.75,14.49,37.13a121.36,121.36,0,0,1,4.16,20.13,166.31,166.31,0,0,1,1.1,20.63c-.05,13.88-1.43,27.9-2.87,42.23l11.76.36c.41-13.91.78-27.85-.1-41.74s-3.06-27.76-7.74-40.89S442.25,982.46,436,970Z"/><path class="9a6b7e19-8085-4ee8-899b-800310b50aa2" d="M538.88,1112.67l22.66,6.34a383.87,383.87,0,0,0,10.92-151.49l-23.33,3A360.25,360.25,0,0,1,538.88,1112.67Z"/><path class="22c87335-bef3-4aca-a506-473f01caabf8" d="M561.54,1119l-11.33-3.17-11.32-3.18a358.8,358.8,0,0,0,18.28-70.11,367.39,367.39,0,0,0,4-73.58,373.81,373.81,0,0,1,7.7,74.43A376.27,376.27,0,0,1,561.54,1119Z"/><path class="6de16af7-7702-4fde-be98-8628db2b9083" d="M561.36,974a368.52,368.52,0,0,1-4.19,68.58,358.8,358.8,0,0,1-18.28,70.11l11.32,3.18A372.18,372.18,0,0,0,561.36,974Z"/><path class="9a6b7e19-8085-4ee8-899b-800310b50aa2" d="M775.22,1139.67l23.5-1.1A333.31,333.31,0,0,1,822,999.48l-21.83-8.77A357,357,0,0,0,775.22,1139.67Z"/><path class="22c87335-bef3-4aca-a506-473f01caabf8" d="M798.72,1138.57l-11.75.54-11.75.55a354.15,354.15,0,0,1,10.53-74.79,342.19,342.19,0,0,1,25.75-69.62,338.33,338.33,0,0,0-12.78,143.32Z"/><path class="6de16af7-7702-4fde-be98-8628db2b9083" d="M809.34,999.71a344.88,344.88,0,0,0-23.59,65.16,354.15,354.15,0,0,0-10.53,74.79l11.75-.55A345.85,345.85,0,0,1,809.34,999.71Z"/><path class="9a6b7e19-8085-4ee8-899b-800310b50aa2" d="M769.16,1128.2l22.13,8a88.86,88.86,0,0,0,4.73-34.35,137.05,137.05,0,0,0-5.8-32.54c-6.2-20.68-15.38-39-21.63-57.11l-22.22,7.71c7,20,16,38,21.3,56.11a113.56,113.56,0,0,1,4.85,26.93A65.54,65.54,0,0,1,769.16,1128.2Z"/><path class="22c87335-bef3-4aca-a506-473f01caabf8" d="M791.29,1136.16l-11.06-4-11.07-4c3.76-7.4,5.83-16.19,6.4-25.43a116,116,0,0,0-2.06-28.52c-3.61-19.33-10.93-38.66-15.63-58.36,8.39,18.42,19.1,35.5,26.9,55a131,131,0,0,1,8.42,31.06A86.37,86.37,0,0,1,791.29,1136.16Z"/><path class="6de16af7-7702-4fde-be98-8628db2b9083" d="M758.85,1019.85c4.69,18.33,11.27,36.36,14.65,54.39a116,116,0,0,1,2.06,28.52c-.57,9.24-2.64,18-6.4,25.43l11.07,4a76.75,76.75,0,0,0,4.07-28.8,122.85,122.85,0,0,0-4.8-28.8C774.17,1055.78,765.54,1038.17,758.85,1019.85Z"/><path class="9a6b7e19-8085-4ee8-899b-800310b50aa2" d="M772.42,1111.17l23.46-1.71c-1.3-17.76.56-35.88,4.43-53.77s9.7-35.64,16.36-53.23,14.17-35.24,21.22-53.32,13.65-36.68,18.38-56.07l-22.86-5.58C829.06,905.36,822.84,923,816,940.6s-14.39,35.31-21.3,53.52-13.12,37-17.35,56.6S770.92,1090.65,772.42,1111.17Z"/><path class="22c87335-bef3-4aca-a506-473f01caabf8" d="M795.88,1109.46l-11.73.85-11.73.84c-.48-20.59,2.71-40.7,7.88-59.8s12.28-37.37,20.07-55.08,16.23-34.92,24.11-52.36,15.22-35.12,20.76-53.53c-3.63,18.88-9.18,37.42-15.28,55.67s-12.75,36.29-18.6,54.4-10.83,36.32-13.82,54.64S793.63,1091.77,795.88,1109.46Z"/><path class="6de16af7-7702-4fde-be98-8628db2b9083" d="M842.9,897.77c-5.59,17-12.62,33.42-20,49.66s-15.23,32.33-22.5,48.84c-7.79,17.71-14.9,36-20.07,55.08s-8.36,39.21-7.88,59.8l11.73-.84c-1.34-18.49.51-37.1,4.28-55.22s9.45-35.83,15.89-53.18,13.67-34.42,20.49-51.64S838.06,915.66,842.9,897.77Z"/><path class="9a6b7e19-8085-4ee8-899b-800310b50aa2" d="M1187.48,1088.31l23.52.75c1.11-34.24,12-68.25,30.57-97.21a183.84,183.84,0,0,1,33.27-39,155.83,155.83,0,0,1,42.82-27l-9-21.73a179.24,179.24,0,0,0-49.34,31.09,207.7,207.7,0,0,0-37.56,44A217,217,0,0,0,1187.48,1088.31Z"/><path class="22c87335-bef3-4aca-a506-473f01caabf8" d="M1211,1089.06l-11.76-.38-11.75-.39a213.52,213.52,0,0,1,39.39-105.85,199.83,199.83,0,0,1,38.46-40.39,168.15,168.15,0,0,1,48-26.69,165.42,165.42,0,0,0-44.1,31.11,191.32,191.32,0,0,0-32.44,42.32C1219.3,1019.62,1210.21,1054.75,1211,1089.06Z"/><path class="6de16af7-7702-4fde-be98-8628db2b9083" d="M1306.43,918a170.16,170.16,0,0,0-44,26.42,201.65,201.65,0,0,0-35.54,38.05,213.52,213.52,0,0,0-39.39,105.85l11.75.39a205.57,205.57,0,0,1,30.45-100.06A196.66,196.66,0,0,1,1263,947.73,171,171,0,0,1,1306.43,918Z"/><path class="9a6b7e19-8085-4ee8-899b-800310b50aa2" d="M1190.65,1109.8l23.34,3a139,139,0,0,0-1.39-41.7,268.19,268.19,0,0,0-10.35-38.74c-4.16-12.4-8.69-24.39-12.79-36.27a290.66,290.66,0,0,1-10.2-35.4l-23,4.79a313.85,313.85,0,0,0,11,38.28c4.25,12.3,8.76,24.24,12.73,36.09a244.5,244.5,0,0,1,9.47,35.3A115.26,115.26,0,0,1,1190.65,1109.8Z"/><path class="22c87335-bef3-4aca-a506-473f01caabf8" d="M1214,1112.76l-11.67-1.49-11.67-1.49a115.28,115.28,0,0,0,1.77-35.2,245.52,245.52,0,0,0-6.7-36.72c-6.11-24.59-14.35-49.44-17.57-74.9a299.38,299.38,0,0,0,13.27,35.87c5,11.72,10.43,23.33,15.45,35.3a258.57,258.57,0,0,1,12.93,37.42A136.2,136.2,0,0,1,1214,1112.76Z"/><path class="6de16af7-7702-4fde-be98-8628db2b9083" d="M1168.86,968.08c3.63,23.69,11.15,46.83,16.86,69.78a245.52,245.52,0,0,1,6.7,36.72,115.28,115.28,0,0,1-1.77,35.2l11.67,1.49a126.27,126.27,0,0,0-1.1-36.92,242.59,242.59,0,0,0-9.31-35.84C1184.18,1015.05,1174.53,992.18,1168.86,968.08Z"/><path class="9a6b7e19-8085-4ee8-899b-800310b50aa2" d="M1130.05,1102.77l23.2-3.86A1183.34,1183.34,0,0,1,1138,948.29l-23.51.87A1206.29,1206.29,0,0,0,1130.05,1102.77Z"/><path class="22c87335-bef3-4aca-a506-473f01caabf8" d="M1153.25,1098.91l-11.6,1.92-11.61,1.93q-3.35-38.6-4.19-77.17t.78-76.88q4.26,38.1,10.92,75.7T1153.25,1098.91Z"/><path class="6de16af7-7702-4fde-be98-8628db2b9083" d="M1126.44,953.87q-1.37,35.76-.59,71.72.86,38.55,4.19,77.17l11.61-1.93A1193.45,1193.45,0,0,1,1126.44,953.87Z"/><path class="9a6b7e19-8085-4ee8-899b-800310b50aa2" d="M1173.06,1123.79l23.49,1.13,2.37-49.27,1.18-24.64c.4-8.22.77-16.33,1.39-24.27a228.07,228.07,0,0,1,2.86-23.26,138.24,138.24,0,0,1,5.87-22c5.11-14.65,12.53-29.83,17.15-47.24l-22.76-6a197.57,197.57,0,0,1-7.52,22c-2.95,7.49-6.18,15.23-9.06,23.41a162.15,162.15,0,0,0-6.82,25.59,253,253,0,0,0-3.18,25.67c-.65,8.45-1,16.77-1.43,25l-1.18,24.63Z"/><path class="22c87335-bef3-4aca-a506-473f01caabf8" d="M1196.55,1124.92l-11.74-.57-11.75-.57,5.4-49.12,2.7-24.56c.91-8.18,1.79-16.44,2.94-24.72a245.61,245.61,0,0,1,4.6-24.77,152.91,152.91,0,0,1,7.94-23.93c6.48-15.36,14.56-29.61,19.75-45.34-3.29,16.23-9.73,31.71-14.2,47.29a145.38,145.38,0,0,0-4.82,23.57,235.14,235.14,0,0,0-1.54,24.1c-.16,8.1-.06,16.27,0,24.51l.23,24.7Z"/><path class="6de16af7-7702-4fde-be98-8628db2b9083" d="M1214.14,937.61c-5.48,14.36-13,27.7-18.78,42.19-1.44,3.62-2.78,7.32-4,11.08s-2.18,7.56-3.1,11.38c-1.79,7.66-3.11,15.4-4.19,23.12-1.15,8.28-2,16.54-2.94,24.72l-2.7,24.56-5.4,49.12,11.75.57,2.28-47.61,1.14-23.81c.39-7.93.74-15.87,1.28-23.8,1.1-15.82,3.09-31.72,8-46.86S1209.41,952.79,1214.14,937.61Z"/><path class="9a6b7e19-8085-4ee8-899b-800310b50aa2" d="M1085.39,1115.2l23.53,0a168.05,168.05,0,0,0-16.2-72.07,158.59,158.59,0,0,0-9-16.35c-3.32-5.24-6.85-10.19-10.4-14.95-7.1-9.52-14.28-18.32-20.29-27.3a109,109,0,0,1-14-28,143.55,143.55,0,0,1-6.08-31.28,256,256,0,0,1-.54-33.07c.45-11.2,1.37-22.51,2.37-34l-23.43-2.06c-1,11.54-2,23.22-2.44,35.09a276,276,0,0,0,.61,36.08,166.9,166.9,0,0,0,7.15,36.51c.45,1.51,1.06,3,1.59,4.47s1.06,3,1.68,4.46l1.93,4.37,1,2.19c.34.72.71,1.42,1.07,2.13a148.28,148.28,0,0,0,9.54,16.16c6.84,10.2,14.29,19.27,21,28.26,3.34,4.48,6.51,8.94,9.36,13.45a132.91,132.91,0,0,1,7.7,13.92A144.45,144.45,0,0,1,1085.39,1115.2Z"/><path class="22c87335-bef3-4aca-a506-473f01caabf8" d="M1108.92,1115.24l-11.76,0-11.77,0a145.8,145.8,0,0,0-11.16-63.2,136,136,0,0,0-7.23-14.63c-2.71-4.77-5.74-9.46-8.92-14.15-6.36-9.39-13.37-18.76-19.58-28.92a145.46,145.46,0,0,1-8.47-15.84c-.31-.69-.64-1.37-.92-2.06l-.83-2.11-1.64-4.19c-.53-1.41-.94-2.85-1.41-4.27s-1-2.84-1.32-4.28a158.51,158.51,0,0,1-5.29-34.95,267.92,267.92,0,0,1,.94-34.85c1-11.54,2.41-23,3.92-34.44-.53,11.53-1,23.06-1,34.55a263.24,263.24,0,0,0,2,34.23,151.7,151.7,0,0,0,7.81,32.73c.46,1.31,1,2.57,1.57,3.85s1,2.57,1.62,3.81l1.84,3.71.91,1.85c.31.61.67,1.2,1,1.8a134.37,134.37,0,0,0,9,13.91c6.61,9,14.2,17.55,21.6,26.69,3.7,4.57,7.36,9.29,10.81,14.3a154.23,154.23,0,0,1,9.48,15.67A166.58,166.58,0,0,1,1108.92,1115.24Z"/><path class="6de16af7-7702-4fde-be98-8628db2b9083" d="M1022.29,866.53c-2.68,21.35-4.86,42.91-3.4,64.77.15,2.73.5,5.45.75,8.18s.76,5.44,1.15,8.17c.55,2.71,1,5.43,1.65,8.13l1,4c.34,1.35.67,2.7,1.13,4l1.27,4c.22.67.41,1.34.66,2l.77,2,1.54,3.92c.48,1.32,1.13,2.56,1.7,3.85a146.87,146.87,0,0,0,8,14.74c6.21,10.16,13.22,19.53,19.58,28.92,3.18,4.69,6.21,9.38,8.92,14.15a136,136,0,0,1,7.23,14.63,145.8,145.8,0,0,1,11.16,63.2l11.77,0a156.28,156.28,0,0,0-14.08-64.87,149.77,149.77,0,0,0-7.81-14.77c-2.89-4.77-6.06-9.36-9.35-13.86-6.56-9-13.64-17.64-20.06-26.76a163,163,0,0,1-9-14.09,113.12,113.12,0,0,1-7.06-15.14,141.76,141.76,0,0,1-7.84-32.43,231.07,231.07,0,0,1-1.55-33.37C1020.63,888.77,1021.38,877.64,1022.29,866.53Z"/><path class="9a6b7e19-8085-4ee8-899b-800310b50aa2" d="M1106.4,1119.38l22.68-6.26c-7.27-26.34-14.33-52.43-18.66-78.66s-5.84-52.59-1.89-78.07l-23.25-3.58a233,233,0,0,0-2.42,43.12,324.75,324.75,0,0,0,4.35,42.35C1091.81,1066.11,1099.12,1093,1106.4,1119.38Z"/><path class="22c87335-bef3-4aca-a506-473f01caabf8" d="M1129.08,1113.12l-11.34,3.12-11.34,3.13c-5.33-26.95-10.67-54.34-13.19-82.08a318.62,318.62,0,0,1-1.23-41.66,221.59,221.59,0,0,1,5.33-41,218.57,218.57,0,0,0,.55,40.78,307.72,307.72,0,0,0,7,39.94C1111.08,1061.69,1120,1087.28,1129.08,1113.12Z"/><path class="6de16af7-7702-4fde-be98-8628db2b9083" d="M1096.21,960.08c-5.11,25.13-5.34,51.38-3,77.21,2.52,27.74,7.86,55.13,13.19,82.08l11.34-3.13c-7-25.49-14-51.07-18.45-77.15S1092.87,986.37,1096.21,960.08Z"/><path class="9a6b7e19-8085-4ee8-899b-800310b50aa2" d="M922.44,1101.72l23.51.75c1.11-34.24,12-68.25,30.57-97.21a183.93,183.93,0,0,1,33.28-39,155.53,155.53,0,0,1,42.82-27l-9-21.73a178.71,178.71,0,0,0-49.34,31.09,207.17,207.17,0,0,0-37.56,44A217,217,0,0,0,922.44,1101.72Z"/><path class="22c87335-bef3-4aca-a506-473f01caabf8" d="M946,1102.47l-11.75-.38-11.76-.39a213.53,213.53,0,0,1,39.4-105.85,199.83,199.83,0,0,1,38.46-40.39,168.1,168.1,0,0,1,48-26.69,165.15,165.15,0,0,0-44.09,31.11,191.32,191.32,0,0,0-32.44,42.32C954.26,1033,945.17,1068.16,946,1102.47Z"/><path class="6de16af7-7702-4fde-be98-8628db2b9083" d="M1041.39,931.38a170.22,170.22,0,0,0-44,26.42,201.62,201.62,0,0,0-35.53,38.05,213.53,213.53,0,0,0-39.4,105.85l11.76.39A205.57,205.57,0,0,1,964.65,1002a196.61,196.61,0,0,1,33.28-40.89A170.54,170.54,0,0,1,1041.39,931.38Z"/><path class="9a6b7e19-8085-4ee8-899b-800310b50aa2" d="M925.61,1123.2l23.33,3a138.74,138.74,0,0,0-1.39-41.71,268,268,0,0,0-10.34-38.73c-4.17-12.4-8.7-24.39-12.79-36.27a290.66,290.66,0,0,1-10.2-35.4l-23,4.78a314,314,0,0,0,11,38.29c4.24,12.3,8.75,24.24,12.73,36.09a244.5,244.5,0,0,1,9.47,35.3A115.2,115.2,0,0,1,925.61,1123.2Z"/><path class="22c87335-bef3-4aca-a506-473f01caabf8" d="M948.94,1126.17l-11.67-1.49-11.66-1.49a115.28,115.28,0,0,0,1.77-35.2,245.33,245.33,0,0,0-6.71-36.72c-6.1-24.59-14.34-49.44-17.57-74.9a301.11,301.11,0,0,0,13.27,35.87c5,11.72,10.44,23.33,15.46,35.3A260.07,260.07,0,0,1,944.76,1085,136.3,136.3,0,0,1,948.94,1126.17Z"/><path class="6de16af7-7702-4fde-be98-8628db2b9083" d="M903.82,981.49c3.63,23.69,11.15,46.83,16.85,69.78a245.33,245.33,0,0,1,6.71,36.72,115.28,115.28,0,0,1-1.77,35.2l11.66,1.49a126.27,126.27,0,0,0-1.09-36.92,243.83,243.83,0,0,0-9.31-35.84C919.14,1028.46,909.49,1005.59,903.82,981.49Z"/><path class="9a6b7e19-8085-4ee8-899b-800310b50aa2" d="M865,1116.18l23.21-3.87A1181.19,1181.19,0,0,1,872.94,961.7l-23.51.87A1204.64,1204.64,0,0,0,865,1116.18Z"/><path class="22c87335-bef3-4aca-a506-473f01caabf8" d="M888.21,1112.31l-11.61,1.93-11.6,1.93q-3.35-38.6-4.19-77.17t.78-76.88q4.26,38.1,10.92,75.7T888.21,1112.31Z"/><path class="6de16af7-7702-4fde-be98-8628db2b9083" d="M861.39,967.27Q860,1003,860.81,1039q.84,38.55,4.19,77.17l11.6-1.93A1197.51,1197.51,0,0,1,861.39,967.27Z"/><path class="9a6b7e19-8085-4ee8-899b-800310b50aa2" d="M908,1137.2l23.5,1.13,2.37-49.27,1.18-24.64c.4-8.23.77-16.33,1.38-24.27a228.26,228.26,0,0,1,2.87-23.27,138.4,138.4,0,0,1,5.87-22c5.11-14.65,12.53-29.83,17.15-47.24l-22.76-6a197.67,197.67,0,0,1-7.53,22c-2.95,7.49-6.18,15.23-9.06,23.41a162.12,162.12,0,0,0-6.81,25.59,250.29,250.29,0,0,0-3.18,25.66c-.66,8.46-1,16.78-1.43,25l-1.18,24.63Z"/><path class="22c87335-bef3-4aca-a506-473f01caabf8" d="M931.51,1138.33l-11.75-.57-11.74-.58,5.4-49.12,2.7-24.56c.9-8.17,1.79-16.43,2.94-24.71a242.8,242.8,0,0,1,4.59-24.77,152.94,152.94,0,0,1,8-23.93c6.48-15.36,14.56-29.61,19.74-45.35-3.28,16.23-9.72,31.72-14.19,47.3a145.38,145.38,0,0,0-4.82,23.57,235,235,0,0,0-1.55,24.1c-.15,8.1,0,16.26,0,24.51l.23,24.7Z"/><path class="6de16af7-7702-4fde-be98-8628db2b9083" d="M949.1,951c-5.48,14.37-13,27.71-18.79,42.2-1.44,3.62-2.77,7.32-4,11.08s-2.19,7.56-3.1,11.38c-1.8,7.66-3.12,15.4-4.19,23.12-1.15,8.28-2,16.54-2.94,24.71l-2.7,24.56-5.4,49.12,11.74.58,2.29-47.61,1.14-23.81c.39-7.93.74-15.87,1.28-23.8,1.09-15.82,3.09-31.72,8-46.86S944.36,966.2,949.1,951Z"/><path class="9a6b7e19-8085-4ee8-899b-800310b50aa2" d="M820.35,1128.61l23.52,0a168,168,0,0,0-16.19-72.07,157.63,157.63,0,0,0-9-16.35c-3.31-5.24-6.84-10.19-10.39-15-7.1-9.52-14.29-18.32-20.3-27.3A108.92,108.92,0,0,1,774,970a143.67,143.67,0,0,1-6.08-31.28,254.18,254.18,0,0,1-.54-33.07c.45-11.2,1.37-22.52,2.37-34l-23.44-2.06c-1,11.54-2,23.22-2.44,35.08a279.7,279.7,0,0,0,.61,36.09,167.51,167.51,0,0,0,7.16,36.51c.45,1.51,1.06,3,1.58,4.47s1.06,3,1.69,4.45l1.93,4.38,1,2.18c.33.73.71,1.43,1.07,2.14a149.85,149.85,0,0,0,9.53,16.16c6.85,10.19,14.29,19.27,21,28.25,3.35,4.49,6.52,9,9.37,13.46a131.9,131.9,0,0,1,7.7,13.92A144.41,144.41,0,0,1,820.35,1128.61Z"/><path class="22c87335-bef3-4aca-a506-473f01caabf8" d="M843.87,1128.65l-11.76,0-11.76,0a146.08,146.08,0,0,0-11.16-63.19,136,136,0,0,0-7.23-14.63c-2.72-4.77-5.74-9.46-8.93-14.16-6.35-9.38-13.36-18.75-19.57-28.91A143.75,143.75,0,0,1,765,991.85c-.31-.69-.64-1.37-.93-2.06l-.82-2.11-1.65-4.19c-.53-1.41-.93-2.85-1.41-4.27s-.95-2.84-1.32-4.28a158.49,158.49,0,0,1-5.28-35,266.36,266.36,0,0,1,.94-34.86c1-11.53,2.41-23,3.92-34.44-.54,11.54-1,23.07-1,34.56a263,263,0,0,0,2,34.22,151.06,151.06,0,0,0,7.81,32.74c.45,1.31,1,2.56,1.56,3.85s1,2.57,1.63,3.81l1.83,3.71.91,1.85c.32.61.67,1.2,1,1.8a132.75,132.75,0,0,0,9,13.91c6.61,9,14.2,17.55,21.6,26.69,3.7,4.57,7.36,9.29,10.8,14.3a152.43,152.43,0,0,1,9.48,15.67A166.26,166.26,0,0,1,843.87,1128.65Z"/><path class="6de16af7-7702-4fde-be98-8628db2b9083" d="M757.24,879.94c-2.67,21.34-4.86,42.91-3.39,64.77.15,2.73.5,5.45.74,8.18s.77,5.44,1.16,8.17c.55,2.71,1,5.43,1.65,8.13l1,4c.34,1.34.67,2.7,1.12,4l1.28,4c.22.66.41,1.34.66,2l.76,2,1.54,3.92c.49,1.32,1.14,2.56,1.7,3.85a149,149,0,0,0,8,14.74c6.21,10.16,13.22,19.53,19.57,28.91,3.19,4.7,6.21,9.39,8.93,14.16a136,136,0,0,1,7.23,14.63,146.08,146.08,0,0,1,11.16,63.19l11.76,0A156.27,156.27,0,0,0,818,1063.75a148.65,148.65,0,0,0-7.81-14.77c-2.9-4.77-6.06-9.36-9.35-13.86-6.57-9-13.64-17.64-20.06-26.76a159.29,159.29,0,0,1-9-14.1,112.43,112.43,0,0,1-7.06-15.13,141.89,141.89,0,0,1-7.84-32.43,229.78,229.78,0,0,1-1.55-33.38C755.59,902.18,756.33,891.05,757.24,879.94Z"/><path class="9a6b7e19-8085-4ee8-899b-800310b50aa2" d="M841.36,1132.79l22.67-6.26c-7.27-26.34-14.33-52.43-18.65-78.66s-5.84-52.59-1.89-78.07l-23.25-3.58a233.93,233.93,0,0,0-2.43,43.12,324.76,324.76,0,0,0,4.36,42.35C826.76,1079.52,834.08,1106.37,841.36,1132.79Z"/><path class="22c87335-bef3-4aca-a506-473f01caabf8" d="M864,1126.53l-11.34,3.12-11.34,3.13c-5.33-27-10.66-54.34-13.18-82.09a316.79,316.79,0,0,1-1.23-41.65,221.59,221.59,0,0,1,5.33-41,219.44,219.44,0,0,0,.54,40.78,309.75,309.75,0,0,0,7,39.94C846,1075.1,854.94,1100.69,864,1126.53Z"/><path class="6de16af7-7702-4fde-be98-8628db2b9083" d="M831.16,973.49c-5.1,25.13-5.33,51.37-3,77.2,2.52,27.75,7.85,55.13,13.18,82.09l11.34-3.13c-7-25.49-14-51.07-18.44-77.15S827.83,999.78,831.16,973.49Z"/><path class="9a6b7e19-8085-4ee8-899b-800310b50aa2" d="M1710.86,1093.18l23.52.75c1.11-34.24,12-68.25,30.56-97.21a184.18,184.18,0,0,1,33.28-39,155.83,155.83,0,0,1,42.82-27L1832,909a179.24,179.24,0,0,0-49.34,31.09,208,208,0,0,0-37.56,44A217,217,0,0,0,1710.86,1093.18Z"/><path class="22c87335-bef3-4aca-a506-473f01caabf8" d="M1734.38,1093.93l-11.76-.38-11.76-.39a213.63,213.63,0,0,1,39.4-105.85,199.83,199.83,0,0,1,38.46-40.39,168.23,168.23,0,0,1,48-26.69,165.53,165.53,0,0,0-44.09,31.11,191.32,191.32,0,0,0-32.44,42.32C1742.68,1024.49,1733.59,1059.62,1734.38,1093.93Z"/><path class="6de16af7-7702-4fde-be98-8628db2b9083" d="M1829.81,922.84a170.16,170.16,0,0,0-44,26.42,201.65,201.65,0,0,0-35.54,38,213.63,213.63,0,0,0-39.4,105.85l11.76.39a205.57,205.57,0,0,1,30.45-100.06,196.93,196.93,0,0,1,33.28-40.89A171,171,0,0,1,1829.81,922.84Z"/><path class="9a6b7e19-8085-4ee8-899b-800310b50aa2" d="M700.42,1099.75l23.34,3a139.07,139.07,0,0,0-1.39-41.71A268.4,268.4,0,0,0,712,1022.28c-4.16-12.4-8.69-24.39-12.78-36.27A290.73,290.73,0,0,1,689,950.61l-23,4.79a312.1,312.1,0,0,0,11,38.28c4.24,12.3,8.75,24.24,12.72,36.09a244.5,244.5,0,0,1,9.47,35.3A115.2,115.2,0,0,1,700.42,1099.75Z"/><path class="22c87335-bef3-4aca-a506-473f01caabf8" d="M723.76,1102.72l-11.67-1.49-11.67-1.49a115.28,115.28,0,0,0,1.77-35.2,244,244,0,0,0-6.7-36.72c-6.11-24.59-14.34-49.44-17.57-74.9a299.38,299.38,0,0,0,13.27,35.87c5,11.72,10.43,23.33,15.45,35.3a258.86,258.86,0,0,1,12.93,37.41A136,136,0,0,1,723.76,1102.72Z"/><path class="6de16af7-7702-4fde-be98-8628db2b9083" d="M678.63,958c3.63,23.69,11.15,46.83,16.86,69.78a244,244,0,0,1,6.7,36.72,115.28,115.28,0,0,1-1.77,35.2l11.67,1.49a126.61,126.61,0,0,0-1.09-36.92,243.87,243.87,0,0,0-9.32-35.84C694,1005,684.3,982.14,678.63,958Z"/><path class="9a6b7e19-8085-4ee8-899b-800310b50aa2" d="M643.89,1118.76l23.21-3.87a1181.55,1181.55,0,0,1-15.28-150.62l-23.5.87A1204.8,1204.8,0,0,0,643.89,1118.76Z"/><path class="22c87335-bef3-4aca-a506-473f01caabf8" d="M667.1,1114.89l-11.61,1.92-11.6,1.93q-3.35-38.6-4.19-77.16t.78-76.89q4.24,38.1,10.92,75.71T667.1,1114.89Z"/><path class="6de16af7-7702-4fde-be98-8628db2b9083" d="M640.28,969.85q-1.37,35.76-.58,71.73.84,38.54,4.19,77.16l11.6-1.93A1195.4,1195.4,0,0,1,640.28,969.85Z"/><path class="9a6b7e19-8085-4ee8-899b-800310b50aa2" d="M1673.92,1097.83l23.5,1.13,2.36-49.27,1.19-24.64c.39-8.22.76-16.33,1.38-24.27a225.28,225.28,0,0,1,2.87-23.26,138.24,138.24,0,0,1,5.87-22c5.11-14.65,12.53-29.83,17.14-47.24l-22.75-6a199.74,199.74,0,0,1-7.53,22c-3,7.49-6.18,15.23-9.06,23.41a162.12,162.12,0,0,0-6.81,25.59A247.54,247.54,0,0,0,1678.9,999c-.66,8.46-1,16.78-1.43,25l-1.18,24.63Z"/><path class="22c87335-bef3-4aca-a506-473f01caabf8" d="M1697.42,1099l-11.75-.57-11.75-.57,5.41-49.12,2.7-24.56c.9-8.18,1.78-16.44,2.94-24.72a242.8,242.8,0,0,1,4.59-24.77,152.94,152.94,0,0,1,8-23.93c6.47-15.36,14.55-29.61,19.74-45.35-3.28,16.24-9.73,31.72-14.2,47.3a146.43,146.43,0,0,0-4.81,23.57,235.14,235.14,0,0,0-1.55,24.1c-.15,8.1,0,16.27,0,24.51l.24,24.7Z"/><path class="6de16af7-7702-4fde-be98-8628db2b9083" d="M1715,911.65c-5.48,14.36-13,27.7-18.79,42.19-1.44,3.62-2.78,7.32-4,11.08s-2.19,7.56-3.1,11.38c-1.8,7.66-3.12,15.4-4.19,23.12-1.16,8.28-2,16.54-2.94,24.71l-2.7,24.57-5.41,49.12,11.75.57,2.29-47.61,1.14-23.81c.38-7.93.73-15.87,1.28-23.8,1.09-15.82,3.09-31.72,8-46.86S1710.27,926.83,1715,911.65Z"/><path class="9a6b7e19-8085-4ee8-899b-800310b50aa2" d="M599.24,1131.18l23.52,0a167.91,167.91,0,0,0-16.2-72.07,156.72,156.72,0,0,0-9-16.35c-3.31-5.24-6.84-10.19-10.39-15-7.1-9.51-14.29-18.32-20.3-27.3a109.12,109.12,0,0,1-14-28,144.17,144.17,0,0,1-6.07-31.27,254.33,254.33,0,0,1-.54-33.08c.44-11.2,1.36-22.51,2.37-34L525.2,872.2c-1,11.54-2,23.23-2.44,35.09a279.52,279.52,0,0,0,.61,36.08,168,168,0,0,0,7.15,36.51c.46,1.51,1.07,3,1.59,4.48s1.06,3,1.69,4.45l1.93,4.37,1,2.19c.33.72.71,1.42,1.07,2.14a151.82,151.82,0,0,0,9.53,16.16c6.85,10.19,14.29,19.27,21,28.25,3.35,4.48,6.52,8.94,9.37,13.45a133.93,133.93,0,0,1,7.7,13.92A144.74,144.74,0,0,1,599.24,1131.18Z"/><path class="22c87335-bef3-4aca-a506-473f01caabf8" d="M622.76,1131.22l-11.76,0-11.76,0a146.09,146.09,0,0,0-11.16-63.2,137.05,137.05,0,0,0-7.24-14.63c-2.71-4.77-5.74-9.46-8.92-14.15-6.35-9.39-13.36-18.76-19.57-28.92a142.85,142.85,0,0,1-8.47-15.84c-.31-.69-.64-1.37-.93-2.06l-.82-2.1-1.65-4.2c-.53-1.4-.94-2.85-1.41-4.27s-1-2.83-1.32-4.28a158.49,158.49,0,0,1-5.28-35,266.16,266.16,0,0,1,.93-34.85c1-11.54,2.42-23,3.93-34.44-.54,11.53-1,23.06-1,34.56a263.08,263.08,0,0,0,2,34.22,151.71,151.71,0,0,0,7.82,32.73c.45,1.31,1.05,2.57,1.56,3.85s1,2.57,1.63,3.81l1.83,3.71.91,1.85c.32.61.67,1.2,1,1.8a132.84,132.84,0,0,0,9,13.91c6.61,9,14.19,17.55,21.6,26.69,3.7,4.57,7.36,9.29,10.8,14.3a152.43,152.43,0,0,1,9.48,15.67A166.44,166.44,0,0,1,622.76,1131.22Z"/><path class="6de16af7-7702-4fde-be98-8628db2b9083" d="M536.13,882.51c-2.67,21.35-4.86,42.92-3.4,64.77.16,2.73.51,5.45.75,8.18s.77,5.45,1.16,8.18c.55,2.7,1,5.42,1.64,8.12l1,4c.35,1.35.68,2.7,1.13,4l1.28,4c.22.66.41,1.33.66,2l.76,2,1.54,3.92c.49,1.32,1.14,2.57,1.7,3.86a150,150,0,0,0,8,14.73c6.21,10.16,13.22,19.53,19.57,28.92,3.18,4.69,6.21,9.38,8.92,14.15a137.05,137.05,0,0,1,7.24,14.63,146.09,146.09,0,0,1,11.16,63.2l11.76,0a156.27,156.27,0,0,0-14.07-64.87,149.77,149.77,0,0,0-7.81-14.77c-2.9-4.76-6.06-9.36-9.35-13.86-6.57-9-13.65-17.64-20.06-26.75a162.26,162.26,0,0,1-9-14.1,112.55,112.55,0,0,1-7.06-15.14,141.63,141.63,0,0,1-7.84-32.43,229.65,229.65,0,0,1-1.55-33.37C534.48,904.75,535.22,893.62,536.13,882.51Z"/><path class="9a6b7e19-8085-4ee8-899b-800310b50aa2" d="M620.25,1135.36l22.67-6.26c-7.27-26.34-14.33-52.43-18.65-78.66s-5.84-52.59-1.89-78.07l-23.25-3.58a232.19,232.19,0,0,0-2.43,43.12,326.49,326.49,0,0,0,4.35,42.35C605.65,1082.09,613,1109,620.25,1135.36Z"/><path class="22c87335-bef3-4aca-a506-473f01caabf8" d="M642.92,1129.1l-11.34,3.13-11.34,3.12c-5.33-26.95-10.66-54.34-13.18-82.08a316.89,316.89,0,0,1-1.23-41.66,221.59,221.59,0,0,1,5.33-41,219.43,219.43,0,0,0,.54,40.78,310.85,310.85,0,0,0,7,39.94C624.93,1077.67,633.83,1103.26,642.92,1129.1Z"/><path class="6de16af7-7702-4fde-be98-8628db2b9083" d="M610.05,976.06c-5.1,25.13-5.33,51.38-3,77.21,2.52,27.74,7.85,55.13,13.18,82.08l11.34-3.12c-7-25.5-14-51.07-18.44-77.16S606.72,1002.35,610.05,976.06Z"/><path class="9a6b7e19-8085-4ee8-899b-800310b50aa2" d="M483.84,1069.78l23.52.31c.46-34.31,10.75-68.56,28.74-97.93a184.91,184.91,0,0,1,32.53-39.73,156.35,156.35,0,0,1,42.3-28l-9.48-21.53a179.8,179.8,0,0,0-48.72,32.17A208.75,208.75,0,0,0,516,959.87,217.45,217.45,0,0,0,483.84,1069.78Z"/><path class="22c87335-bef3-4aca-a506-473f01caabf8" d="M507.36,1070.09l-11.76-.16-11.76-.17A214,214,0,0,1,521.23,963a200.91,200.91,0,0,1,37.67-41.22,169.08,169.08,0,0,1,47.45-27.76,166.23,166.23,0,0,0-43.48,32.1,192.19,192.19,0,0,0-31.61,43C514.36,1000.4,505.92,1035.75,507.36,1070.09Z"/><path class="6de16af7-7702-4fde-be98-8628db2b9083" d="M599.52,896.83A170.74,170.74,0,0,0,556,924.22,202.83,202.83,0,0,0,521.23,963a214,214,0,0,0-37.39,106.72l11.76.16a206.1,206.1,0,0,1,28.56-100.76,198.17,198.17,0,0,1,32.49-41.61A171.59,171.59,0,0,1,599.52,896.83Z"/><path class="9a6b7e19-8085-4ee8-899b-800310b50aa2" d="M487.41,1091.19l23.39,2.52a138.75,138.75,0,0,0-2.18-41.64,267.33,267.33,0,0,0-11.08-38.5c-4.4-12.31-9.16-24.2-13.48-36a290.45,290.45,0,0,1-10.87-35.16l-22.94,5.22a313.54,313.54,0,0,0,11.73,38c4.47,12.21,9.21,24.05,13.41,35.8a244.71,244.71,0,0,1,10.14,35.09A115.19,115.19,0,0,1,487.41,1091.19Z"/><path class="22c87335-bef3-4aca-a506-473f01caabf8" d="M510.8,1093.71l-11.7-1.26-11.69-1.27a115,115,0,0,0,1.1-35.2,243.87,243.87,0,0,0-7.39-36.55c-6.58-24.45-15.29-49.12-19-74.49a299.49,299.49,0,0,0,13.95,35.57c5.26,11.62,10.88,23.11,16.13,35a258.35,258.35,0,0,1,13.63,37.13A136.05,136.05,0,0,1,510.8,1093.71Z"/><path class="6de16af7-7702-4fde-be98-8628db2b9083" d="M462.93,950c4.08,23.6,12.05,46.57,18.19,69.39a243.87,243.87,0,0,1,7.39,36.55,115,115,0,0,1-1.1,35.2l11.69,1.27a126.37,126.37,0,0,0-1.79-36.87,242.53,242.53,0,0,0-10-35.63C479.15,996.67,469.06,974,462.93,950Z"/><path class="9a6b7e19-8085-4ee8-899b-800310b50aa2" d="M426.68,1085.54l23.13-4.31A1181.57,1181.57,0,0,1,431.68,931l-23.49,1.32A1206.61,1206.61,0,0,0,426.68,1085.54Z"/><path class="22c87335-bef3-4aca-a506-473f01caabf8" d="M449.81,1081.23l-11.56,2.15-11.57,2.15q-4.08-38.52-5.66-77t-.67-76.86q5,38,12.35,75.46T449.81,1081.23Z"/><path class="6de16af7-7702-4fde-be98-8628db2b9083" d="M420.25,936.79q-.69,35.76.77,71.7,1.59,38.51,5.66,77l11.57-2.15A1192.11,1192.11,0,0,1,420.25,936.79Z"/><path class="9a6b7e19-8085-4ee8-899b-800310b50aa2" d="M470.09,1105.58l23.51.68,1.43-49.33.71-24.67c.24-8.23.46-16.35.93-24.3a225.11,225.11,0,0,1,2.43-23.33,137.73,137.73,0,0,1,5.45-22.15c4.83-14.76,11.95-30.08,16.23-47.59l-22.86-5.52a200.89,200.89,0,0,1-7.1,22.16c-2.81,7.55-5.89,15.36-8.61,23.59a162.9,162.9,0,0,0-6.33,25.72,252.68,252.68,0,0,0-2.7,25.74c-.49,8.46-.71,16.8-.95,25l-.72,24.67Z"/><path class="22c87335-bef3-4aca-a506-473f01caabf8" d="M493.6,1106.26l-11.76-.35-11.75-.35,4.47-49.24,2.23-24.62c.75-8.19,1.48-16.47,2.47-24.78a243.57,243.57,0,0,1,4.13-24.86A153.23,153.23,0,0,1,490.88,958c6.18-15.48,14-29.91,18.87-45.74-3,16.3-9.11,31.91-13.29,47.59a147.05,147.05,0,0,0-4.37,23.67,235.88,235.88,0,0,0-1.09,24.13c0,8.11.25,16.27.49,24.52l.7,24.71Z"/><path class="6de16af7-7702-4fde-be98-8628db2b9083" d="M507.63,918.54c-5.21,14.48-12.43,28-18,42.57q-2.07,5.49-3.76,11.16T483,983.72c-1.65,7.69-2.82,15.46-3.75,23.2-1,8.31-1.72,16.59-2.47,24.78l-2.23,24.62-4.47,49.24,11.75.35,1.38-47.67.69-23.83c.24-8,.44-15.89.83-23.83.8-15.85,2.49-31.8,7.15-47S503.18,933.82,507.63,918.54Z"/><path class="9a6b7e19-8085-4ee8-899b-800310b50aa2" d="M382.28,1099l23.52-.4a167.75,167.75,0,0,0-17.57-71.7,154.4,154.4,0,0,0-9.36-16.15c-3.42-5.17-7-10-10.68-14.73-7.29-9.36-14.65-18-20.83-26.86a108,108,0,0,1-14.46-27.66,143.62,143.62,0,0,1-6.66-31.13,254.25,254.25,0,0,1-1.16-33c.24-11.19.94-22.51,1.72-34l-23.46-1.61c-.79,11.54-1.53,23.24-1.78,35.09a278.48,278.48,0,0,0,1.29,36,167.08,167.08,0,0,0,7.83,36.34c.47,1.5,1.12,3,1.67,4.44s1.12,3,1.77,4.42l2,4.33,1,2.17c.35.71.74,1.41,1.11,2.11a148,148,0,0,0,9.85,16c7,10.05,14.66,19,21.52,27.8,3.43,4.41,6.69,8.8,9.62,13.25a131.54,131.54,0,0,1,8,13.74A144.21,144.21,0,0,1,382.28,1099Z"/><path class="22c87335-bef3-4aca-a506-473f01caabf8" d="M405.8,1098.57l-11.76.19-11.76.19a145.53,145.53,0,0,0-12.36-62.9,135.87,135.87,0,0,0-7.51-14.47c-2.81-4.71-5.92-9.33-9.2-14-6.54-9.24-13.73-18.46-20.14-28.49a143.12,143.12,0,0,1-8.77-15.66c-.32-.68-.67-1.35-1-2l-.87-2.09-1.72-4.16c-.55-1.39-1-2.83-1.49-4.24s-1-2.81-1.4-4.25a158.64,158.64,0,0,1-5.93-34.82,267.94,267.94,0,0,1,.28-34.83c.75-11.54,2-23,3.27-34.48-.31,11.53-.56,23.06-.33,34.54a263.5,263.5,0,0,0,2.63,34.15,150.3,150.3,0,0,0,8.42,32.55,114.63,114.63,0,0,0,16.51,28.59c6.78,8.87,14.53,17.24,22.12,26.22,3.79,4.49,7.54,9.13,11.08,14.06a154.11,154.11,0,0,1,9.79,15.48A166.1,166.1,0,0,1,405.8,1098.57Z"/><path class="6de16af7-7702-4fde-be98-8628db2b9083" d="M314.46,851.82c-2.27,21.38-4,43-2.18,64.76.2,2.73.61,5.44.9,8.17s.88,5.42,1.31,8.14c.59,2.69,1.13,5.4,1.8,8.09l1.1,4c.37,1.34.72,2.69,1.2,4l1.35,4c.24.66.44,1.33.7,2l.8,1.94c1.07,2.59,2.11,5.2,3.39,7.7a146.12,146.12,0,0,0,8.24,14.57c6.41,10,13.6,19.25,20.14,28.49,3.28,4.63,6.39,9.25,9.2,14a135.87,135.87,0,0,1,7.51,14.47,145.53,145.53,0,0,1,12.36,62.9l11.76-.19a156,156,0,0,0-15.3-64.53,148.44,148.44,0,0,0-8.1-14.6c-3-4.7-6.24-9.23-9.61-13.65-6.75-8.87-14-17.34-20.59-26.32a159,159,0,0,1-9.24-13.91,109.5,109.5,0,0,1-7.35-15,141.81,141.81,0,0,1-8.44-32.24,231.89,231.89,0,0,1-2.17-33.31C313.23,874.07,313.76,862.94,314.46,851.82Z"/><path class="9a6b7e19-8085-4ee8-899b-800310b50aa2" d="M403.36,1102.68l22.55-6.69c-7.77-26.18-15.33-52.12-20.15-78.25s-6.83-52.44-3.37-78l-23.31-3.14a232.78,232.78,0,0,0-1.61,43.14,327,327,0,0,0,5.15,42.25C387.75,1049.73,395.57,1076.43,403.36,1102.68Z"/><path class="22c87335-bef3-4aca-a506-473f01caabf8" d="M425.91,1096l-11.28,3.34-11.27,3.34c-5.85-26.83-11.71-54.1-14.75-81.78a318.08,318.08,0,0,1-2-41.6,222.12,222.12,0,0,1,4.55-41A219.74,219.74,0,0,0,392.46,979a308.07,308.07,0,0,0,7.72,39.78C406.94,1044.94,416.33,1070.34,425.91,1096Z"/><path class="6de16af7-7702-4fde-be98-8628db2b9083" d="M390.14,943.68c-4.62,25.21-4.36,51.45-1.53,77.21,3,27.68,8.9,54.95,14.75,81.78l11.27-3.34c-7.51-25.34-14.94-50.77-19.91-76.75S387.31,970,390.14,943.68Z"/><path class="9a6b7e19-8085-4ee8-899b-800310b50aa2" d="M1471.4,1066.14l23.52.3c.46-34.31,10.76-68.56,28.74-97.93a185.16,185.16,0,0,1,32.53-39.72,156.05,156.05,0,0,1,42.31-28L1589,879.27a179.93,179.93,0,0,0-48.71,32.18,208.5,208.5,0,0,0-36.7,44.77A217.56,217.56,0,0,0,1471.4,1066.14Z"/><path class="22c87335-bef3-4aca-a506-473f01caabf8" d="M1494.92,1066.44l-11.76-.16-11.76-.16a214.22,214.22,0,0,1,37.4-106.73,200.89,200.89,0,0,1,37.67-41.22,169.08,169.08,0,0,1,47.45-27.76,166.07,166.07,0,0,0-43.48,32.1,192.54,192.54,0,0,0-31.62,43C1501.93,996.75,1493.49,1032.1,1494.92,1066.44Z"/><path class="6de16af7-7702-4fde-be98-8628db2b9083" d="M1587.09,893.18a171.24,171.24,0,0,0-43.5,27.39,202.45,202.45,0,0,0-34.79,38.82,214.22,214.22,0,0,0-37.4,106.73l11.76.16a206,206,0,0,1,28.57-100.76,197.64,197.64,0,0,1,32.49-41.62A171.66,171.66,0,0,1,1587.09,893.18Z"/><path class="9a6b7e19-8085-4ee8-899b-800310b50aa2" d="M1475,1087.54l23.39,2.53a138.48,138.48,0,0,0-2.18-41.65,266.4,266.4,0,0,0-11.07-38.5c-4.4-12.31-9.16-24.2-13.48-36a288.82,288.82,0,0,1-10.87-35.17L1437.82,944a313.36,313.36,0,0,0,11.72,38c4.48,12.21,9.22,24.05,13.41,35.81a242.94,242.94,0,0,1,10.14,35.08A114.87,114.87,0,0,1,1475,1087.54Z"/><path class="22c87335-bef3-4aca-a506-473f01caabf8" d="M1498.36,1090.07l-11.69-1.27-11.7-1.27a115,115,0,0,0,1.11-35.2,242.67,242.67,0,0,0-7.4-36.55c-6.57-24.45-15.28-49.11-19-74.49a298.6,298.6,0,0,0,14,35.58c5.26,11.61,10.88,23.1,16.12,35A256.88,256.88,0,0,1,1493.4,1049,136,136,0,0,1,1498.36,1090.07Z"/><path class="6de16af7-7702-4fde-be98-8628db2b9083" d="M1450.5,946.4c4.08,23.6,12,46.57,18.18,69.38a242.67,242.67,0,0,1,7.4,36.55,115,115,0,0,1-1.11,35.2l11.7,1.27a126.37,126.37,0,0,0-1.79-36.87,242.06,242.06,0,0,0-10-35.62C1466.72,993,1456.62,970.36,1450.5,946.4Z"/><path class="9a6b7e19-8085-4ee8-899b-800310b50aa2" d="M1435.14,1126.86l23.13-4.31a1181.57,1181.57,0,0,1-18.13-150.24l-23.49,1.32A1206.83,1206.83,0,0,0,1435.14,1126.86Z"/><path class="22c87335-bef3-4aca-a506-473f01caabf8" d="M1458.27,1122.55l-11.57,2.15-11.56,2.14q-4.08-38.5-5.66-77t-.68-76.86q5,38,12.36,75.46T1458.27,1122.55Z"/><path class="6de16af7-7702-4fde-be98-8628db2b9083" d="M1428.7,978.1q-.67,35.77.78,71.7,1.57,38.51,5.66,77l11.56-2.14A1195.92,1195.92,0,0,1,1428.7,978.1Z"/><path class="9a6b7e19-8085-4ee8-899b-800310b50aa2" d="M1457.65,1101.93l23.52.69,1.42-49.34.72-24.66c.24-8.24.46-16.35.92-24.31a227.89,227.89,0,0,1,2.43-23.33,139,139,0,0,1,5.46-22.14c4.83-14.77,12-30.09,16.23-47.6l-22.87-5.51a196.58,196.58,0,0,1-7.1,22.15c-2.8,7.55-5.88,15.36-8.61,23.59a162.9,162.9,0,0,0-6.33,25.72,249.82,249.82,0,0,0-2.69,25.74c-.5,8.47-.72,16.8-1,25l-.71,24.66Z"/><path class="22c87335-bef3-4aca-a506-473f01caabf8" d="M1481.17,1102.62l-11.76-.35-11.76-.35,4.47-49.24,2.24-24.62c.74-8.2,1.47-16.48,2.46-24.78a248.93,248.93,0,0,1,4.13-24.87,153.87,153.87,0,0,1,7.5-24.08c6.18-15.49,14-29.91,18.86-45.75-3,16.3-9.11,31.92-13.28,47.59a146,146,0,0,0-4.37,23.67,233.25,233.25,0,0,0-1.09,24.14c0,8.1.25,16.27.48,24.51l.71,24.71Z"/><path class="6de16af7-7702-4fde-be98-8628db2b9083" d="M1495.19,914.9c-5.2,14.48-12.43,28-18,42.57-1.37,3.65-2.64,7.38-3.76,11.16s-2,7.6-2.88,11.44c-1.65,7.69-2.83,15.46-3.75,23.21-1,8.3-1.73,16.58-2.47,24.78l-2.24,24.62-4.47,49.24,11.76.35,1.38-47.67.69-23.84c.23-7.94.43-15.89.83-23.83.79-15.85,2.49-31.79,7.14-47S1490.75,930.17,1495.19,914.9Z"/><path class="9a6b7e19-8085-4ee8-899b-800310b50aa2" d="M1385.14,1099l23.52-.4a167.6,167.6,0,0,0-17.56-71.7,156.27,156.27,0,0,0-9.37-16.15c-3.41-5.17-7-10-10.68-14.73-7.29-9.36-14.65-18-20.83-26.86a108.36,108.36,0,0,1-14.46-27.66,144.21,144.21,0,0,1-6.66-31.13,256,256,0,0,1-1.15-33c.23-11.19.94-22.51,1.72-34l-23.47-1.61c-.79,11.54-1.52,23.24-1.77,35.09a278.46,278.46,0,0,0,1.28,36,167.67,167.67,0,0,0,7.83,36.34c.48,1.5,1.12,3,1.67,4.44s1.12,3,1.77,4.42l2,4.33,1,2.17c.34.71.73,1.41,1.1,2.11a148,148,0,0,0,9.85,16c7,10.05,14.67,19,21.52,27.8,3.43,4.41,6.69,8.8,9.63,13.25a133.26,133.26,0,0,1,8,13.74A144.21,144.21,0,0,1,1385.14,1099Z"/><path class="22c87335-bef3-4aca-a506-473f01caabf8" d="M1408.66,1098.57l-11.76.19-11.76.19a145.53,145.53,0,0,0-12.36-62.9,132.27,132.27,0,0,0-7.51-14.47c-2.8-4.71-5.92-9.33-9.19-14-6.54-9.24-13.74-18.46-20.14-28.49a143.19,143.19,0,0,1-8.78-15.66c-.32-.68-.66-1.35-1-2l-.87-2.09-1.72-4.16c-.55-1.39-1-2.83-1.49-4.24s-1-2.81-1.39-4.25a158.07,158.07,0,0,1-5.94-34.82,267.94,267.94,0,0,1,.28-34.83c.75-11.54,2-23,3.27-34.48-.31,11.53-.56,23.06-.33,34.54a263.5,263.5,0,0,0,2.63,34.15,150.87,150.87,0,0,0,8.42,32.55,114.94,114.94,0,0,0,16.51,28.59c6.78,8.87,14.54,17.24,22.12,26.22,3.79,4.49,7.54,9.13,11.08,14.06a154.11,154.11,0,0,1,9.79,15.48A166.1,166.1,0,0,1,1408.66,1098.57Z"/><path class="6de16af7-7702-4fde-be98-8628db2b9083" d="M1317.32,851.82c-2.26,21.38-4,43-2.17,64.76.2,2.73.6,5.44.9,8.17s.87,5.42,1.3,8.14c.6,2.69,1.13,5.4,1.8,8.09l1.11,4c.37,1.34.71,2.69,1.19,4l1.36,4c.23.66.44,1.33.69,2l.8,1.94c1.08,2.59,2.12,5.2,3.39,7.7a144.24,144.24,0,0,0,8.25,14.57c6.4,10,13.6,19.25,20.14,28.49,3.27,4.63,6.39,9.25,9.19,14a132.27,132.27,0,0,1,7.51,14.47,145.53,145.53,0,0,1,12.36,62.9l11.76-.19a155.86,155.86,0,0,0-15.3-64.53,148.44,148.44,0,0,0-8.1-14.6c-3-4.7-6.24-9.23-9.61-13.65-6.74-8.87-14-17.34-20.59-26.32a161.24,161.24,0,0,1-9.24-13.91,110.61,110.61,0,0,1-7.34-15,141.31,141.31,0,0,1-8.45-32.24,231.89,231.89,0,0,1-2.17-33.31C1316.09,874.07,1316.63,862.94,1317.32,851.82Z"/><path class="9a6b7e19-8085-4ee8-899b-800310b50aa2" d="M1426.66,1105.34l20.94-10.73c-12.45-24.31-24.65-48.41-34.19-73.21s-16.34-50.29-17.63-76l-23.49,1.2a232.56,232.56,0,0,0,6.34,42.7,325,325,0,0,0,12.83,40.58C1401.59,1056.15,1414.18,1081,1426.66,1105.34Z"/><path class="22c87335-bef3-4aca-a506-473f01caabf8" d="M1447.6,1094.61l-10.47,5.36-10.47,5.35c-10.68-25.3-21.45-51-29.52-77.67a315.68,315.68,0,0,1-9.63-40.53,222.13,222.13,0,0,1-3.07-41.18,219.32,219.32,0,0,0,8.78,39.81,309.6,309.6,0,0,0,14.9,37.68C1419.57,1047.92,1433.47,1071.16,1447.6,1094.61Z"/><path class="6de16af7-7702-4fde-be98-8628db2b9083" d="M1384.46,951.47c.08,25.63,5.16,51.37,12.68,76.18,8.07,26.65,18.84,52.37,29.52,77.67l10.47-5.35c-12.05-23.53-24-47.16-33.67-71.79S1386.51,977.87,1384.46,951.47Z"/><text class="16eae3d8-5bd0-4303-b7f2-d2a334a97891" transform="translate(412.86 202.9) scale(0.87 1)">Oops!<tspan class="2f52f138-9b51-49f6-a33e-42fa0a063f7d" x="200.94" y="0"> </tspan><tspan class="018228b5-19c9-43f0-8c2c-6c6dc9a1a683" x="218.45" y="0">Y</tspan><tspan x="269.59" y="0">ouve caught a snoozing bear!</tspan></text><text class="79b88a37-476c-41e3-9f02-8209175af19f" transform="translate(23.36 761.75) scale(0.99 1)">z</text><text class="7c4b8b36-ab58-454b-ba9a-0e8b07c803fa" transform="translate(82.88 711.45) scale(1.02 1)">z</text><text class="52729551-ed26-4b9d-bdd6-15bf286eb16c" transform="translate(148.01 607.53) scale(1.02 1)">z</text><text class="a5ad094b-5837-4636-bbd3-7c15407da639" transform="translate(313.22 514.03) scale(1.02 1)">z</text><text></text><path class="9a6b7e19-8085-4ee8-899b-800310b50aa2" d="M217.56,1070.23l23.52.76c1.11-34.25,12-68.25,30.56-97.21a184,184,0,0,1,33.28-39,155.56,155.56,0,0,1,42.82-27l-9-21.73a179.21,179.21,0,0,0-49.34,31.08,208,208,0,0,0-37.56,44A217,217,0,0,0,217.56,1070.23Z"/><path class="22c87335-bef3-4aca-a506-473f01caabf8" d="M241.08,1071l-11.76-.39-11.75-.38A213.48,213.48,0,0,1,257,964.37,199.62,199.62,0,0,1,295.42,924a168.15,168.15,0,0,1,48-26.69,165.42,165.42,0,0,0-44.1,31.11,191.15,191.15,0,0,0-32.44,42.33C249.38,1001.54,240.29,1036.68,241.08,1071Z"/><path class="6de16af7-7702-4fde-be98-8628db2b9083" d="M336.51,899.9a170.13,170.13,0,0,0-44,26.41A201.41,201.41,0,0,0,257,964.37a213.48,213.48,0,0,0-39.39,105.85l11.75.38a205.57,205.57,0,0,1,30.45-100.06,196.66,196.66,0,0,1,33.29-40.89A170.53,170.53,0,0,1,336.51,899.9Z"/><path class="9a6b7e19-8085-4ee8-899b-800310b50aa2" d="M220.73,1091.72l23.34,3a138.72,138.72,0,0,0-1.4-41.71,266.89,266.89,0,0,0-10.34-38.74c-4.16-12.4-8.69-24.39-12.79-36.27a290.52,290.52,0,0,1-10.2-35.39l-23,4.78a313.85,313.85,0,0,0,11,38.28c4.25,12.3,8.76,24.24,12.73,36.09A244.28,244.28,0,0,1,219.5,1057,115.19,115.19,0,0,1,220.73,1091.72Z"/><path class="22c87335-bef3-4aca-a506-473f01caabf8" d="M244.07,1094.69l-11.67-1.49-11.67-1.49a115.36,115.36,0,0,0,1.77-35.21,245.17,245.17,0,0,0-6.7-36.71c-6.11-24.6-14.35-49.45-17.57-74.91a301.06,301.06,0,0,0,13.26,35.87c5,11.72,10.44,23.33,15.46,35.3a259,259,0,0,1,12.93,37.42A136.23,136.23,0,0,1,244.07,1094.69Z"/><path class="6de16af7-7702-4fde-be98-8628db2b9083" d="M198.94,950c3.63,23.69,11.15,46.83,16.86,69.78a245.17,245.17,0,0,1,6.7,36.71,115.36,115.36,0,0,1-1.77,35.21l11.67,1.49a126.33,126.33,0,0,0-1.1-36.93,242.59,242.59,0,0,0-9.31-35.84C214.26,997,204.61,974.11,198.94,950Z"/><path class="9a6b7e19-8085-4ee8-899b-800310b50aa2" d="M160.13,1084.7l23.2-3.87a1183.34,1183.34,0,0,1-15.27-150.62l-23.51.87A1206.63,1206.63,0,0,0,160.13,1084.7Z"/><path class="22c87335-bef3-4aca-a506-473f01caabf8" d="M183.33,1080.83l-11.6,1.93-11.61,1.92q-3.35-38.6-4.19-77.16t.78-76.89q4.26,38.1,10.92,75.71T183.33,1080.83Z"/><path class="6de16af7-7702-4fde-be98-8628db2b9083" d="M156.52,935.79q-1.36,35.76-.59,71.73.85,38.54,4.19,77.16l11.61-1.92A1193.82,1193.82,0,0,1,156.52,935.79Z"/><path class="9a6b7e19-8085-4ee8-899b-800310b50aa2" d="M171,1094.55l23.51.84a719.17,719.17,0,0,0-7.45-131.79l-23.27,3.48A695.15,695.15,0,0,1,171,1094.55Z"/><path class="22c87335-bef3-4aca-a506-473f01caabf8" d="M194.51,1095.39l-11.75-.43-11.76-.42q4.17-31.83,5.4-64.24t-.57-65q7.62,31.74,12.32,64.36T194.51,1095.39Z"/><path class="6de16af7-7702-4fde-be98-8628db2b9083" d="M176.05,969.67q1.48,30.41.35,60.63-1.22,32.35-5.4,64.24l11.76.42A708.53,708.53,0,0,0,176.05,969.67Z"/><path class="9a6b7e19-8085-4ee8-899b-800310b50aa2" d="M203.14,1105.71l23.49,1.13,2.37-49.27,1.18-24.63c.4-8.23.77-16.33,1.39-24.28a228.42,228.42,0,0,1,2.86-23.26,137.84,137.84,0,0,1,5.87-22c5.11-14.66,12.53-29.83,17.15-47.25l-22.76-6a196.87,196.87,0,0,1-7.52,22c-2.95,7.5-6.18,15.24-9.06,23.41a162.15,162.15,0,0,0-6.82,25.59,250.83,250.83,0,0,0-3.18,25.67c-.65,8.45-1,16.77-1.43,25l-1.18,24.63Z"/><path class="22c87335-bef3-4aca-a506-473f01caabf8" d="M226.63,1106.84l-11.74-.57-11.75-.57,5.4-49.12,2.7-24.56c.91-8.18,1.79-16.44,2.94-24.72a245.61,245.61,0,0,1,4.6-24.77,152.91,152.91,0,0,1,7.94-23.93c6.48-15.36,14.56-29.61,19.75-45.34-3.29,16.23-9.73,31.71-14.2,47.29a145.82,145.82,0,0,0-4.82,23.57,235.14,235.14,0,0,0-1.54,24.1c-.16,8.1-.06,16.27,0,24.51l.23,24.71Z"/><path class="6de16af7-7702-4fde-be98-8628db2b9083" d="M244.22,919.53c-5.48,14.37-13,27.7-18.78,42.19-1.44,3.62-2.78,7.32-4,11.08s-2.19,7.56-3.1,11.39c-1.79,7.65-3.11,15.39-4.19,23.11-1.15,8.28-2,16.54-2.94,24.72l-2.7,24.56-5.4,49.12,11.75.57,2.28-47.61,1.14-23.81c.39-7.93.74-15.87,1.28-23.79,1.1-15.83,3.09-31.73,8-46.86S239.49,934.71,244.22,919.53Z"/><path class="9a6b7e19-8085-4ee8-899b-800310b50aa2" d="M115.47,1097.12l23.53,0a168.05,168.05,0,0,0-16.2-72.07,156.81,156.81,0,0,0-9-16.35c-3.31-5.24-6.84-10.18-10.39-15-7.1-9.51-14.28-18.32-20.29-27.3a108.9,108.9,0,0,1-13.95-28A143.79,143.79,0,0,1,63,907.24a256.11,256.11,0,0,1-.54-33.08c.45-11.2,1.37-22.51,2.37-34l-23.43-2.06c-1,11.54-2,23.23-2.44,35.09a276,276,0,0,0,.61,36.08,166.79,166.79,0,0,0,7.15,36.51c.45,1.51,1.06,3,1.59,4.48s1.06,3,1.68,4.45L52,959.12l1,2.19c.34.72.71,1.42,1.07,2.14a149.24,149.24,0,0,0,9.54,16.16c6.84,10.19,14.29,19.27,21,28.25,3.34,4.48,6.51,8.94,9.36,13.45a133.93,133.93,0,0,1,7.7,13.92A144.45,144.45,0,0,1,115.47,1097.12Z"/><path class="22c87335-bef3-4aca-a506-473f01caabf8" d="M139,1097.16l-11.76,0-11.77,0a145.73,145.73,0,0,0-11.16-63.19,136.19,136.19,0,0,0-7.23-14.64c-2.71-4.77-5.74-9.46-8.92-14.15-6.36-9.39-13.37-18.76-19.58-28.92a144.54,144.54,0,0,1-8.47-15.84c-.31-.69-.64-1.37-.92-2.06l-.83-2.1L56.72,952c-.53-1.4-.94-2.85-1.41-4.27s-1-2.83-1.32-4.28a157.92,157.92,0,0,1-5.29-35,267.92,267.92,0,0,1,.94-34.85c1-11.54,2.41-23,3.92-34.44-.53,11.53-1,23.06-1,34.56a263,263,0,0,0,2,34.22,151.56,151.56,0,0,0,7.81,32.73c.46,1.31,1.05,2.57,1.57,3.85s1,2.57,1.62,3.82l1.83,3.7.92,1.85c.31.61.67,1.2,1,1.8a134.37,134.37,0,0,0,9,13.91c6.61,9,14.2,17.55,21.6,26.69,3.7,4.57,7.36,9.3,10.81,14.3a155.33,155.33,0,0,1,9.48,15.67A166.58,166.58,0,0,1,139,1097.16Z"/><path class="6de16af7-7702-4fde-be98-8628db2b9083" d="M52.37,848.45c-2.68,21.35-4.87,42.92-3.4,64.77.15,2.73.5,5.45.75,8.18s.76,5.45,1.15,8.18c.55,2.7,1,5.43,1.65,8.13l1,4c.34,1.35.67,2.7,1.13,4l1.27,4c.22.66.41,1.33.66,2l.77,2,1.54,3.92c.48,1.32,1.13,2.57,1.7,3.86a146.72,146.72,0,0,0,8,14.73c6.21,10.16,13.22,19.53,19.58,28.92,3.18,4.69,6.21,9.38,8.92,14.15a136.19,136.19,0,0,1,7.23,14.64,145.73,145.73,0,0,1,11.16,63.19l11.77,0a156.2,156.2,0,0,0-14.08-64.86,149.93,149.93,0,0,0-7.81-14.78c-2.89-4.76-6.06-9.36-9.35-13.86-6.56-9-13.64-17.63-20.06-26.75a164.68,164.68,0,0,1-9-14.1,112.55,112.55,0,0,1-7.06-15.14,141.68,141.68,0,0,1-7.84-32.42,231.27,231.27,0,0,1-1.55-33.38C50.71,870.69,51.46,859.56,52.37,848.45Z"/><path class="9a6b7e19-8085-4ee8-899b-800310b50aa2" d="M136.48,1101.3l22.68-6.25c-7.27-26.35-14.33-52.44-18.66-78.67s-5.84-52.59-1.89-78.07l-23.25-3.58a233,233,0,0,0-2.42,43.12,324.75,324.75,0,0,0,4.35,42.35C121.89,1048,129.2,1074.89,136.48,1101.3Z"/><path class="22c87335-bef3-4aca-a506-473f01caabf8" d="M159.16,1095.05l-11.34,3.12-11.34,3.12c-5.33-27-10.67-54.34-13.19-82.08a318.62,318.62,0,0,1-1.23-41.66,221.59,221.59,0,0,1,5.33-41,218.56,218.56,0,0,0,.55,40.78,307.42,307.42,0,0,0,7,39.94C141.16,1043.61,150.07,1069.2,159.16,1095.05Z"/><path class="6de16af7-7702-4fde-be98-8628db2b9083" d="M126.29,942c-5.11,25.13-5.34,51.38-3,77.21,2.52,27.74,7.86,55.13,13.19,82.08l11.34-3.12c-7-25.5-14-51.07-18.45-77.16S123,968.29,126.29,942Z"/><path class="9a6b7e19-8085-4ee8-899b-800310b50aa2" d="M50.71,1080.28l23.52.75c1.11-34.25,12-68.25,30.56-97.21a184,184,0,0,1,33.28-39,155.56,155.56,0,0,1,42.82-27l-9-21.73a179.21,179.21,0,0,0-49.34,31.08,208,208,0,0,0-37.56,44A217,217,0,0,0,50.71,1080.28Z"/><path class="22c87335-bef3-4aca-a506-473f01caabf8" d="M74.23,1081l-11.76-.39-11.76-.38a213.63,213.63,0,0,1,39.4-105.85A199.57,199.57,0,0,1,128.57,934a168,168,0,0,1,48-26.7,165.34,165.34,0,0,0-44.09,31.12A190.86,190.86,0,0,0,100,980.76C82.53,1011.58,73.44,1046.72,74.23,1081Z"/><path class="6de16af7-7702-4fde-be98-8628db2b9083" d="M169.66,909.94a170.13,170.13,0,0,0-44,26.41,201.41,201.41,0,0,0-35.54,38.06,213.63,213.63,0,0,0-39.4,105.85l11.76.38A205.57,205.57,0,0,1,92.92,980.58a197.19,197.19,0,0,1,33.28-40.89A170.75,170.75,0,0,1,169.66,909.94Z"/><path class="9a6b7e19-8085-4ee8-899b-800310b50aa2" d="M53.88,1101.76l23.33,3A138.4,138.4,0,0,0,75.82,1063a266.89,266.89,0,0,0-10.34-38.74c-4.17-12.4-8.69-24.39-12.79-36.26a291.18,291.18,0,0,1-10.2-35.4l-23,4.78a313.85,313.85,0,0,0,11,38.28c4.25,12.3,8.75,24.25,12.73,36.09a244.63,244.63,0,0,1,9.47,35.31A115.19,115.19,0,0,1,53.88,1101.76Z"/><path class="22c87335-bef3-4aca-a506-473f01caabf8" d="M77.21,1104.73l-11.66-1.49-11.67-1.49a115.34,115.34,0,0,0,1.77-35.21,245.17,245.17,0,0,0-6.7-36.71c-6.11-24.6-14.35-49.44-17.57-74.91a301.06,301.06,0,0,0,13.26,35.87c5,11.72,10.44,23.33,15.46,35.3A260.2,260.2,0,0,1,73,1063.51,136,136,0,0,1,77.21,1104.73Z"/><path class="6de16af7-7702-4fde-be98-8628db2b9083" d="M32.09,960.05c3.63,23.69,11.15,46.83,16.86,69.78a245.17,245.17,0,0,1,6.7,36.71,115.34,115.34,0,0,1-1.77,35.21l11.67,1.49a126.26,126.26,0,0,0-1.1-36.92,243.63,243.63,0,0,0-9.31-35.85C47.41,1007,37.76,984.15,32.09,960.05Z"/><path class="9a6b7e19-8085-4ee8-899b-800310b50aa2" d="M16.61,1082.23l23.5,1.13,2.36-49.27,1.19-24.63c.39-8.23.76-16.34,1.38-24.28a225.28,225.28,0,0,1,2.87-23.26,138.24,138.24,0,0,1,5.87-22c5.11-14.65,12.53-29.82,17.14-47.24l-22.75-6a199.74,199.74,0,0,1-7.53,22c-3,7.49-6.18,15.23-9.06,23.41a162.12,162.12,0,0,0-6.81,25.59,247.39,247.39,0,0,0-3.18,25.67c-.66,8.45-1,16.77-1.43,25L19,1033Z"/><path class="22c87335-bef3-4aca-a506-473f01caabf8" d="M40.11,1083.36l-11.75-.57-11.75-.57L22,1033.1l2.7-24.56c.9-8.18,1.78-16.44,2.94-24.72a242.8,242.8,0,0,1,4.59-24.77,152.94,152.94,0,0,1,8-23.93c6.47-15.36,14.55-29.61,19.74-45.34-3.28,16.23-9.73,31.71-14.2,47.29a146.43,146.43,0,0,0-4.81,23.57,235.14,235.14,0,0,0-1.55,24.1c-.15,8.1-.05,16.27,0,24.51l.24,24.7Z"/><path class="6de16af7-7702-4fde-be98-8628db2b9083" d="M57.7,896.05c-5.48,14.36-13,27.7-18.79,42.19-1.44,3.62-2.78,7.32-4,11.08s-2.19,7.56-3.1,11.38c-1.8,7.66-3.12,15.4-4.19,23.12-1.16,8.28-2,16.54-2.94,24.72L22,1033.1l-5.41,49.12,11.75.57,2.29-47.61,1.14-23.81c.38-7.93.73-15.87,1.28-23.8,1.09-15.82,3.09-31.72,8-46.86S53,911.23,57.7,896.05Z"/><path class="9a6b7e19-8085-4ee8-899b-800310b50aa2" d="M334.63,1058.1l23.52.3c.46-34.31,10.76-68.56,28.74-97.93a185.4,185.4,0,0,1,32.53-39.72,156.52,156.52,0,0,1,42.31-28l-9.49-21.52a179.9,179.9,0,0,0-48.71,32.17,208.74,208.74,0,0,0-36.7,44.77A217.62,217.62,0,0,0,334.63,1058.1Z"/><path class="22c87335-bef3-4aca-a506-473f01caabf8" d="M358.15,1058.4l-11.76-.16-11.76-.16A214.06,214.06,0,0,1,372,951.36a200.37,200.37,0,0,1,37.67-41.22,169.11,169.11,0,0,1,47.45-27.77,166.07,166.07,0,0,0-43.48,32.1,192.07,192.07,0,0,0-31.62,43C365.16,988.72,356.72,1024.07,358.15,1058.4Z"/><path class="6de16af7-7702-4fde-be98-8628db2b9083" d="M450.32,885.15a170.79,170.79,0,0,0-43.5,27.39A201.85,201.85,0,0,0,372,951.36a214.06,214.06,0,0,0-37.4,106.72l11.76.16A206.11,206.11,0,0,1,375,957.48a197,197,0,0,1,32.49-41.61A171.41,171.41,0,0,1,450.32,885.15Z"/><path class="9a6b7e19-8085-4ee8-899b-800310b50aa2" d="M338.2,1079.51l23.39,2.52a138.41,138.41,0,0,0-2.18-41.64,266.17,266.17,0,0,0-11.07-38.51c-4.41-12.31-9.16-24.2-13.48-36A291.08,291.08,0,0,1,324,930.74L301.05,936a312.3,312.3,0,0,0,11.72,38c4.48,12.2,9.22,24,13.41,35.8a243.3,243.3,0,0,1,10.14,35.08A115,115,0,0,1,338.2,1079.51Z"/><path class="22c87335-bef3-4aca-a506-473f01caabf8" d="M361.59,1082l-11.69-1.27-11.7-1.26a115.08,115.08,0,0,0,1.11-35.21,242.8,242.8,0,0,0-7.4-36.54c-6.57-24.46-15.28-49.12-19-74.49a299.06,299.06,0,0,0,13.94,35.57c5.27,11.61,10.89,23.11,16.13,35a259.7,259.7,0,0,1,13.64,37.14A136,136,0,0,1,361.59,1082Z"/><path class="6de16af7-7702-4fde-be98-8628db2b9083" d="M313.73,938.36c4.07,23.6,12,46.57,18.18,69.39a242.8,242.8,0,0,1,7.4,36.54,115.08,115.08,0,0,1-1.11,35.21l11.7,1.26a126.29,126.29,0,0,0-1.79-36.86,243.07,243.07,0,0,0-10-35.63C330,985,319.85,962.33,313.73,938.36Z"/><path class="9a6b7e19-8085-4ee8-899b-800310b50aa2" d="M287,1092.76l23.12-4.31a1181.57,1181.57,0,0,1-18.13-150.24l-23.49,1.32A1204.81,1204.81,0,0,0,287,1092.76Z"/><path class="22c87335-bef3-4aca-a506-473f01caabf8" d="M310.07,1088.45l-11.56,2.15-11.57,2.15q-4.08-38.52-5.65-77t-.68-76.86q5,38,12.35,75.46T310.07,1088.45Z"/><path class="6de16af7-7702-4fde-be98-8628db2b9083" d="M280.51,944q-.69,35.76.78,71.7,1.57,38.51,5.65,77l11.57-2.15A1194.05,1194.05,0,0,1,280.51,944Z"/><path class="9a6b7e19-8085-4ee8-899b-800310b50aa2" d="M320.88,1093.9l23.51.68,1.43-49.33.72-24.67c.24-8.24.46-16.35.92-24.31A227.4,227.4,0,0,1,349.89,973a138.8,138.8,0,0,1,5.45-22.15c4.83-14.76,12-30.09,16.24-47.59l-22.87-5.52a199.45,199.45,0,0,1-7.1,22.16c-2.8,7.55-5.88,15.35-8.61,23.59a162.9,162.9,0,0,0-6.33,25.72A249.34,249.34,0,0,0,324,994.89c-.5,8.47-.72,16.81-1,25l-.71,24.67Z"/><path class="22c87335-bef3-4aca-a506-473f01caabf8" d="M344.39,1094.58l-11.75-.35-11.76-.35,4.47-49.24,2.24-24.62c.74-8.19,1.47-16.47,2.46-24.78a249.21,249.21,0,0,1,4.13-24.86,154.69,154.69,0,0,1,7.49-24.09c6.19-15.49,14-29.91,18.87-45.75-3,16.3-9.11,31.92-13.28,47.59a146,146,0,0,0-4.37,23.67,233.38,233.38,0,0,0-1.09,24.14c0,8.11.25,16.27.48,24.52l.71,24.7Z"/><path class="6de16af7-7702-4fde-be98-8628db2b9083" d="M358.42,906.86c-5.2,14.48-12.43,28-18,42.57-1.37,3.65-2.64,7.38-3.76,11.16s-2,7.6-2.88,11.45c-1.65,7.69-2.83,15.46-3.76,23.2-1,8.31-1.72,16.59-2.46,24.78l-2.24,24.62-4.47,49.24,11.76.35,1.38-47.67.69-23.84c.23-7.94.43-15.89.83-23.83.79-15.85,2.49-31.79,7.14-47S354,922.14,358.42,906.86Z"/><path class="9a6b7e19-8085-4ee8-899b-800310b50aa2" d="M248.37,1090.94l23.52-.41a167.53,167.53,0,0,0-17.57-71.69,154.54,154.54,0,0,0-9.36-16.16c-3.41-5.17-7-10-10.68-14.72-7.29-9.37-14.65-18-20.83-26.86A108.42,108.42,0,0,1,199,933.43a144,144,0,0,1-6.66-31.12,258,258,0,0,1-1.16-33c.24-11.19.94-22.51,1.73-34l-23.47-1.61c-.79,11.55-1.53,23.24-1.77,35.1a278.3,278.3,0,0,0,1.28,36,167.67,167.67,0,0,0,7.83,36.34c.47,1.5,1.12,3,1.67,4.44s1.12,3,1.77,4.42l2,4.33,1,2.17c.35.72.74,1.41,1.11,2.11a147,147,0,0,0,9.85,16c7,10,14.67,19,21.52,27.8,3.43,4.41,6.69,8.8,9.63,13.25a133.26,133.26,0,0,1,8,13.74A144.26,144.26,0,0,1,248.37,1090.94Z"/><path class="22c87335-bef3-4aca-a506-473f01caabf8" d="M271.89,1090.53l-11.76.19-11.76.19A145.53,145.53,0,0,0,236,1028a134.11,134.11,0,0,0-7.51-14.47c-2.8-4.7-5.92-9.33-9.2-13.95-6.53-9.25-13.73-18.46-20.13-28.49a142.4,142.4,0,0,1-8.78-15.67c-.32-.68-.66-1.35-1-2l-.87-2.08-1.72-4.17c-.55-1.39-1-2.82-1.49-4.23s-1-2.82-1.4-4.26A158.65,158.65,0,0,1,178,903.84,268.07,268.07,0,0,1,178.3,869c.75-11.54,2-23,3.27-34.47-.31,11.53-.56,23.06-.33,34.54a263.77,263.77,0,0,0,2.63,34.15,150.79,150.79,0,0,0,8.42,32.54,114.94,114.94,0,0,0,16.51,28.59c6.78,8.87,14.54,17.24,22.12,26.22,3.79,4.49,7.54,9.14,11.08,14.07a152.85,152.85,0,0,1,9.79,15.47A166.14,166.14,0,0,1,271.89,1090.53Z"/><path class="6de16af7-7702-4fde-be98-8628db2b9083" d="M180.55,843.78c-2.27,21.38-4,43-2.17,64.77.19,2.72.6,5.43.9,8.16s.87,5.42,1.3,8.14c.6,2.69,1.13,5.4,1.8,8.09l1.1,4c.38,1.34.72,2.69,1.2,4l1.36,4c.23.65.43,1.32.69,2l.8,1.94c1.08,2.59,2.12,5.2,3.39,7.71a146.46,146.46,0,0,0,8.25,14.57c6.4,10,13.6,19.24,20.13,28.49,3.28,4.62,6.4,9.25,9.2,13.95A134.11,134.11,0,0,1,236,1028a145.53,145.53,0,0,1,12.36,62.9l11.76-.19a155.77,155.77,0,0,0-15.3-64.52,148.6,148.6,0,0,0-8.1-14.61c-3-4.7-6.24-9.22-9.61-13.65-6.74-8.87-14-17.34-20.59-26.32a161.24,161.24,0,0,1-9.24-13.91,111.07,111.07,0,0,1-7.34-15,141.39,141.39,0,0,1-8.45-32.25,231.89,231.89,0,0,1-2.17-33.31C179.32,866,179.86,854.9,180.55,843.78Z"/><path class="9a6b7e19-8085-4ee8-899b-800310b50aa2" d="M1784.34,1096.1l20.94-10.73c-12.45-24.31-24.65-48.41-34.19-73.21s-16.34-50.29-17.63-76l-23.5,1.2a233.43,233.43,0,0,0,6.35,42.7,326.67,326.67,0,0,0,12.82,40.58C1759.26,1046.91,1771.86,1071.71,1784.34,1096.1Z"/><path class="22c87335-bef3-4aca-a506-473f01caabf8" d="M1805.28,1085.37l-10.47,5.36-10.48,5.35c-10.67-25.3-21.44-51-29.52-77.67a319.06,319.06,0,0,1-9.63-40.53,222.12,222.12,0,0,1-3.06-41.18,219.32,219.32,0,0,0,8.78,39.81,309.55,309.55,0,0,0,14.89,37.68C1777.25,1038.68,1791.15,1061.92,1805.28,1085.37Z"/><path class="6de16af7-7702-4fde-be98-8628db2b9083" d="M1742.13,942.23c.09,25.63,5.17,51.37,12.68,76.18,8.08,26.65,18.85,52.37,29.52,77.67l10.48-5.35c-12-23.53-24-47.16-33.68-71.79S1744.19,968.63,1742.13,942.23Z"/><path class="22c87335-bef3-4aca-a506-473f01caabf8" d="M1602.57,1093.5l-11.58-2.1-11.57-2.09a208.06,208.06,0,0,0,5-77.65c-3.21-26.26-11.28-52.4-25-76,16.92,21.39,29.16,46.78,36.48,73.7A225.88,225.88,0,0,1,1602.57,1093.5Z"/><path class="6de16af7-7702-4fde-be98-8628db2b9083" d="M1562.12,940.49a201.81,201.81,0,0,1,22.32,71.17,208.06,208.06,0,0,1-5,77.65l11.57,2.09a217.66,217.66,0,0,0-.5-78.15A204.84,204.84,0,0,0,1562.12,940.49Z"/><path class="22c87335-bef3-4aca-a506-473f01caabf8" d="M1617.63,1083.64l-11.13,3.79-11.14,3.79a92.27,92.27,0,0,1-1.51-35.6,118.67,118.67,0,0,1,9.71-32.42,159.5,159.5,0,0,1,16.86-28A301,301,0,0,1,1641,970.62a299.78,299.78,0,0,0-15.55,27.59,150.39,150.39,0,0,0-10.8,28.92,103.9,103.9,0,0,0-3.18,29.47A71.3,71.3,0,0,0,1617.63,1083.64Z"/><path class="6de16af7-7702-4fde-be98-8628db2b9083" d="M1638.11,973.8a272.62,272.62,0,0,0-19,23.13,157.73,157.73,0,0,0-15.58,26.27,118.67,118.67,0,0,0-9.71,32.42,92.27,92.27,0,0,0,1.51,35.6l11.14-3.79a82.54,82.54,0,0,1-4-30.26,111.17,111.17,0,0,1,5.7-30.05A150.54,150.54,0,0,1,1621,999.28,272,272,0,0,1,1638.11,973.8Z"/><path class="22c87335-bef3-4aca-a506-473f01caabf8" d="M1635.68,1093.94l-11.22-3.51-11.23-3.52a91.8,91.8,0,0,1,19.42-31.46c1-1.14,2.16-2.14,3.24-3.21l1.64-1.57a21.94,21.94,0,0,1,1.68-1.52c2.32-1.91,4.56-3.93,7-5.61l3.63-2.61,3.74-2.37,1.88-1.18c.62-.38,1.28-.72,1.91-1.08l3.85-2.13a147.32,147.32,0,0,1,32.34-12.07c1.38-.35,2.78-.63,4.17-.94s2.78-.63,4.15-.88c2.74-.53,5.46-1,8.14-1.48,5.38-.94,10.66-1.85,15.79-3a100.7,100.7,0,0,0,14.89-4.35,58.72,58.72,0,0,0,13.3-7.2,68.65,68.65,0,0,0,5.8-4.9l2.61-2.81c.42-.48.9-.92,1.28-1.44l1.18-1.53,1.18-1.54a12.6,12.6,0,0,0,1.13-1.58l2.13-3.28c.71-1.1,1.28-2.29,1.93-3.43l1-1.73c.32-.58.57-1.2.86-1.79l1.68-3.61,1.47-3.71c.24-.63.5-1.24.73-1.87l.64-1.9c.43-1.27.88-2.53,1.28-3.82.73-2.58,1.56-5.15,2.17-7.78.32-1.31.67-2.62,1-3.93l.86-4c2.24-10.61,3.63-21.44,4.92-32.25-.32,10.89-.72,21.8-2,32.71l-.5,4.1c-.19,1.36-.42,2.72-.63,4.08-.38,2.73-1,5.44-1.5,8.16-.3,1.35-.64,2.7-1,4l-.49,2c-.18.68-.39,1.34-.59,2l-1.19,4-1.43,4c-.25.66-.46,1.33-.74,2l-.84,2c-.59,1.29-1.09,2.62-1.76,3.88l-2,3.8a15.72,15.72,0,0,1-1.09,1.85l-1.15,1.83-1.17,1.83c-.38.61-.86,1.16-1.29,1.75-.89,1.14-1.77,2.31-2.68,3.45a76.26,76.26,0,0,1-6.19,6.27,68,68,0,0,1-14.65,9.73,110.33,110.33,0,0,1-16,6.31c-10.74,3.42-21.51,5.69-31.2,9a130.38,130.38,0,0,0-27.62,13.23,90.81,90.81,0,0,0-21.92,19.54A69.58,69.58,0,0,0,1635.68,1093.94Z"/><path class="6de16af7-7702-4fde-be98-8628db2b9083" d="M1786.71,926.13a269.55,269.55,0,0,1-5.29,29.91c-2.41,9.77-5.55,19.37-10.3,28a67.22,67.22,0,0,1-8.19,12l-2.43,2.63-.6.65-.67.6-1.33,1.18a42.82,42.82,0,0,1-5.54,4.36c-7.81,5.29-17,8.28-26.53,10.38-5.13,1.13-10.41,2-15.79,3-2.68.47-5.4,1-8.14,1.48-1.37.25-2.76.57-4.15.88s-2.79.59-4.17.94a147.32,147.32,0,0,0-32.34,12.07l-3.85,2.13c-.63.36-1.29.7-1.91,1.08l-1.88,1.18-3.74,2.37-3.63,2.61c-2.46,1.68-4.7,3.7-7,5.61a21.94,21.94,0,0,0-1.68,1.52l-1.64,1.57c-1.08,1.07-2.23,2.07-3.24,3.21a91.8,91.8,0,0,0-19.42,31.46l11.23,3.52a79.84,79.84,0,0,1,15.21-27.4,96,96,0,0,1,24.07-20.17,128.62,128.62,0,0,1,14-7.31l3.64-1.52c1.22-.5,2.42-1,3.66-1.46,2.48-.89,4.93-1.84,7.46-2.58,10-3.23,20.4-5.06,30.61-7.59s20.35-5.8,29.15-11.64c1.09-.73,2.14-1.52,3.21-2.28s2-1.68,3-2.51,1.88-1.84,2.83-2.76l1.4-1.38,1.26-1.52c.83-1,1.71-2,2.51-3l2.25-3.24a35.89,35.89,0,0,0,2.07-3.35l1-1.71a16,16,0,0,0,.93-1.73l1.73-3.55c.6-1.17,1-2.42,1.54-3.63,1.06-2.41,1.85-4.92,2.71-7.4a141.22,141.22,0,0,0,3.91-15.27A267.38,267.38,0,0,0,1786.71,926.13Z"/><path class="22c87335-bef3-4aca-a506-473f01caabf8" d="M1627.41,1097.21l-11.42-2.85-11.41-2.86a331.45,331.45,0,0,1,20.61-51.21q6.19-12.29,13.38-24c2.41-3.87,4.89-7.73,7.44-11.47s5.07-7.38,7.48-11,4.69-7.28,6.7-11c.51-.93,1-1.87,1.46-2.83l1.34-2.89.67-1.44c.22-.49.4-1,.6-1.49l1.19-3a125.26,125.26,0,0,0,6.34-25.24,221,221,0,0,0,2.27-26.44c.3-8.89.26-17.82.17-26.75,1.06,8.86,2.08,17.74,2.77,26.69a225.59,225.59,0,0,1,.65,27.06,133.68,133.68,0,0,1-3.77,27.29l-.93,3.37c-.16.57-.3,1.13-.48,1.69l-.56,1.67-1.12,3.34c-.4,1.11-.82,2.21-1.27,3.29-1.75,4.36-3.78,8.54-5.86,12.61s-4.25,8-6.31,11.9-4,7.77-5.86,11.7c-3.74,7.86-7.1,15.89-10.14,24A310.92,310.92,0,0,0,1627.41,1097.21Z"/><path class="6de16af7-7702-4fde-be98-8628db2b9083" d="M1674.29,899.94c.06,16.63-.26,33.34-3,49.48a120.25,120.25,0,0,1-6.43,23.35l-1.11,2.77-1.25,2.7c-.81,1.81-1.71,3.57-2.67,5.31-1.91,3.48-4,6.88-6.29,10.27-2.41,3.64-5,7.27-7.48,11s-5,7.6-7.44,11.47q-7.21,11.67-13.38,24a331.45,331.45,0,0,0-20.61,51.21l11.42,2.86a324.12,324.12,0,0,1,16.45-48.93q5.11-11.87,11.17-23.3c2-3.8,4.14-7.55,6.3-11.28s4.44-7.37,6.65-11.07c4.42-7.39,8.59-15,11.44-23.12a122.4,122.4,0,0,0,5.81-25.13,193.1,193.1,0,0,0,1.44-25.78C1675.23,917.14,1674.81,908.53,1674.29,899.94Z"/><path class="22c87335-bef3-4aca-a506-473f01caabf8" d="M1511,1090.55l-11.52-2.34-11.53-2.34q10.49-36.49,18.73-73.79t14.19-75.19q-.08,38.34-2.54,76.81T1511,1090.55Z"/><path class="6de16af7-7702-4fde-be98-8628db2b9083" d="M1520,942q-5.68,35.31-13.37,70.1-8.24,37.26-18.73,73.79l11.53,2.34A1241.7,1241.7,0,0,0,1520,942Z"/><path class="22c87335-bef3-4aca-a506-473f01caabf8" d="M1553.34,1104.85l-11.76-.47-11.75-.47a171.57,171.57,0,0,1,21.08-69.64,153.58,153.58,0,0,1,9.82-15.3c3.55-4.88,7.3-9.48,11.09-13.93,7.59-8.9,15.35-17.2,22.15-26a116.51,116.51,0,0,0,16.66-28.51,157.75,157.75,0,0,0,8.93-32.43,278.94,278.94,0,0,0,3.41-34c.53-11.44.6-22.94.61-34.42,1,11.44,1.88,22.9,2.33,34.43a282.17,282.17,0,0,1-.52,34.75,164.39,164.39,0,0,1-6.45,34.66,126.67,126.67,0,0,1-15.35,32.32c-6.43,10-13.64,19.13-20.19,28.3-3.28,4.58-6.4,9.17-9.21,13.83a139.28,139.28,0,0,0-7.56,14.35A150.91,150.91,0,0,0,1553.34,1104.85Z"/><path class="6de16af7-7702-4fde-be98-8628db2b9083" d="M1623.55,858.91c-.14,21.4-.82,42.91-4.82,63.67a143.39,143.39,0,0,1-9,30,118.85,118.85,0,0,1-7,13.72A135.76,135.76,0,0,1,1594,979c-6.8,8.81-14.56,17.11-22.15,26-3.79,4.45-7.54,9.05-11.09,13.93a153.58,153.58,0,0,0-9.82,15.3,171.57,171.57,0,0,0-21.08,69.64l11.75.47a161.62,161.62,0,0,1,16.07-64.07,147.23,147.23,0,0,1,8.12-14.51c3-4.67,6.23-9.17,9.6-13.58,6.73-8.81,14-17.24,20.53-26.17a159.74,159.74,0,0,0,9.22-13.83l1.06-1.79,1-1.83c.67-1.22,1.33-2.44,1.9-3.7,1.17-2.52,2.45-5,3.41-7.59a146.69,146.69,0,0,0,8.73-32,244.85,244.85,0,0,0,2.78-33.12C1624.24,881.08,1624,870,1623.55,858.91Z"/><path class="22c87335-bef3-4aca-a506-473f01caabf8" d="M1533,1108.06l-11.23-3.48-11.24-3.48c10-25.47,19.81-50.71,27.1-76.76a321.56,321.56,0,0,0,8.62-39.66,228.3,228.3,0,0,0,2.49-40.8,231.37,231.37,0,0,1,3.37,41.23,328.72,328.72,0,0,1-3,41.55C1545.59,1054.25,1539.3,1081.36,1533,1108.06Z"/><path class="6de16af7-7702-4fde-be98-8628db2b9083" d="M1548.8,949.42c.16,25.6-4.39,50.66-11.15,74.92-7.29,26.05-17.1,51.29-27.1,76.76l11.24,3.48c7.8-25.23,15.5-50.54,20.85-76.42S1550.93,975.79,1548.8,949.42Z"/><path class="22c87335-bef3-4aca-a506-473f01caabf8" d="M1895.91,1086.66l-11.61,1.93-11.6,1.93q-3.35-38.61-4.19-77.17t.78-76.89q4.24,38.12,10.92,75.71T1895.91,1086.66Z"/><path class="6de16af7-7702-4fde-be98-8628db2b9083" d="M1869.09,941.62q-1.36,35.76-.58,71.73.84,38.53,4.19,77.17l11.6-1.93A1195.56,1195.56,0,0,1,1869.09,941.62Z"/><path class="22c87335-bef3-4aca-a506-473f01caabf8" d="M1851.62,1093.19l-11.76,0-11.77,0a145.76,145.76,0,0,0-11.16-63.19,136.19,136.19,0,0,0-7.23-14.64c-2.71-4.76-5.74-9.46-8.92-14.15-6.36-9.39-13.37-18.75-19.58-28.92a143.63,143.63,0,0,1-8.47-15.84c-.31-.69-.64-1.36-.92-2.06l-.83-2.1-1.64-4.2c-.53-1.4-.94-2.85-1.41-4.27s-1-2.83-1.32-4.28a158.51,158.51,0,0,1-5.29-35,267.92,267.92,0,0,1,.94-34.85c1-11.54,2.41-23,3.92-34.44-.53,11.53-1,23.06-1,34.56a263,263,0,0,0,2,34.22,151.56,151.56,0,0,0,7.81,32.73c.46,1.31,1,2.57,1.57,3.85s1,2.57,1.62,3.82l1.84,3.7.91,1.85c.31.61.67,1.2,1,1.8a134.5,134.5,0,0,0,9,13.92c6.61,9,14.2,17.54,21.6,26.68,3.7,4.57,7.36,9.3,10.81,14.3a154.37,154.37,0,0,1,9.48,15.68A166.5,166.5,0,0,1,1851.62,1093.19Z"/><path class="6de16af7-7702-4fde-be98-8628db2b9083" d="M1765,844.48c-2.68,21.35-4.87,42.92-3.4,64.77.15,2.73.5,5.45.75,8.19s.76,5.44,1.15,8.17c.55,2.7,1,5.43,1.65,8.13l1,4c.34,1.35.67,2.7,1.13,4l1.27,4c.22.66.41,1.34.66,2l.77,2,1.54,3.92c.48,1.32,1.13,2.57,1.7,3.86a146.72,146.72,0,0,0,8,14.73c6.21,10.17,13.22,19.53,19.58,28.92,3.18,4.69,6.21,9.39,8.92,14.15a136.19,136.19,0,0,1,7.23,14.64,145.76,145.76,0,0,1,11.16,63.19l11.77,0a156.23,156.23,0,0,0-14.08-64.86,149.93,149.93,0,0,0-7.81-14.78c-2.89-4.76-6.06-9.36-9.35-13.86-6.56-9-13.64-17.63-20.06-26.75a164.68,164.68,0,0,1-9-14.1,112,112,0,0,1-7.06-15.14,141.68,141.68,0,0,1-7.84-32.42,231.2,231.2,0,0,1-1.55-33.38C1763.33,866.72,1764.08,855.59,1765,844.48Z"/><path class="22c87335-bef3-4aca-a506-473f01caabf8" d="M1871.78,1091.08l-11.34,3.12-11.34,3.12c-5.33-27-10.67-54.34-13.19-82.08a318.62,318.62,0,0,1-1.23-41.66,221.48,221.48,0,0,1,5.33-41,218.58,218.58,0,0,0,.55,40.78,307.57,307.57,0,0,0,7,39.93C1853.78,1039.64,1862.69,1065.24,1871.78,1091.08Z"/><path class="6de16af7-7702-4fde-be98-8628db2b9083" d="M1838.91,938c-5.11,25.13-5.34,51.38-3,77.21,2.52,27.74,7.86,55.13,13.19,82.08l11.34-3.12c-7-25.49-14-51.07-18.45-77.16S1835.57,964.32,1838.91,938Z"/><g id="5ec9ad32-574d-4940-b09f-5b6efb168a07" data-name="layer5"><path id="2f18e3ad-a80e-446a-9350-835ea93b670f" data-name="path4187-7-9" class="51e007c1-67ed-4e0a-8ede-17a41aa1c6ae" d="M780.57,278.12c-48.19,0-87.25,35-87.25,78.26s39.06,78.26,87.25,78.26,87.25-35,87.25-78.26S828.76,278.12,780.57,278.12Z"/><ellipse id="6754c939-b55d-44ed-80f4-774e8894c7e2" data-name="path4332-0-1" class="1108f964-adf6-43cb-afdb-3700baaca005" cx="782.78" cy="354.4" rx="80.71" ry="72.39"/><path id="14133b3a-2d95-42d5-bb38-bfba1b20ad0f" data-name="path3504" class="bb0450ed-5a51-45f8-a521-ccfa7653d074" d="M831.1,395.28c-3.11,1.05-4.27,5.62-10.07,3.41-7.42,6.07-18.43,6.69-27,5.57-6.13-.8-9.59,0-25.15-1,2.3,7.12,4.22,9.9,10.73,14.13a7.62,7.62,0,0,1-7.33,1.73,25,25,0,0,1,6.33,15.5c-57.8-1.46-95.4-50-83-96.06-2-11.12,2.32-49.21,38.72-48.79,5.89.06,12.17,3.86,19.73,9.25,19.92.32,33.82.88,44.07,4.2,14.34-4.86,26.29-3.05,22.49,21.48,5.61,11.35,12.31,23.36,16.94,34.26,3.13,7.37,5.89,13.93,5.75,19.5C843,390.41,840.65,392,831.1,395.28Z"/><path id="0f9feda0-f492-4a7a-94fe-81c5a74fb4c8" data-name="path3504-7" class="303d20fc-8ed8-4205-b9ee-7bb680c4563b" d="M731.89,370.42c-4.36,13.12,10.47,30.22,37,32.87,2.31,7.13,4.21,9.94,10.72,14.12a7.69,7.69,0,0,1-7.33,1.73,25,25,0,0,1,6.33,15.5c-57.81-1.48-95.41-50-83-96.06C698.83,358.86,719.21,370.76,731.89,370.42Z"/><path id="2f4dd9b2-6826-4687-bb60-cd35c6e562df" data-name="path3504-7-8" class="b5df2c02-85d2-4585-8e9d-e0c2577da3d1" d="M731.89,370.42c-4.36,13.12,10.47,30.22,37,32.87,2.31,7.17,4.21,9.94,10.72,14.12a7.57,7.57,0,0,1-7.33,1.73c4,4.78,6,9.53,6.33,15.5-6.89-9.48-21.2-13.41-29.82-18.44-30.34-17.61-23.55-38.62-24-46.67A26.93,26.93,0,0,0,731.89,370.42Z"/><path id="bef693b6-825b-493a-b9be-78adb7f3f9f2" data-name="path3504-22" class="7cd16c68-4a7c-4e33-82cc-721cfbf006c3" d="M798.11,303.24c10.45,3.39,17.11,9.66,22.49,21.48C824.49,300.32,812.44,298.3,798.11,303.24Z"/><path id="6dcbdb5e-77bc-4201-9e57-b52e2e9452b6" data-name="path3504-1" class="ccf8ccae-2b72-45f5-8659-f80f30943731" d="M764.28,309.41A43.58,43.58,0,0,0,754,299c19.92.32,33.82.88,44.07,4.2-.07,1.9-.11,2.53,0,6.1-5.33.11-31.58,0-33.79.07Z"/><path id="d2bb29ad-6743-477e-a3ff-5d70126374ab" data-name="path3504-9" class="52b5d40e-f5e3-402f-8de2-909d2aeae20f" d="M703.65,336.13c-2.61-13.57,5.62-36.42,26.81-36.23a24.75,24.75,0,0,1,17.8,7.75c2.87,3.06,4.62,8.64,6.13,11-5.76,12-2.21,15.6-4.89,25.35-2,7.32-11,13.87-13.49,17.73C716.15,363.66,706.06,348.62,703.65,336.13Z"/><path id="58e6bd06-b146-4e88-baa9-017ca929ceb6" data-name="path3504-9-6" class="37ba8594-adc5-4e0e-9e17-9d870ad4f66b" d="M719.31,323.14c9.87,2.48,12.39-4.65,22.79-2.11-1.21-3.68-3.92-6.61-8.34-6.43,2.5-5.09,14.56-7.19,17.88-1.6,1.07,2.22,1.94,4.39,2.75,5.65-5.76,12-2.21,15.6-4.89,25.35-2,7.32-11,13.87-13.49,17.73a30.17,30.17,0,0,1-6.16,0c-5.68-.74-4-12.41-9.9-13.47,1.65-3,4.77-4,8.46-3.12C721.07,338.89,718.55,332.45,719.31,323.14Z"/><path id="96f05c17-6ecf-4332-93ef-851ab20fe51d" data-name="path4194-2-1-8" d="M800.2,366.91c-3.51-1.2-5.1-3.62-5.1-7.78,0-2.64,1-3.49,4.1-3.49,5.13,0,8.41,3.4,7.64,7.93C806.2,367.31,804.26,368.28,800.2,366.91Z"/><path id="b3d3fccb-8356-4f15-8477-faac1838c5ec" data-name="path4194-2-1-7-6-5" class="203cd084-f6af-4a85-a419-b66dda73b95c" d="M801.26,363.32c-1.9-.64-2.76-2-2.77-4.22,0-1.44.54-1.9,2.23-1.9,2.78,0,4.56,1.85,4.14,4.31C804.51,363.54,803.46,364.07,801.26,363.32Z"/><path id="79976c04-a8a3-4346-8a63-22f43b1246d4" data-name="path3504-95" class="ef468e38-935c-4daa-a2b9-57197092e265" d="M833.55,396.32c-2.88,1.48-7.06,3.85-12.52,2.37-5.07-10.62,1.56-10.63,1.62-21.67s12.11-23.48,14.89-18c1.39,2.73,6,15.21,6,20.78C843.6,390.41,836.76,394.67,833.55,396.32Z"/><path id="089de0d6-e969-4680-9a5d-e24e5fe0d015" data-name="path3504-74" class="6a304455-ae94-4336-85fc-326f1933c53d" d="M822.32,398.27c-13.35,8.42-19.59,5-31.47,5.47-13.88-16-.17-14.9,2.44-15.15C799.82,393.84,812.3,404.5,822.32,398.27Z"/><path id="bef58878-1b9a-481e-a605-37d0d101edb4" data-name="path4187-9-5" class="13fa26e0-e5a0-4183-9cf4-ae80a5034e3e" d="M693.37,358.34c0,.65,0,1.3,0,2,0,43.23,39.06,78.27,87.25,78.27s87.25-35,87.25-78.27c0-.65,0-1.3-.05-2-1.16,42.31-39.74,76.3-87.2,76.3S694.53,400.65,693.37,358.34Z"/></g><g id="2c8b0830-7978-413a-bb4f-fa1800366fa2" data-name="coala.io"><path d="M909.24,388q7.9,0,13-4.44t5.62-12.3h2.9a19.7,19.7,0,0,1-6.5,14.38,21.77,21.77,0,0,1-15,5.44,20.72,20.72,0,0,1-17.34-8.37q-6.42-8.37-6.42-22.72v-2.05q0-14,6.42-22.38a20.62,20.62,0,0,1,17.23-8.37A21,21,0,0,1,924.4,333q6,5.87,6.39,15.6h-2.9q-.37-8.31-5.51-13.35t-13.25-5q-9.72,0-15.24,7.43t-5.51,20.64v2q0,12.93,5.57,20.3T909.24,388Z"/><path d="M941,357.92a37.92,37.92,0,0,1,3.2-15.86,25.62,25.62,0,0,1,9-11,23.09,23.09,0,0,1,13.2-3.93A23.36,23.36,0,0,1,979.49,331a25.4,25.4,0,0,1,9.06,10.82,37.62,37.62,0,0,1,3.3,15.77v2.74a38,38,0,0,1-3.17,15.88,25.42,25.42,0,0,1-9,10.94,24.25,24.25,0,0,1-26.39.05,25.41,25.41,0,0,1-9.06-10.84A37.59,37.59,0,0,1,941,360.65Zm2.9,2.39a34,34,0,0,0,2.88,14.09,23.8,23.8,0,0,0,8,10A20,20,0,0,0,966.48,388a19.73,19.73,0,0,0,16.21-7.91q6.25-7.92,6.26-20.39v-1.76a33.75,33.75,0,0,0-2.9-14,24.11,24.11,0,0,0-8-10.05,20.46,20.46,0,0,0-27.87,4.41q-6.28,8-6.29,20.21Z"/><path d="M1043.51,389.92a45,45,0,0,1-1.08-11.28,23.88,23.88,0,0,1-9.4,9.17,27.72,27.72,0,0,1-13.49,3.25q-8.07,0-13-4.64a16.8,16.8,0,0,1,2.32-25.68q7.23-5.1,19.21-5.21h14.35v-9q0-7.74-4.59-12t-13.14-4.27a20.33,20.33,0,0,0-13.28,4.33,13.28,13.28,0,0,0-5.32,10.7l-2.9-.11a16.06,16.06,0,0,1,6.23-12.75,22.89,22.89,0,0,1,15.27-5.24q9.4,0,14.94,5t5.69,14v29.44q0,10.13,1.51,13.78v.51Zm-24-1.94a25,25,0,0,0,14-3.87,23.66,23.66,0,0,0,8.84-10.88V358.6H1029q-12.48,0-19.09,5.24a13.1,13.1,0,0,0-5.37,10.65,12.53,12.53,0,0,0,4.24,9.56A15.24,15.24,0,0,0,1019.54,388Z"/><path d="M1067.64,389.92h-2.9V302.45h2.9Z"/><path d="M1124.3,389.92a45,45,0,0,1-1.08-11.28,23.84,23.84,0,0,1-9.41,9.17,27.67,27.67,0,0,1-13.49,3.25q-8.05,0-13-4.64a16.79,16.79,0,0,1,2.31-25.68q7.23-5.1,19.22-5.21h14.35v-9q0-7.74-4.59-12t-13.15-4.27a20.31,20.31,0,0,0-13.27,4.33,13.29,13.29,0,0,0-5.33,10.7l-2.9-.11a16.07,16.07,0,0,1,6.24-12.75,22.87,22.87,0,0,1,15.26-5.24q9.4,0,15,5t5.69,14v29.44q0,10.13,1.51,13.78v.51Zm-24-1.94a25,25,0,0,0,14.06-3.87,23.66,23.66,0,0,0,8.84-10.88V358.6h-13.44q-12.46,0-19.08,5.24a13.1,13.1,0,0,0-5.37,10.65,12.53,12.53,0,0,0,4.24,9.56A15.22,15.22,0,0,0,1100.32,388Z"/><path class="6ed945ea-043b-45c5-93b6-1f9485b00901" d="M1143.48,387.13a3.23,3.23,0,0,1,.86-2.25,2.75,2.75,0,0,1,2.1-.94,2.82,2.82,0,0,1,2.13.94,3.16,3.16,0,0,1,.88,2.25,3.07,3.07,0,0,1-.88,2.22,2.87,2.87,0,0,1-2.13.91,2.79,2.79,0,0,1-2.1-.91A3.14,3.14,0,0,1,1143.48,387.13Z"/><path class="6ed945ea-043b-45c5-93b6-1f9485b00901" d="M1167.62,309.06a3.18,3.18,0,0,1,.86-2.25,2.72,2.72,0,0,1,2.1-.94,2.8,2.8,0,0,1,2.12.94,3.16,3.16,0,0,1,.88,2.25,3.07,3.07,0,0,1-.88,2.22,2.85,2.85,0,0,1-2.12.91,2.76,2.76,0,0,1-2.1-.91A3.1,3.1,0,0,1,1167.62,309.06Zm4.41,80.86h-2.91V328.31H1172Z"/>
  <path class="6ed945ea-043b-45c5-93b6-1f9485b00901" d="M1186.7,357.92a37.92,37.92,0,0,1,3.2-15.86,25.62,25.62,0,0,1,9-11,23.08,23.08,0,0,1,13.19-3.93,23.37,23.37,0,0,1,13.12,3.81,25.4,25.4,0,0,1,9.06,10.82,37.62,37.62,0,0,1,3.3,15.77v2.74a38.12,38.12,0,0,1-3.17,15.88,25.49,25.49,0,0,1-9,10.94,24.25,24.25,0,0,1-26.39.05,25.41,25.41,0,0,1-9.06-10.84,37.43,37.43,0,0,1-3.28-15.69Zm2.9,2.39a34,34,0,0,0,2.88,14.09,23.73,23.73,0,0,0,8,10,20,20,0,0,0,11.74,3.58,19.73,19.73,0,0,0,16.21-7.91q6.25-7.92,6.26-20.39v-1.76a33.75,33.75,0,0,0-2.9-14,24.11,24.11,0,0,0-8-10.05,20.46,20.46,0,0,0-27.87,4.41q-6.29,8-6.29,20.21Z"/></g></svg>
