<?xml version="1.0" encoding="UTF-8" standalone="no"?>
<!-- Created with Inkscape (http://www.inkscape.org/) -->

<svg
   xmlns:dc="http://purl.org/dc/elements/1.1/"
   xmlns:cc="http://creativecommons.org/ns#"
   xmlns:rdf="http://www.w3.org/1999/02/22-rdf-syntax-ns#"
   xmlns:svg="http://www.w3.org/2000/svg"
   xmlns="http://www.w3.org/2000/svg"
   xmlns:sodipodi="http://sodipodi.sourceforge.net/DTD/sodipodi-0.dtd"
   xmlns:inkscape="http://www.inkscape.org/namespaces/inkscape"
   id="svg2"
   version="1.1"
   inkscape:version="0.91 r13725"
   xml:space="preserve"
   width="375"
   height="312.5"
   viewBox="0 0 375 312.5"
   sodipodi:docname="basic.ai.svg"><metadata
     id="metadata8"><rdf:RDF><cc:Work
         rdf:about=""><dc:format>image/svg+xml</dc:format><dc:type
           rdf:resource="http://purl.org/dc/dcmitype/StillImage" /><dc:title></dc:title></cc:Work></rdf:RDF></metadata><defs
     id="defs6"><clipPath
       clipPathUnits="userSpaceOnUse"
       id="clipPath28"><path
         d="M 0,250 300,250 300,0 0,0 0,250 Z"
         id="path30"
         inkscape:connector-curvature="0" /></clipPath><clipPath
       clipPathUnits="userSpaceOnUse"
       id="clipPath38"><path
         d="m 16.7784,222.798 101.7586,0 0,-101.759 -101.7586,0 0,101.759 z"
         id="path40"
         inkscape:connector-curvature="0" /></clipPath><clipPath
       clipPathUnits="userSpaceOnUse"
       id="clipPath54"><path
         d="m 21.8806,220.268 94.1264,0 0,-94.126 -94.1264,0 0,94.126 z"
         id="path56"
         inkscape:connector-curvature="0" /></clipPath><clipPath
       clipPathUnits="userSpaceOnUse"
       id="clipPath74"><path
         d="m 16.7277,183.487 50.3756,0 0,-62.449 -50.3756,0 0,62.449 z"
         id="path76"
         inkscape:connector-curvature="0" /></clipPath><clipPath
       clipPathUnits="userSpaceOnUse"
       id="clipPath90"><path
         d="m 34.9249,163.368 32.1784,0 0,-42.33 -32.1784,0 0,42.33 z"
         id="path92"
         inkscape:connector-curvature="0" /></clipPath><clipPath
       clipPathUnits="userSpaceOnUse"
       id="clipPath94"><path
         d="m 39.272,162.788 c -2.54,-8.524 6.106,-19.646 21.579,-21.367 1.347,-4.658 2.457,-6.462 6.252,-9.182 -1.205,-1.194 -2.551,-1.577 -4.272,-1.124 2.31,-3.103 3.514,-6.192 3.69,-10.077 -4.016,6.166 -12.364,8.724 -17.388,11.993 -17.694,11.449 -13.734,25.106 -14.013,30.337 1.134,-0.371 2.952,-0.613 4.152,-0.58"
         id="path96"
         inkscape:connector-curvature="0" /></clipPath><linearGradient
       x1="0"
       y1="0"
       x2="1"
       y2="0"
       gradientUnits="userSpaceOnUse"
       gradientTransform="matrix(-5.1860886,20.510696,-20.510696,-5.1860886,54.237339,129.95097)"
       spreadMethod="pad"
       id="linearGradient98"><stop
         style="stop-opacity:1;stop-color:#fcfcfc"
         offset="0"
         id="stop100" /><stop
         style="stop-opacity:1;stop-color:#e0d8c1"
         offset="1"
         id="stop102" /></linearGradient><clipPath
       clipPathUnits="userSpaceOnUse"
       id="clipPath122"><path
         d="m 77.886,206.462 c 6.094,-2.203 9.976,-6.276 13.112,-13.958 l 0,0 c 1.652,11.532 -1.617,15.374 -6.736,15.375 l 0,0 c -1.92,0 -4.098,-0.54 -6.376,-1.417"
         id="path124"
         inkscape:connector-curvature="0" /></clipPath><linearGradient
       x1="0"
       y1="0"
       x2="1"
       y2="0"
       gradientUnits="userSpaceOnUse"
       gradientTransform="matrix(20.380623,14.786781,-14.786781,20.380623,80.483849,196.61099)"
       spreadMethod="pad"
       id="linearGradient134"><stop
         style="stop-opacity:1;stop-color:#ffffff"
         offset="0"
         id="stop136" /><stop
         style="stop-opacity:0;stop-color:#ffffff"
         offset="1"
         id="stop138" /></linearGradient><mask
       maskUnits="userSpaceOnUse"
       x="0"
       y="0"
       width="1"
       height="1"
       id="mask140"><g
         id="g142"><g
           id="g144"><g
             id="g146"><g
               id="g148"><path
                 d="m -32768,32767 65535,0 0,-65535 -65535,0 0,65535 z"
                 style="fill:url(#linearGradient134);stroke:none"
                 id="path150"
                 inkscape:connector-curvature="0" /></g></g></g></g></mask><linearGradient
       x1="0"
       y1="0"
       x2="1"
       y2="0"
       gradientUnits="userSpaceOnUse"
       gradientTransform="matrix(20.380623,14.786781,-14.786781,20.380623,80.483849,196.61099)"
       spreadMethod="pad"
       id="linearGradient156"><stop
         style="stop-opacity:1;stop-color:#6c5852"
         offset="0"
         id="stop158" /><stop
         style="stop-opacity:1;stop-color:#6c5852"
         offset="1"
         id="stop160" /></linearGradient><clipPath
       clipPathUnits="userSpaceOnUse"
       id="clipPath168"><path
         d="M 0,250 300,250 300,0 0,0 0,250 Z"
         id="path170"
         inkscape:connector-curvature="0" /></clipPath><clipPath
       clipPathUnits="userSpaceOnUse"
       id="clipPath176"><path
         d="m 52.1894,209.195 25.6968,0 0,-6.739 -25.6968,0 0,6.739 z"
         id="path178"
         inkscape:connector-curvature="0" /></clipPath><clipPath
       clipPathUnits="userSpaceOnUse"
       id="clipPath180"><path
         d="m 58.161,202.456 c -1.874,3.015 -4.425,5.576 -5.972,6.739 11.616,-0.209 19.721,-0.572 25.697,-2.733 -0.041,-1.234 -0.068,-1.641 -0.022,-3.962 -3.11,-0.069 -18.417,-0.005 -19.703,-0.044 z"
         id="path182"
         inkscape:connector-curvature="0" /></clipPath><linearGradient
       x1="0"
       y1="0"
       x2="1"
       y2="0"
       gradientUnits="userSpaceOnUse"
       gradientTransform="matrix(2.6489787,-7.1954098,7.1954098,2.6489787,62.871757,213.71217)"
       spreadMethod="pad"
       id="linearGradient188"><stop
         style="stop-opacity:1;stop-color:#ffffff"
         offset="0"
         id="stop190" /><stop
         style="stop-opacity:0;stop-color:#ffffff"
         offset="1"
         id="stop192" /></linearGradient><mask
       maskUnits="userSpaceOnUse"
       x="0"
       y="0"
       width="1"
       height="1"
       id="mask194"><g
         id="g196"><g
           id="g198"><g
             id="g200"><g
               id="g202"><path
                 d="m -32768,32767 65535,0 0,-65535 -65535,0 0,65535 z"
                 style="fill:url(#linearGradient188);stroke:none"
                 id="path204"
                 inkscape:connector-curvature="0" /></g></g></g></g></mask><linearGradient
       x1="0"
       y1="0"
       x2="1"
       y2="0"
       gradientUnits="userSpaceOnUse"
       gradientTransform="matrix(2.6489787,-7.1954098,7.1954098,2.6489787,62.871757,213.71217)"
       spreadMethod="pad"
       id="linearGradient206"><stop
         style="stop-opacity:1;stop-color:#000000"
         offset="0"
         id="stop208" /><stop
         style="stop-opacity:1;stop-color:#000000"
         offset="1"
         id="stop210" /></linearGradient><clipPath
       clipPathUnits="userSpaceOnUse"
       id="clipPath234"><path
         d="m 22.805,185.082 c 1.403,-8.116 7.291,-17.894 18.869,-16.641 l 0,0 c 1.421,2.506 6.695,6.77 7.866,11.527 l 0,0 c 1.564,6.34 -0.506,8.657 2.852,16.478 l 0,0 c -0.881,1.536 -1.901,5.163 -3.578,7.154 l 0,0 c -2.765,3.285 -6.578,4.997 -10.374,5.034 l 0,0 c -0.052,0.001 -0.102,0.001 -0.154,0.001 l 0,0 c -12.243,-0.001 -17,-14.769 -15.481,-23.553"
         id="path236"
         inkscape:connector-curvature="0" /></clipPath><linearGradient
       x1="0"
       y1="0"
       x2="1"
       y2="0"
       gradientUnits="userSpaceOnUse"
       gradientTransform="matrix(-29.764021,17.171743,-17.171743,-29.764021,40.200966,187.60831)"
       spreadMethod="pad"
       id="linearGradient246"><stop
         style="stop-opacity:1;stop-color:#ffffff"
         offset="0"
         id="stop248" /><stop
         style="stop-opacity:0;stop-color:#ffffff"
         offset="1"
         id="stop250" /></linearGradient><mask
       maskUnits="userSpaceOnUse"
       x="0"
       y="0"
       width="1"
       height="1"
       id="mask252"><g
         id="g254"><g
           id="g256"><g
             id="g258"><g
               id="g260"><path
                 d="m -32768,32767 65535,0 0,-65535 -65535,0 0,65535 z"
                 style="fill:url(#linearGradient246);stroke:none"
                 id="path262"
                 inkscape:connector-curvature="0" /></g></g></g></g></mask><linearGradient
       x1="0"
       y1="0"
       x2="1"
       y2="0"
       gradientUnits="userSpaceOnUse"
       gradientTransform="matrix(-29.764021,17.171743,-17.171743,-29.764021,40.200966,187.60831)"
       spreadMethod="pad"
       id="linearGradient268"><stop
         style="stop-opacity:1;stop-color:#6c5852"
         offset="0"
         id="stop270" /><stop
         style="stop-opacity:1;stop-color:#6c5852"
         offset="1"
         id="stop272" /></linearGradient><linearGradient
       x1="0"
       y1="0"
       x2="1"
       y2="0"
       gradientUnits="userSpaceOnUse"
       gradientTransform="matrix(22.757521,-12.719811,12.719811,22.757521,27.409262,194.04149)"
       spreadMethod="pad"
       id="linearGradient288"><stop
         style="stop-opacity:1;stop-color:#fcfcfc"
         offset="0"
         id="stop290" /><stop
         style="stop-opacity:1;stop-color:#e0d8c1"
         offset="1"
         id="stop292" /></linearGradient><clipPath
       clipPathUnits="userSpaceOnUse"
       id="clipPath300"><path
         d="M 0,250 300,250 300,0 0,0 0,250 Z"
         id="path302"
         inkscape:connector-curvature="0" /></clipPath><linearGradient
       x1="0"
       y1="0"
       x2="1"
       y2="0"
       gradientUnits="userSpaceOnUse"
       gradientTransform="matrix(-2.9556456,-1.5897255,1.584125,-2.9660947,80.931023,169.84937)"
       spreadMethod="pad"
       id="linearGradient320"><stop
         style="stop-opacity:1;stop-color:#fcfcfc"
         offset="0"
         id="stop322" /><stop
         style="stop-opacity:1;stop-color:#c7c7c7"
         offset="1"
         id="stop324" /></linearGradient><clipPath
       clipPathUnits="userSpaceOnUse"
       id="clipPath332"><path
         d="m 92.192,158.501 c -0.033,-7.179 -3.898,-7.182 -0.94,-14.091 l 0,0 c 3.18,-0.959 5.617,0.583 7.301,1.544 l 0,0 c 1.871,1.069 5.858,3.843 5.835,10.764 l 0,0 c -0.011,3.621 -2.697,11.734 -3.512,13.512 l 0,0 c -0.272,0.594 -0.696,0.861 -1.214,0.861 l 0,0 c -2.568,-0.001 -7.441,-6.581 -7.47,-12.59"
         id="path334"
         inkscape:connector-curvature="0" /></clipPath><linearGradient
       x1="0"
       y1="0"
       x2="1"
       y2="0"
       gradientUnits="userSpaceOnUse"
       gradientTransform="matrix(24.585049,16.376759,-16.376759,24.585049,95.679726,156.44289)"
       spreadMethod="pad"
       id="linearGradient344"><stop
         style="stop-opacity:1;stop-color:#ffffff"
         offset="0"
         id="stop346" /><stop
         style="stop-opacity:0;stop-color:#ffffff"
         offset="1"
         id="stop348" /></linearGradient><mask
       maskUnits="userSpaceOnUse"
       x="0"
       y="0"
       width="1"
       height="1"
       id="mask350"><g
         id="g352"><g
           id="g354"><g
             id="g356"><g
               id="g358"><path
                 d="m -32768,32767 65535,0 0,-65535 -65535,0 0,65535 z"
                 style="fill:url(#linearGradient344);stroke:none"
                 id="path360"
                 inkscape:connector-curvature="0" /></g></g></g></g></mask><linearGradient
       x1="0"
       y1="0"
       x2="1"
       y2="0"
       gradientUnits="userSpaceOnUse"
       gradientTransform="matrix(24.585049,16.376759,-16.376759,24.585049,95.679726,156.44289)"
       spreadMethod="pad"
       id="linearGradient366"><stop
         style="stop-opacity:1;stop-color:#6c5852"
         offset="0"
         id="stop368" /><stop
         style="stop-opacity:1;stop-color:#6c5852"
         offset="1"
         id="stop370" /></linearGradient><clipPath
       clipPathUnits="userSpaceOnUse"
       id="clipPath378"><path
         d="M 0,250 300,250 300,0 0,0 0,250 Z"
         id="path380"
         inkscape:connector-curvature="0" /></clipPath><clipPath
       clipPathUnits="userSpaceOnUse"
       id="clipPath386"><path
         d="m 70.0842,150.978 21.9197,0 0,-10.034 -21.9197,0 0,10.034 z"
         id="path388"
         inkscape:connector-curvature="0" /></clipPath><clipPath
       clipPathUnits="userSpaceOnUse"
       id="clipPath390"><path
         d="m 92.004,144.683 c -7.785,-5.474 -11.425,-3.22 -18.351,-3.554 -8.094,10.406 -0.101,9.688 1.42,9.849 3.811,-3.41 11.084,-10.342 16.931,-6.295"
         id="path392"
         inkscape:connector-curvature="0" /></clipPath><linearGradient
       x1="0"
       y1="0"
       x2="1"
       y2="0"
       gradientUnits="userSpaceOnUse"
       gradientTransform="matrix(-6.3214521,-7.6869545,7.6869545,-6.3214521,85.972435,152.88391)"
       spreadMethod="pad"
       id="linearGradient398"><stop
         style="stop-opacity:1;stop-color:#ffffff"
         offset="0"
         id="stop400" /><stop
         style="stop-opacity:0;stop-color:#ffffff"
         offset="1"
         id="stop402" /></linearGradient><mask
       maskUnits="userSpaceOnUse"
       x="0"
       y="0"
       width="1"
       height="1"
       id="mask404"><g
         id="g406"><g
           id="g408"><g
             id="g410"><g
               id="g412"><path
                 d="m -32768,32767 65535,0 0,-65535 -65535,0 0,65535 z"
                 style="fill:url(#linearGradient398);stroke:none"
                 id="path414"
                 inkscape:connector-curvature="0" /></g></g></g></g></mask><linearGradient
       x1="0"
       y1="0"
       x2="1"
       y2="0"
       gradientUnits="userSpaceOnUse"
       gradientTransform="matrix(-6.3214521,-7.6869545,7.6869545,-6.3214521,85.972435,152.88391)"
       spreadMethod="pad"
       id="linearGradient416"><stop
         style="stop-opacity:1;stop-color:#000000"
         offset="0"
         id="stop418" /><stop
         style="stop-opacity:1;stop-color:#000000"
         offset="1"
         id="stop420" /></linearGradient></defs><sodipodi:namedview
     pagecolor="#ffffff"
     bordercolor="#666666"
     borderopacity="1"
     objecttolerance="10"
     gridtolerance="10"
     guidetolerance="10"
     inkscape:pageopacity="0"
     inkscape:pageshadow="2"
     inkscape:window-width="2560"
     inkscape:window-height="1325"
     id="namedview4"
     showgrid="false"
     inkscape:zoom="3.0208"
     inkscape:cx="196.33178"
     inkscape:cy="148.10994"
     inkscape:window-x="0"
     inkscape:window-y="41"
     inkscape:window-maximized="1"
     inkscape:current-layer="g10" /><g
     id="g10"
     inkscape:groupmode="layer"
     inkscape:label="basic"
     transform="matrix(1.25,0,0,-1.25,0,312.5)"><path
       d="m 0,34 300,0 0,61 L 0,95 0,34 Z"
       style="fill:#4d6c3b;fill-opacity:1;fill-rule:nonzero;stroke:none"
       id="path12"
       inkscape:connector-curvature="0" /><text
       transform="matrix(1,0,0,-1,52.9868,69.5225)"
       style="font-variant:normal;font-weight:normal;font-stretch:normal;font-size:19px;font-family:Roboto;-inkscape-font-specification:Roboto-Regular;writing-mode:lr-tb;fill:#ffffff;fill-opacity:1;fill-rule:nonzero;stroke:none"
       id="text14"><tspan
         x="0 10.26 15.048 25.84 32.414001 37.202 47.993999 58.785999 63.516998 73.967003 84.759003 95.551003 100.282 106.837 111.625 121.182 125.97 136.76199 147.554 152.285 162.37399 173.166 183.95799"
         y="0"
         sodipodi:role="line"
         id="tspan16">Linting and fixing code</tspan><tspan
         x="19.836 26.391001 37.182999 43.700001 48.431 59.127998 69.824997 80.598 85.329002 90.116997 100.567 111.359 122.151 132.94299 143.39301 154.185 164.25121"
         y="25.992001"
         sodipodi:role="line"
         id="tspan18">for 55+ languages</tspan></text>
<text
       transform="matrix(1,0,0,-1,15.397,13.0029)"
       style="font-variant:normal;font-weight:100;font-stretch:normal;font-size:14px;font-family:Roboto;-inkscape-font-specification:Roboto-Thin;writing-mode:lr-tb;fill:#606060;fill-opacity:1;fill-rule:nonzero;stroke:none"
       id="text20"><tspan
         x="0 7.6859999 14.9772 21.559999 28.952 35.924 43.021999 47.669998 50.554001 58.212002 62.537998 65.884003 68.655998 72.001999 79.688004 86.994598 93.5774 100.9694 104.3154 107.0874 110.4334 118.9524 125.6444 129.9704 137.6284 145.28641 152.9444 156.29041 159.06239 162.4084 172.06 180.43201 192.42999 199.65401 203 205.772 209.118 218.19 226.058 233.92599 237.272 240.04401 243.39 252.46201 260.82001"
         y="0"
         sodipodi:role="line"
         id="tspan22">Javascript | Java | Python | HTML | C++ | CSS</tspan></text>
<g
       id="g24"><g
         id="g26"
         clip-path="url(#clipPath28)"><path
           d="M 300,0 0,0 0,250 300,250 300,0 Z"
           style="fill:none;stroke:#000000;stroke-width:1;stroke-linecap:butt;stroke-linejoin:miter;stroke-miterlimit:10;stroke-dasharray:none;stroke-opacity:1"
           id="path32"
           inkscape:connector-curvature="0" /><g
           id="g34"><g
             id="g36" /><g
             id="g42"><g
               clip-path="url(#clipPath38)"
               id="g44"
               style="opacity:0.94595301"><g
                 transform="translate(67.6576,222.7978)"
                 id="g46"><path
                   d="m 0,0 c -28.1,0 -50.879,-22.779 -50.879,-50.879 0,-28.1 22.779,-50.879 50.879,-50.879 28.1,0 50.879,22.779 50.879,50.879 C 50.879,-22.779 28.1,0 0,0"
                   style="fill:#6b9753;fill-opacity:1;fill-rule:nonzero;stroke:none"
                   id="path48"
                   inkscape:connector-curvature="0" /></g></g></g></g><g
           id="g50"><g
             id="g52" /><g
             id="g58"><g
               clip-path="url(#clipPath54)"
               id="g60"
               style="opacity:0.94595301"><g
                 transform="translate(68.9439,220.2682)"
                 id="g62"><path
                   d="m 0,0 c 25.992,0 47.063,-21.071 47.063,-47.063 0,-25.993 -21.071,-47.064 -47.063,-47.064 -25.992,0 -47.063,21.071 -47.063,47.064 C -47.063,-21.071 -25.992,0 0,0"
                   style="fill:#ccde9c;fill-opacity:1;fill-rule:nonzero;stroke:none"
                   id="path64"
                   inkscape:connector-curvature="0" /></g></g></g></g><g
           id="g66"
           transform="translate(97.1216,146.63)"><path
             d="m 0,0 c -1.814,-0.685 -2.49,-3.656 -5.87,-2.22 -4.326,-3.942 -10.75,-4.348 -15.739,-3.62 -3.573,0.522 -5.59,-0.012 -14.666,0.64 1.341,-4.63 2.462,-6.44 6.257,-9.191 -1.203,-1.21 -2.568,-1.547 -4.273,-1.124 2.325,-3.063 3.481,-6.157 3.691,-10.077 -33.705,0.953 -55.631,32.493 -48.418,62.449 -1.178,7.235 1.353,31.996 22.579,31.724 3.436,-0.044 7.095,-2.513 11.507,-6.016 11.616,-0.209 19.72,-0.572 25.697,-2.733 8.359,3.163 15.33,1.983 13.112,-13.958 C -2.853,38.494 1.054,30.683 3.754,23.6 5.581,18.809 7.19,14.542 7.108,10.922 6.932,3.167 5.568,2.103 0,0"
             style="fill:#baa59a;fill-opacity:1;fill-rule:nonzero;stroke:none"
             id="path68"
             inkscape:connector-curvature="0" /></g><g
           id="g70"><g
             id="g72" /><g
             id="g78"><g
               clip-path="url(#clipPath74)"
               id="g80"
               style="opacity:0.49299604"><g
                 transform="translate(39.2716,162.7884)"
                 id="g82"><path
                   d="m 0,0 c -2.54,-8.525 6.106,-19.647 21.58,-21.367 1.347,-4.634 2.455,-6.461 6.252,-9.182 -1.216,-1.185 -2.571,-1.557 -4.273,-1.124 2.311,-3.092 3.509,-6.186 3.691,-10.078 -33.712,0.965 -55.635,32.483 -48.418,62.449 C -19.28,7.516 -7.393,-0.216 0,0"
                   style="fill:#8e7a72;fill-opacity:1;fill-rule:nonzero;stroke:none"
                   id="path84"
                   inkscape:connector-curvature="0" /></g></g></g></g><g
           id="g86"><g
             id="g88" /><g
             id="g104"><g
               clip-path="url(#clipPath90)"
               id="g106"
               style="opacity:0.76899701"><g
                 id="g108"><g
                   clip-path="url(#clipPath94)"
                   id="g110"><g
                     id="g112"><g
                       id="g114"><path
                         d="m 39.272,162.788 c -2.54,-8.524 6.106,-19.646 21.579,-21.367 1.347,-4.658 2.457,-6.462 6.252,-9.182 -1.205,-1.194 -2.551,-1.577 -4.272,-1.124 2.31,-3.103 3.514,-6.192 3.69,-10.077 -4.016,6.166 -12.364,8.724 -17.388,11.993 -17.694,11.449 -13.734,25.106 -14.013,30.337 1.134,-0.371 2.952,-0.613 4.152,-0.58"
                         style="fill:url(#linearGradient98);stroke:none"
                         id="path116"
                         inkscape:connector-curvature="0" /></g></g></g></g></g></g></g></g></g><g
       id="g118"><g
         id="g120"
         clip-path="url(#clipPath122)"><g
           id="g126"><g
             id="g128" /><g
             id="g152"
             mask="url(#mask140)"><g
               id="g154"><path
                 d="m 77.886,206.462 c 6.094,-2.203 9.976,-6.276 13.112,-13.958 l 0,0 c 1.652,11.532 -1.617,15.374 -6.736,15.375 l 0,0 c -1.92,0 -4.098,-0.54 -6.376,-1.417"
                 style="fill:url(#linearGradient156);stroke:none"
                 id="path162"
                 inkscape:connector-curvature="0" /></g></g></g></g></g><g
       id="g164"><g
         id="g166"
         clip-path="url(#clipPath168)"><g
           id="g172"><g
             id="g174" /><g
             id="g212"><g
               clip-path="url(#clipPath176)"
               id="g214"
               style="opacity:0.63900799"><g
                 id="g216"><g
                   clip-path="url(#clipPath180)"
                   id="g218"><g
                     id="g220"><g
                       id="g222" /><g
                       mask="url(#mask194)"
                       id="g224"><g
                         id="g226"><path
                           d="m 58.161,202.456 c -1.874,3.015 -4.425,5.576 -5.972,6.739 11.616,-0.209 19.721,-0.572 25.697,-2.733 -0.041,-1.234 -0.068,-1.641 -0.022,-3.962 -3.11,-0.069 -18.417,-0.005 -19.703,-0.044 z"
                           style="fill:url(#linearGradient206);stroke:none"
                           id="path228"
                           inkscape:connector-curvature="0" /></g></g></g></g></g></g></g></g></g></g><g
       id="g230"><g
         id="g232"
         clip-path="url(#clipPath234)"><g
           id="g238"><g
             id="g240" /><g
             id="g264"
             mask="url(#mask252)"><g
               id="g266"><path
                 d="m 22.805,185.082 c 1.403,-8.116 7.291,-17.894 18.869,-16.641 l 0,0 c 1.421,2.506 6.695,6.77 7.866,11.527 l 0,0 c 1.564,6.34 -0.506,8.657 2.852,16.478 l 0,0 c -0.881,1.536 -1.901,5.163 -3.578,7.154 l 0,0 c -2.765,3.285 -6.578,4.997 -10.374,5.034 l 0,0 c -0.052,0.001 -0.102,0.001 -0.154,0.001 l 0,0 c -12.243,-0.001 -17,-14.769 -15.481,-23.553"
                 style="fill:url(#linearGradient268);stroke:none"
                 id="path274"
                 inkscape:connector-curvature="0" /></g></g></g></g></g><g
       id="g276"><g
         id="g278"><g
           id="g284"><g
             id="g286"><path
               d="m 40.361,199.079 c 2.577,0.114 4.157,-1.785 4.862,-4.181 l 0,0 c -3.04,0.829 -4.926,0.076 -6.777,-0.677 l 0,0 c -1.839,-0.747 -3.644,-1.495 -6.51,-0.691 l 0,0 c -0.444,-6.054 1.026,-10.244 5.305,-14.321 l 0,0 c -2.152,0.543 -3.968,-0.097 -4.929,-2.033 l 0,0 c 3.439,-0.689 2.457,-8.274 5.771,-8.757 l 0,0 c 1.026,-0.166 2.602,-0.085 3.591,0.022 l 0,0 c 1.421,2.506 6.695,6.77 7.866,11.527 l 0,0 c 1.564,6.34 -0.506,8.657 2.852,16.478 l 0,0 c -0.47,0.819 -0.979,2.231 -1.605,3.673 l 0,0 c -0.805,1.513 -2.495,2.16 -4.298,2.16 l 0,0 c -2.526,0 -5.276,-1.269 -6.128,-3.2"
               style="fill:url(#linearGradient288);stroke:none"
               id="path294"
               inkscape:connector-curvature="0" /></g></g></g></g><g
       id="g296"><g
         id="g298"
         clip-path="url(#clipPath300)"><g
           id="g304"
           transform="translate(79.1055,165.0751)"><path
             d="M 0,0 C -2.048,0.774 -2.975,2.348 -2.977,5.054 -2.978,6.774 -2.4,7.322 -0.582,7.323 2.408,7.324 4.32,5.111 3.87,2.169 3.498,-0.26 2.367,-0.895 0,0"
             style="fill:#000000;fill-opacity:1;fill-rule:nonzero;stroke:none"
             id="path306"
             inkscape:connector-curvature="0" /></g></g></g><g
       id="g308"><g
         id="g310"><g
           id="g316"><g
             id="g318"><path
               d="m 79.407,171.386 c -0.985,0 -1.298,-0.298 -1.298,-1.234 l 0,0 c 0.001,-1.471 0.503,-2.327 1.614,-2.748 l 0,0 c 1.282,-0.487 1.896,-0.143 2.097,1.179 l 0,0 c 0.244,1.6 -0.791,2.803 -2.411,2.803 l 0,0 c -0.001,0 -0.001,0 -0.002,0"
               style="fill:url(#linearGradient320);stroke:none"
               id="path326"
               inkscape:connector-curvature="0" /></g></g></g></g><g
       id="g328"><g
         id="g330"
         clip-path="url(#clipPath332)"><g
           id="g336"><g
             id="g338" /><g
             id="g362"
             mask="url(#mask350)"><g
               id="g364"><path
                 d="m 92.192,158.501 c -0.033,-7.179 -3.898,-7.182 -0.94,-14.091 l 0,0 c 3.18,-0.959 5.617,0.583 7.301,1.544 l 0,0 c 1.871,1.069 5.858,3.843 5.835,10.764 l 0,0 c -0.011,3.621 -2.697,11.734 -3.512,13.512 l 0,0 c -0.272,0.594 -0.696,0.861 -1.214,0.861 l 0,0 c -2.568,-0.001 -7.441,-6.581 -7.47,-12.59"
                 style="fill:url(#linearGradient366);stroke:none"
                 id="path372"
                 inkscape:connector-curvature="0" /></g></g></g></g></g><g
       id="g374"><g
         id="g376"
         clip-path="url(#clipPath378)"><g
           id="g382"><g
             id="g384" /><g
             id="g422"><g
               clip-path="url(#clipPath386)"
               id="g424"
               style="opacity:0.88699299"><g
                 id="g426"><g
                   clip-path="url(#clipPath390)"
                   id="g428"><g
                     id="g430"><g
                       id="g432" /><g
                       mask="url(#mask404)"
                       id="g434"><g
                         id="g436"><path
                           d="m 92.004,144.683 c -7.785,-5.474 -11.425,-3.22 -18.351,-3.554 -8.094,10.406 -0.101,9.688 1.42,9.849 3.811,-3.41 11.084,-10.342 16.931,-6.295"
                           style="fill:url(#linearGradient416);stroke:none"
                           id="path438"
                           inkscape:connector-curvature="0" /></g></g></g></g></g></g></g></g><g
           id="g440"
           transform="translate(16.8082,170.6466)"><path
             d="m 0,0 c -0.01,-0.424 -0.03,-0.845 -0.03,-1.272 0,-28.1 22.78,-50.879 50.879,-50.879 28.1,0 50.88,22.779 50.88,50.879 0,0.427 -0.02,0.848 -0.03,1.272 C 101.022,-27.51 78.523,-49.607 50.849,-49.607 23.176,-49.607 0.677,-27.51 0,0"
             style="fill:#4d6c3b;fill-opacity:1;fill-rule:nonzero;stroke:none"
             id="path442"
             inkscape:connector-curvature="0" /></g></g></g><text
       transform="matrix(1,0,0,-1,135.9189,147.7842)"
       style="font-variant:normal;font-weight:100;font-stretch:normal;font-size:61px;font-family:Roboto;-inkscape-font-specification:Roboto-Thin;writing-mode:lr-tb;fill:#383838;fill-opacity:1;fill-rule:nonzero;stroke:none"
       id="text444"><tspan
         x="0 30.927 64.293999 96.501999 109.068"
         y="0"
         sodipodi:role="line"
         id="tspan446">coala</tspan></text>
</g></svg>