<?xml version="1.0" encoding="UTF-8" standalone="no"?>
<!-- Created with Inkscape (http://www.inkscape.org/) -->

<svg
   xmlns:dc="http://purl.org/dc/elements/1.1/"
   xmlns:cc="http://creativecommons.org/ns#"
   xmlns:rdf="http://www.w3.org/1999/02/22-rdf-syntax-ns#"
   xmlns:svg="http://www.w3.org/2000/svg"
   xmlns="http://www.w3.org/2000/svg"
   xmlns:sodipodi="http://sodipodi.sourceforge.net/DTD/sodipodi-0.dtd"
   xmlns:inkscape="http://www.inkscape.org/namespaces/inkscape"
   id="svg2"
   version="1.1"
   inkscape:version="0.92.3 (2405546, 2018-03-11)"
   xml:space="preserve"
   width="375"
   height="312.5"
   viewBox="0 0 375 312.5"
   sodipodi:docname="joinus.svg"
   inkscape:export-filename="/home/lasse/prog/coala-artwork/artwork/ads/joinus.svg.png"
   inkscape:export-xdpi="144"
   inkscape:export-ydpi="144"><metadata
     id="metadata8"><rdf:RDF><cc:Work
         rdf:about=""><dc:format>image/svg+xml</dc:format><dc:type
           rdf:resource="http://purl.org/dc/dcmitype/StillImage" /><dc:title></dc:title></cc:Work></rdf:RDF></metadata><defs
     id="defs6"><clipPath
       clipPathUnits="userSpaceOnUse"
       id="clipPath16"><path
         d="M 0,250 300,250 300,0 0,0 0,250 Z"
         id="path18"
         inkscape:connector-curvature="0" /></clipPath><clipPath
       clipPathUnits="userSpaceOnUse"
       id="clipPath28"><path
         d="M 0,250 300,250 300,0 0,0 0,250 Z"
         id="path30"
         inkscape:connector-curvature="0" /></clipPath><clipPath
       clipPathUnits="userSpaceOnUse"
       id="clipPath36"><path
         d="m 20.7784,232.044 101.7586,0 0,-101.758 -101.7586,0 0,101.758 z"
         id="path38"
         inkscape:connector-curvature="0" /></clipPath><clipPath
       clipPathUnits="userSpaceOnUse"
       id="clipPath52"><path
         d="m 25.8806,229.514 94.1264,0 0,-94.126 -94.1264,0 0,94.126 z"
         id="path54"
         inkscape:connector-curvature="0" /></clipPath><clipPath
       clipPathUnits="userSpaceOnUse"
       id="clipPath72"><path
         d="m 20.7277,192.733 50.3756,0 0,-62.449 -50.3756,0 0,62.449 z"
         id="path74"
         inkscape:connector-curvature="0" /></clipPath><clipPath
       clipPathUnits="userSpaceOnUse"
       id="clipPath88"><path
         d="m 38.9249,172.614 32.1784,0 0,-42.33 -32.1784,0 0,42.33 z"
         id="path90"
         inkscape:connector-curvature="0" /></clipPath><clipPath
       clipPathUnits="userSpaceOnUse"
       id="clipPath92"><path
         d="m 43.272,172.035 c -2.54,-8.525 6.106,-19.647 21.579,-21.368 1.347,-4.658 2.457,-6.462 6.252,-9.182 -1.205,-1.194 -2.551,-1.576 -4.272,-1.124 2.31,-3.103 3.514,-6.192 3.69,-10.077 -4.016,6.166 -12.364,8.724 -17.388,11.993 -17.694,11.449 -13.734,25.106 -14.013,30.337 1.134,-0.37 2.952,-0.613 4.152,-0.579"
         id="path94"
         inkscape:connector-curvature="0" /></clipPath><linearGradient
       x1="0"
       y1="0"
       x2="1"
       y2="0"
       gradientUnits="userSpaceOnUse"
       gradientTransform="matrix(-5.1860886,20.510696,-20.510696,-5.1860886,58.237339,139.19725)"
       spreadMethod="pad"
       id="linearGradient96"><stop
         style="stop-opacity:1;stop-color:#fcfcfc"
         offset="0"
         id="stop98" /><stop
         style="stop-opacity:1;stop-color:#e0d8c1"
         offset="1"
         id="stop100" /></linearGradient><clipPath
       clipPathUnits="userSpaceOnUse"
       id="clipPath120"><path
         d="m 81.887,215.708 c 6.093,-2.203 9.975,-6.275 13.112,-13.958 l 0,0 c 1.651,11.532 -1.618,15.375 -6.737,15.375 l 0,0 c -1.919,0 -4.098,-0.539 -6.375,-1.417"
         id="path122"
         inkscape:connector-curvature="0" /></clipPath><linearGradient
       x1="0"
       y1="0"
       x2="1"
       y2="0"
       gradientUnits="userSpaceOnUse"
       gradientTransform="matrix(20.380623,14.786781,-14.786781,20.380623,84.483849,205.85727)"
       spreadMethod="pad"
       id="linearGradient132"><stop
         style="stop-opacity:1;stop-color:#ffffff"
         offset="0"
         id="stop134" /><stop
         style="stop-opacity:0;stop-color:#ffffff"
         offset="1"
         id="stop136" /></linearGradient><mask
       maskUnits="userSpaceOnUse"
       x="0"
       y="0"
       width="1"
       height="1"
       id="mask138"><g
         id="g140"><g
           id="g142"><g
             id="g144"><g
               id="g146"><path
                 d="m -32768,32767 65535,0 0,-65535 -65535,0 0,65535 z"
                 style="fill:url(#linearGradient132);stroke:none"
                 id="path148"
                 inkscape:connector-curvature="0" /></g></g></g></g></mask><linearGradient
       x1="0"
       y1="0"
       x2="1"
       y2="0"
       gradientUnits="userSpaceOnUse"
       gradientTransform="matrix(20.380623,14.786781,-14.786781,20.380623,84.483849,205.85727)"
       spreadMethod="pad"
       id="linearGradient154"><stop
         style="stop-opacity:1;stop-color:#6c5852"
         offset="0"
         id="stop156" /><stop
         style="stop-opacity:1;stop-color:#6c5852"
         offset="1"
         id="stop158" /></linearGradient><clipPath
       clipPathUnits="userSpaceOnUse"
       id="clipPath166"><path
         d="M 0,250 300,250 300,0 0,0 0,250 Z"
         id="path168"
         inkscape:connector-curvature="0" /></clipPath><clipPath
       clipPathUnits="userSpaceOnUse"
       id="clipPath174"><path
         d="m 56.1894,218.441 25.6968,0 0,-6.739 -25.6968,0 0,6.739 z"
         id="path176"
         inkscape:connector-curvature="0" /></clipPath><clipPath
       clipPathUnits="userSpaceOnUse"
       id="clipPath178"><path
         d="m 62.161,211.702 c -1.874,3.015 -4.425,5.577 -5.972,6.739 11.616,-0.208 19.721,-0.572 25.697,-2.733 -0.041,-1.233 -0.068,-1.641 -0.022,-3.962 -3.11,-0.069 -18.417,-0.005 -19.703,-0.044 z"
         id="path180"
         inkscape:connector-curvature="0" /></clipPath><linearGradient
       x1="0"
       y1="0"
       x2="1"
       y2="0"
       gradientUnits="userSpaceOnUse"
       gradientTransform="matrix(2.6489787,-7.1954098,7.1954098,2.6489787,66.871757,222.95845)"
       spreadMethod="pad"
       id="linearGradient186"><stop
         style="stop-opacity:1;stop-color:#ffffff"
         offset="0"
         id="stop188" /><stop
         style="stop-opacity:0;stop-color:#ffffff"
         offset="1"
         id="stop190" /></linearGradient><mask
       maskUnits="userSpaceOnUse"
       x="0"
       y="0"
       width="1"
       height="1"
       id="mask192"><g
         id="g194"><g
           id="g196"><g
             id="g198"><g
               id="g200"><path
                 d="m -32768,32767 65535,0 0,-65535 -65535,0 0,65535 z"
                 style="fill:url(#linearGradient186);stroke:none"
                 id="path202"
                 inkscape:connector-curvature="0" /></g></g></g></g></mask><linearGradient
       x1="0"
       y1="0"
       x2="1"
       y2="0"
       gradientUnits="userSpaceOnUse"
       gradientTransform="matrix(2.6489787,-7.1954098,7.1954098,2.6489787,66.871757,222.95845)"
       spreadMethod="pad"
       id="linearGradient204"><stop
         style="stop-opacity:1;stop-color:#000000"
         offset="0"
         id="stop206" /><stop
         style="stop-opacity:1;stop-color:#000000"
         offset="1"
         id="stop208" /></linearGradient><clipPath
       clipPathUnits="userSpaceOnUse"
       id="clipPath232"><path
         d="m 26.805,194.329 c 1.404,-8.117 7.291,-17.895 18.869,-16.642 l 0,0 c 1.421,2.506 6.694,6.77 7.867,11.526 l 0,0 c 1.562,6.341 -0.507,8.657 2.85,16.479 l 0,0 c -0.881,1.537 -1.901,5.164 -3.576,7.154 l 0,0 c -2.766,3.284 -6.578,4.997 -10.376,5.035 l 0,0 c -0.052,0.001 -0.101,0.001 -0.153,0.001 l 0,0 C 30.042,217.88 25.287,203.112 26.805,194.329"
         id="path234"
         inkscape:connector-curvature="0" /></clipPath><linearGradient
       x1="0"
       y1="0"
       x2="1"
       y2="0"
       gradientUnits="userSpaceOnUse"
       gradientTransform="matrix(-29.764021,17.171743,-17.171743,-29.764021,44.200966,196.85458)"
       spreadMethod="pad"
       id="linearGradient244"><stop
         style="stop-opacity:1;stop-color:#ffffff"
         offset="0"
         id="stop246" /><stop
         style="stop-opacity:0;stop-color:#ffffff"
         offset="1"
         id="stop248" /></linearGradient><mask
       maskUnits="userSpaceOnUse"
       x="0"
       y="0"
       width="1"
       height="1"
       id="mask250"><g
         id="g252"><g
           id="g254"><g
             id="g256"><g
               id="g258"><path
                 d="m -32768,32767 65535,0 0,-65535 -65535,0 0,65535 z"
                 style="fill:url(#linearGradient244);stroke:none"
                 id="path260"
                 inkscape:connector-curvature="0" /></g></g></g></g></mask><linearGradient
       x1="0"
       y1="0"
       x2="1"
       y2="0"
       gradientUnits="userSpaceOnUse"
       gradientTransform="matrix(-29.764021,17.171743,-17.171743,-29.764021,44.200966,196.85458)"
       spreadMethod="pad"
       id="linearGradient266"><stop
         style="stop-opacity:1;stop-color:#6c5852"
         offset="0"
         id="stop268" /><stop
         style="stop-opacity:1;stop-color:#6c5852"
         offset="1"
         id="stop270" /></linearGradient><linearGradient
       x1="0"
       y1="0"
       x2="1"
       y2="0"
       gradientUnits="userSpaceOnUse"
       gradientTransform="matrix(22.757521,-12.719811,12.719811,22.757521,31.409262,203.28777)"
       spreadMethod="pad"
       id="linearGradient286"><stop
         style="stop-opacity:1;stop-color:#fcfcfc"
         offset="0"
         id="stop288" /><stop
         style="stop-opacity:1;stop-color:#e0d8c1"
         offset="1"
         id="stop290" /></linearGradient><clipPath
       clipPathUnits="userSpaceOnUse"
       id="clipPath298"><path
         d="M 0,250 300,250 300,0 0,0 0,250 Z"
         id="path300"
         inkscape:connector-curvature="0" /></clipPath><linearGradient
       x1="0"
       y1="0"
       x2="1"
       y2="0"
       gradientUnits="userSpaceOnUse"
       gradientTransform="matrix(-2.9556456,-1.5897255,1.584125,-2.9660947,84.931023,179.09564)"
       spreadMethod="pad"
       id="linearGradient318"><stop
         style="stop-opacity:1;stop-color:#fcfcfc"
         offset="0"
         id="stop320" /><stop
         style="stop-opacity:1;stop-color:#c7c7c7"
         offset="1"
         id="stop322" /></linearGradient><clipPath
       clipPathUnits="userSpaceOnUse"
       id="clipPath330"><path
         d="m 96.192,167.746 c -0.033,-7.179 -3.898,-7.181 -0.94,-14.089 l 0,0 c 3.18,-0.959 5.617,0.581 7.3,1.544 l 0,0 c 1.872,1.069 5.859,3.843 5.836,10.763 l 0,0 c -0.012,3.62 -2.697,11.734 -3.512,13.512 l 0,0 c -0.272,0.594 -0.696,0.861 -1.213,0.861 l 0,0 c -2.569,-10e-4 -7.443,-6.581 -7.471,-12.591"
         id="path332"
         inkscape:connector-curvature="0" /></clipPath><linearGradient
       x1="0"
       y1="0"
       x2="1"
       y2="0"
       gradientUnits="userSpaceOnUse"
       gradientTransform="matrix(24.585049,16.376759,-16.376759,24.585049,99.679726,165.68916)"
       spreadMethod="pad"
       id="linearGradient342"><stop
         style="stop-opacity:1;stop-color:#ffffff"
         offset="0"
         id="stop344" /><stop
         style="stop-opacity:0;stop-color:#ffffff"
         offset="1"
         id="stop346" /></linearGradient><mask
       maskUnits="userSpaceOnUse"
       x="0"
       y="0"
       width="1"
       height="1"
       id="mask348"><g
         id="g350"><g
           id="g352"><g
             id="g354"><g
               id="g356"><path
                 d="m -32768,32767 65535,0 0,-65535 -65535,0 0,65535 z"
                 style="fill:url(#linearGradient342);stroke:none"
                 id="path358"
                 inkscape:connector-curvature="0" /></g></g></g></g></mask><linearGradient
       x1="0"
       y1="0"
       x2="1"
       y2="0"
       gradientUnits="userSpaceOnUse"
       gradientTransform="matrix(24.585049,16.376759,-16.376759,24.585049,99.679726,165.68916)"
       spreadMethod="pad"
       id="linearGradient364"><stop
         style="stop-opacity:1;stop-color:#6c5852"
         offset="0"
         id="stop366" /><stop
         style="stop-opacity:1;stop-color:#6c5852"
         offset="1"
         id="stop368" /></linearGradient><clipPath
       clipPathUnits="userSpaceOnUse"
       id="clipPath376"><path
         d="M 0,250 300,250 300,0 0,0 0,250 Z"
         id="path378"
         inkscape:connector-curvature="0" /></clipPath><clipPath
       clipPathUnits="userSpaceOnUse"
       id="clipPath384"><path
         d="m 74.0842,160.224 21.9197,0 0,-10.033 -21.9197,0 0,10.033 z"
         id="path386"
         inkscape:connector-curvature="0" /></clipPath><clipPath
       clipPathUnits="userSpaceOnUse"
       id="clipPath388"><path
         d="m 96.004,153.929 c -7.785,-5.474 -11.425,-3.22 -18.351,-3.554 -8.094,10.407 -0.101,9.688 1.42,9.849 3.811,-3.41 11.084,-10.341 16.931,-6.295"
         id="path390"
         inkscape:connector-curvature="0" /></clipPath><linearGradient
       x1="0"
       y1="0"
       x2="1"
       y2="0"
       gradientUnits="userSpaceOnUse"
       gradientTransform="matrix(-6.3214521,-7.6869545,7.6869545,-6.3214521,89.972435,162.13019)"
       spreadMethod="pad"
       id="linearGradient396"><stop
         style="stop-opacity:1;stop-color:#ffffff"
         offset="0"
         id="stop398" /><stop
         style="stop-opacity:0;stop-color:#ffffff"
         offset="1"
         id="stop400" /></linearGradient><mask
       maskUnits="userSpaceOnUse"
       x="0"
       y="0"
       width="1"
       height="1"
       id="mask402"><g
         id="g404"><g
           id="g406"><g
             id="g408"><g
               id="g410"><path
                 d="m -32768,32767 65535,0 0,-65535 -65535,0 0,65535 z"
                 style="fill:url(#linearGradient396);stroke:none"
                 id="path412"
                 inkscape:connector-curvature="0" /></g></g></g></g></mask><linearGradient
       x1="0"
       y1="0"
       x2="1"
       y2="0"
       gradientUnits="userSpaceOnUse"
       gradientTransform="matrix(-6.3214521,-7.6869545,7.6869545,-6.3214521,89.972435,162.13019)"
       spreadMethod="pad"
       id="linearGradient414"><stop
         style="stop-opacity:1;stop-color:#000000"
         offset="0"
         id="stop416" /><stop
         style="stop-opacity:1;stop-color:#000000"
         offset="1"
         id="stop418" /></linearGradient></defs><sodipodi:namedview
     pagecolor="#ffffff"
     bordercolor="#666666"
     borderopacity="1"
     objecttolerance="10"
     gridtolerance="10"
     guidetolerance="10"
     inkscape:pageopacity="0"
     inkscape:pageshadow="2"
     inkscape:window-width="1366"
     inkscape:window-height="705"
     id="namedview4"
     showgrid="false"
     inkscape:zoom="1.28"
     inkscape:cx="213.08832"
     inkscape:cy="130.4914"
     inkscape:window-x="-8"
     inkscape:window-y="-8"
     inkscape:window-maximized="1"
     inkscape:current-layer="g10" /><g
     id="g10"
     inkscape:groupmode="layer"
     inkscape:label="contribute"
     transform="matrix(1.25,0,0,-1.25,0,312.5)"><path
   d="M 300,0 0,0 0,250 300,250 300,0 Z"
   style="fill:#ffffff;stroke:#000000;stroke-width:1;stroke-linecap:butt;stroke-linejoin:miter;stroke-miterlimit:10;stroke-dasharray:none;stroke-opacity:1;fill-opacity:1;opacity:0.99"
   id="path20"
   inkscape:connector-curvature="0"
   inkscape:export-xdpi="143.52"
   inkscape:export-ydpi="143.52" /><path
   d="m 0,40.84 300,0 0,70.493 -300,0 0,-70.493 z"
   style="fill:#4d6c3b;fill-opacity:1;fill-rule:nonzero;stroke:none"
   id="path22"
   inkscape:connector-curvature="0"
   inkscape:export-xdpi="143.52"
   inkscape:export-ydpi="143.52" /><g
   id="g24"
   inkscape:export-xdpi="143.52"
   inkscape:export-ydpi="143.52"><g
     id="g26"
     clip-path="url(#clipPath28)"><g
       id="g32"><g
         id="g34" /><g
         id="g40"><g
           clip-path="url(#clipPath36)"
           id="g42"
           style="opacity:0.94595301"><g
             transform="translate(71.6576,232.0441)"
             id="g44"><path
               d="m 0,0 c -28.1,0 -50.879,-22.779 -50.879,-50.879 0,-28.1 22.779,-50.879 50.879,-50.879 28.1,0 50.879,22.779 50.879,50.879 C 50.879,-22.779 28.1,0 0,0"
               style="fill:#6b9753;fill-opacity:1;fill-rule:nonzero;stroke:none"
               id="path46"
               inkscape:connector-curvature="0" /></g></g></g></g><g
       id="g48"><g
         id="g50" /><g
         id="g56"><g
           clip-path="url(#clipPath52)"
           id="g58"
           style="opacity:0.94595301"><g
             transform="translate(72.9439,229.5145)"
             id="g60"><path
               d="m 0,0 c 25.992,0 47.063,-21.071 47.063,-47.063 0,-25.993 -21.071,-47.064 -47.063,-47.064 -25.992,0 -47.063,21.071 -47.063,47.064 C -47.063,-21.071 -25.992,0 0,0"
               style="fill:#ccde9c;fill-opacity:1;fill-rule:nonzero;stroke:none"
               id="path62"
               inkscape:connector-curvature="0" /></g></g></g></g><g
       id="g64"
       transform="translate(101.1216,155.8763)"><path
         d="m 0,0 c -1.814,-0.685 -2.49,-3.656 -5.87,-2.22 -4.326,-3.942 -10.75,-4.348 -15.739,-3.62 -3.573,0.522 -5.59,-0.012 -14.666,0.64 1.341,-4.63 2.462,-6.44 6.257,-9.191 -1.203,-1.21 -2.568,-1.547 -4.273,-1.124 2.325,-3.063 3.481,-6.157 3.691,-10.077 -33.705,0.953 -55.631,32.493 -48.418,62.449 -1.178,7.235 1.353,31.996 22.579,31.724 3.436,-0.044 7.095,-2.513 11.507,-6.016 11.616,-0.209 19.72,-0.572 25.697,-2.733 8.359,3.163 15.33,1.983 13.112,-13.958 C -2.853,38.494 1.054,30.683 3.754,23.6 5.581,18.809 7.19,14.542 7.108,10.922 6.932,3.167 5.568,2.103 0,0"
         style="fill:#baa59a;fill-opacity:1;fill-rule:nonzero;stroke:none"
         id="path66"
         inkscape:connector-curvature="0" /></g><g
       id="g68"><g
         id="g70" /><g
         id="g76"><g
           clip-path="url(#clipPath72)"
           id="g78"
           style="opacity:0.49299604"><g
             transform="translate(43.2716,172.0347)"
             id="g80"><path
               d="m 0,0 c -2.54,-8.525 6.106,-19.647 21.58,-21.367 1.347,-4.634 2.455,-6.461 6.252,-9.182 -1.216,-1.185 -2.571,-1.557 -4.273,-1.124 2.311,-3.092 3.509,-6.186 3.691,-10.078 -33.712,0.965 -55.635,32.483 -48.418,62.449 C -19.28,7.516 -7.393,-0.216 0,0"
               style="fill:#8e7a72;fill-opacity:1;fill-rule:nonzero;stroke:none"
               id="path82"
               inkscape:connector-curvature="0" /></g></g></g></g><g
       id="g84"><g
         id="g86" /><g
         id="g102"><g
           clip-path="url(#clipPath88)"
           id="g104"
           style="opacity:0.76899701"><g
             id="g106"><g
               clip-path="url(#clipPath92)"
               id="g108"><g
                 id="g110"><g
                   id="g112"><path
                     d="m 43.272,172.035 c -2.54,-8.525 6.106,-19.647 21.579,-21.368 1.347,-4.658 2.457,-6.462 6.252,-9.182 -1.205,-1.194 -2.551,-1.576 -4.272,-1.124 2.31,-3.103 3.514,-6.192 3.69,-10.077 -4.016,6.166 -12.364,8.724 -17.388,11.993 -17.694,11.449 -13.734,25.106 -14.013,30.337 1.134,-0.37 2.952,-0.613 4.152,-0.579"
                     style="fill:url(#linearGradient96);stroke:none"
                     id="path114"
                     inkscape:connector-curvature="0" /></g></g></g></g></g></g></g></g></g><g
   id="g116"
   inkscape:export-xdpi="143.52"
   inkscape:export-ydpi="143.52"><g
     id="g118"
     clip-path="url(#clipPath120)"><g
       id="g124"><g
         id="g126" /><g
         id="g150"
         mask="url(#mask138)"><g
           id="g152"><path
             d="m 81.887,215.708 c 6.093,-2.203 9.975,-6.275 13.112,-13.958 l 0,0 c 1.651,11.532 -1.618,15.375 -6.737,15.375 l 0,0 c -1.919,0 -4.098,-0.539 -6.375,-1.417"
             style="fill:url(#linearGradient154);stroke:none"
             id="path160"
             inkscape:connector-curvature="0" /></g></g></g></g></g><g
   id="g162"
   inkscape:export-xdpi="143.52"
   inkscape:export-ydpi="143.52"><g
     id="g164"
     clip-path="url(#clipPath166)"><g
       id="g170"><g
         id="g172" /><g
         id="g210"><g
           clip-path="url(#clipPath174)"
           id="g212"
           style="opacity:0.63900799"><g
             id="g214"><g
               clip-path="url(#clipPath178)"
               id="g216"><g
                 id="g218"><g
                   id="g220" /><g
                   mask="url(#mask192)"
                   id="g222"><g
                     id="g224"><path
                       d="m 62.161,211.702 c -1.874,3.015 -4.425,5.577 -5.972,6.739 11.616,-0.208 19.721,-0.572 25.697,-2.733 -0.041,-1.233 -0.068,-1.641 -0.022,-3.962 -3.11,-0.069 -18.417,-0.005 -19.703,-0.044 z"
                       style="fill:url(#linearGradient204);stroke:none"
                       id="path226"
                       inkscape:connector-curvature="0" /></g></g></g></g></g></g></g></g></g></g><g
   id="g228"
   inkscape:export-xdpi="143.52"
   inkscape:export-ydpi="143.52"><g
     id="g230"
     clip-path="url(#clipPath232)"><g
       id="g236"><g
         id="g238" /><g
         id="g262"
         mask="url(#mask250)"><g
           id="g264"><path
             d="m 26.805,194.329 c 1.404,-8.117 7.291,-17.895 18.869,-16.642 l 0,0 c 1.421,2.506 6.694,6.77 7.867,11.526 l 0,0 c 1.562,6.341 -0.507,8.657 2.85,16.479 l 0,0 c -0.881,1.537 -1.901,5.164 -3.576,7.154 l 0,0 c -2.766,3.284 -6.578,4.997 -10.376,5.035 l 0,0 c -0.052,0.001 -0.101,0.001 -0.153,0.001 l 0,0 C 30.042,217.88 25.287,203.112 26.805,194.329"
             style="fill:url(#linearGradient266);stroke:none"
             id="path272"
             inkscape:connector-curvature="0" /></g></g></g></g></g><g
   id="g274"
   inkscape:export-xdpi="143.52"
   inkscape:export-ydpi="143.52"><g
     id="g276"><g
       id="g282"><g
         id="g284"><path
           d="m 44.36,208.326 c 2.578,0.114 4.157,-1.785 4.864,-4.183 l 0,0 c -3.041,0.83 -4.928,0.077 -6.779,-0.676 l 0,0 c -1.839,-0.747 -3.643,-1.495 -6.51,-0.692 l 0,0 c -0.443,-6.052 1.027,-10.243 5.307,-14.32 l 0,0 c -2.153,0.542 -3.969,-0.097 -4.931,-2.034 l 0,0 c 3.44,-0.687 2.458,-8.272 5.772,-8.756 l 0,0 c 1.026,-0.165 2.602,-0.085 3.591,0.022 l 0,0 c 1.421,2.506 6.694,6.77 7.867,11.526 l 0,0 c 1.562,6.341 -0.507,8.657 2.85,16.479 l 0,0 c -0.469,0.818 -0.978,2.231 -1.604,3.672 l 0,0 c -0.805,1.515 -2.495,2.162 -4.299,2.161 l 0,0 c -2.526,0 -5.275,-1.268 -6.128,-3.199"
           style="fill:url(#linearGradient286);stroke:none"
           id="path292"
           inkscape:connector-curvature="0" /></g></g></g></g><g
   id="g294"
   inkscape:export-xdpi="143.52"
   inkscape:export-ydpi="143.52"><g
     id="g296"
     clip-path="url(#clipPath298)"><g
       id="g302"
       transform="translate(83.1055,174.3214)"><path
         d="M 0,0 C -2.048,0.774 -2.975,2.348 -2.977,5.054 -2.978,6.774 -2.4,7.322 -0.582,7.323 2.408,7.324 4.32,5.111 3.87,2.169 3.498,-0.26 2.367,-0.895 0,0"
         style="fill:#000000;fill-opacity:1;fill-rule:nonzero;stroke:none"
         id="path304"
         inkscape:connector-curvature="0" /></g></g></g><g
   id="g306"
   inkscape:export-xdpi="143.52"
   inkscape:export-ydpi="143.52"><g
     id="g308"><g
       id="g314"><g
         id="g316"><path
           d="m 83.408,180.633 c -0.986,-0.001 -1.299,-0.299 -1.298,-1.234 l 0,0 c 0.001,-1.472 0.503,-2.329 1.613,-2.75 l 0,0 c 1.283,-0.486 1.896,-0.141 2.097,1.18 l 0,0 c 0.244,1.6 -0.792,2.804 -2.411,2.804 l 0,0 c 0,0 -0.001,0 -0.001,0"
           style="fill:url(#linearGradient318);stroke:none"
           id="path324"
           inkscape:connector-curvature="0" /></g></g></g></g><g
   id="g326"
   inkscape:export-xdpi="143.52"
   inkscape:export-ydpi="143.52"><g
     id="g328"
     clip-path="url(#clipPath330)"><g
       id="g334"><g
         id="g336" /><g
         id="g360"
         mask="url(#mask348)"><g
           id="g362"><path
             d="m 96.192,167.746 c -0.033,-7.179 -3.898,-7.181 -0.94,-14.089 l 0,0 c 3.18,-0.959 5.617,0.581 7.3,1.544 l 0,0 c 1.872,1.069 5.859,3.843 5.836,10.763 l 0,0 c -0.012,3.62 -2.697,11.734 -3.512,13.512 l 0,0 c -0.272,0.594 -0.696,0.861 -1.213,0.861 l 0,0 c -2.569,-10e-4 -7.443,-6.581 -7.471,-12.591"
             style="fill:url(#linearGradient364);stroke:none"
             id="path370"
             inkscape:connector-curvature="0" /></g></g></g></g></g><g
   id="g372"
   inkscape:export-xdpi="143.52"
   inkscape:export-ydpi="143.52"><g
     id="g374"
     clip-path="url(#clipPath376)"><g
       id="g380"><g
         id="g382" /><g
         id="g420"><g
           clip-path="url(#clipPath384)"
           id="g422"
           style="opacity:0.88699299"><g
             id="g424"><g
               clip-path="url(#clipPath388)"
               id="g426"><g
                 id="g428"><g
                   id="g430" /><g
                   mask="url(#mask402)"
                   id="g432"><g
                     id="g434"><path
                       d="m 96.004,153.929 c -7.785,-5.474 -11.425,-3.22 -18.351,-3.554 -8.094,10.407 -0.101,9.688 1.42,9.849 3.811,-3.41 11.084,-10.341 16.931,-6.295"
                       style="fill:url(#linearGradient414);stroke:none"
                       id="path436"
                       inkscape:connector-curvature="0" /></g></g></g></g></g></g></g></g><g
       id="g438"
       transform="translate(20.8082,179.8929)"><path
         d="m 0,0 c -0.01,-0.424 -0.03,-0.845 -0.03,-1.272 0,-28.1 22.78,-50.879 50.879,-50.879 28.1,0 50.88,22.779 50.88,50.879 0,0.427 -0.02,0.848 -0.03,1.272 C 101.022,-27.51 78.523,-49.607 50.849,-49.607 23.176,-49.607 0.677,-27.51 0,0"
         style="fill:#4d6c3b;fill-opacity:1;fill-rule:nonzero;stroke:none"
         id="path440"
         inkscape:connector-curvature="0" /></g></g></g><text
   transform="matrix(1,0,0,-1,5.9741,85.5234)"
   style="font-variant:normal;font-weight:normal;font-stretch:normal;line-height:0%;font-family:Roboto;-inkscape-font-specification:Roboto-Regular;writing-mode:lr-tb;fill:#ffffff;fill-opacity:1;fill-rule:nonzero;stroke:none"
   id="text442"
   inkscape:export-xdpi="143.52"
   inkscape:export-ydpi="143.52"><tspan
     x="0 8.3699999 12.276 21.08 26.443001 30.349001 39.153 47.957001 51.816502 60.341499 69.1455 77.949501 81.808998 87.156502 91.0625 98.859001 102.765 111.569 120.373 124.2325 132.463 141.267 150.071 158.2798 162.13155 167.47905 176.28305 181.59955 185.45129 194.1778 202.9043 211.69279 215.54456 219.45055 227.97556 236.77956 245.58356 254.38754 262.92651 271.7305 279.92999"
     y="0"
     sodipodi:role="line"
     id="tspan444"
     style="font-size:15.5px;line-height:1.25">Linting and fixing code for 70+ languages</tspan></text>

<text
   transform="scale(1,-1)"
   style="font-variant:normal;font-weight:bold;font-stretch:normal;line-height:0%;font-family:Roboto;-inkscape-font-specification:Roboto-Bold;writing-mode:lr-tb;fill:#ffffff;fill-opacity:1;fill-rule:nonzero;stroke:none"
   id="text446"
   x="47.928223"
   y="-57.862385"
   inkscape:export-xdpi="143.52"
   inkscape:export-ydpi="143.52"><tspan
     sodipodi:role="line"
     id="tspan448"
     x="47.928223"
     y="-57.862385"
     style="font-size:19px;line-height:1.25">Join us via coala.io</tspan></text>

<text
   transform="matrix(1,0,0,-1,139.9189,157.0303)"
   style="font-variant:normal;font-weight:100;font-stretch:normal;line-height:0%;font-family:Roboto;-inkscape-font-specification:Roboto-Thin;writing-mode:lr-tb;fill:#383838;fill-opacity:1;fill-rule:nonzero;stroke:none"
   id="text450"
   inkscape:export-xdpi="143.52"
   inkscape:export-ydpi="143.52"><tspan
     x="0 30.927 64.293999 96.501999 109.068"
     y="0"
     sodipodi:role="line"
     id="tspan452"
     style="font-size:61px;line-height:1.25">coala</tspan></text>

<text
   transform="matrix(1,0,0,-1,15.397,17.6689)"
   style="font-variant:normal;font-weight:100;font-stretch:normal;line-height:0%;font-family:Roboto;-inkscape-font-specification:Roboto-Thin;writing-mode:lr-tb;fill:#606060;fill-opacity:1;fill-rule:nonzero;stroke:none"
   id="text454"
   inkscape:export-xdpi="143.52"
   inkscape:export-ydpi="143.52"><tspan
     x="0 7.6859999 14.9772 21.559999 28.952 35.924 43.021999 47.669998 50.554001 58.212002 62.537998 65.884003 68.655998 72.001999 79.688004 86.994598 93.5774 100.9694 104.3154 107.0874 110.4334 118.9524 125.6444 129.9704 137.6284 145.28641 152.9444 156.29041 159.06239 162.4084 172.06 180.43201 192.42999 199.65401 203 205.772 209.118 218.19 226.058 233.92599 237.272 240.04401 243.39 252.46201 260.82001"
     y="0"
     sodipodi:role="line"
     id="tspan456"
     style="font-size:14px;line-height:1.25">Javascript | Java | Python | HTML | C++ | CSS</tspan></text>

</g></svg>
