<?xml version="1.0" encoding="utf-8"?>
<!-- Generator: Adobe Illustrator 22.0.1, SVG Export Plug-In . SVG Version: 6.00 Build 0)  -->

<svg version="1.1"
   id="coala-header"
   xmlns="http://www.w3.org/2000/svg"
   xmlns:xlink="http://www.w3.org/1999/xlink"
   x="0px"
   y="0px"
   viewBox="0 0 193.2 41.1"
   xml:space="preserve">

<style type="text/css">
   .st0{fill:#7F7F7F;}
   .st1{fill:#6B9753;fill-opacity:0.95;}
   .st2{fill:#CCDE9C;fill-opacity:0.95;}
   .st3{fill:#BAA59A;}
   .st4{opacity:0.49;fill:#8E7A72;enable-background:new;}
   .st5{opacity:0.77;fill:url(#path3504-7-8_1_);enable-background:new;}
   .st6{fill:url(#path3504-22_1_);}
   .st7{opacity:0.64;fill:url(#path3504-1_1_);enable-background:new;}
   .st8{fill:url(#path3504-9_1_);}
   .st9{fill:url(#path3504-9-6_1_);}
   .st10{fill:url(#path4194-2-1-7-6-5_1_);}
   .st11{fill:url(#path3504-95_1_);}
   .st12{opacity:0.89;fill:url(#path3504-74_1_);enable-background:new;}
   .st13{fill:#4D6C3B;}
</style>

<metadata>
<x:xmpmeta xmlns:x="adobe:ns:meta/" x:xmptk="Adobe XMP Core 5.6-c143 79.161210, 2017/08/11-10:28:36">
   <rdf:RDF xmlns:rdf="http://www.w3.org/1999/02/22-rdf-syntax-ns#">
      <rdf:Description rdf:about=""
            xmlns:dc="http://purl.org/dc/elements/1.1/"
            xmlns:xmp="http://ns.adobe.com/xap/1.0/"
            xmlns:xmpGImg="http://ns.adobe.com/xap/1.0/g/img/"
            xmlns:xmpMM="http://ns.adobe.com/xap/1.0/mm/"
            xmlns:stRef="http://ns.adobe.com/xap/1.0/sType/ResourceRef#"
            xmlns:stEvt="http://ns.adobe.com/xap/1.0/sType/ResourceEvent#"
            xmlns:illustrator="http://ns.adobe.com/illustrator/1.0/"
            xmlns:xmpTPg="http://ns.adobe.com/xap/1.0/t/pg/"
            xmlns:stDim="http://ns.adobe.com/xap/1.0/sType/Dimensions#"
            xmlns:xmpG="http://ns.adobe.com/xap/1.0/g/"
            xmlns:pdf="http://ns.adobe.com/pdf/1.3/"
            xmlns:xmpRights="http://ns.adobe.com/xap/1.0/rights/"
            xmlns:Iptc4xmpCore="http://iptc.org/std/Iptc4xmpCore/1.0/xmlns/"
            xmlns:photoshop="http://ns.adobe.com/photoshop/1.0/">
         <dc:format>image/svg+xml</dc:format>
         <dc:title>
            <rdf:Alt>
               <rdf:li xml:lang="x-default">coala Header</rdf:li>
            </rdf:Alt>
         </dc:title>
         <dc:creator>
            <rdf:Seq>
               <rdf:li>The coala developers</rdf:li>
            </rdf:Seq>
         </dc:creator>
         <xmp:CreatorTool>Adobe Illustrator CC 22.0 (Macintosh)</xmp:CreatorTool>
         <xmp:CreateDate>2018-07-09T11:46:50+05:30</xmp:CreateDate>
         <xmp:ModifyDate>2018-07-09T11:46:50+05:30</xmp:ModifyDate>
         <xmp:MetadataDate>2018-07-09T11:46:50+05:30</xmp:MetadataDate>
         <xmpMM:OriginalDocumentID>uuid:9E3E5C9A8C81DB118734DB58FDDE4BA7</xmpMM:OriginalDocumentID>
         <xmpMM:DocumentID>xmp.did:3348941d-fa96-40fb-bcbc-ee1acd1b8ff9</xmpMM:DocumentID>
         <xmpMM:InstanceID>xmp.iid:3348941d-fa96-40fb-bcbc-ee1acd1b8ff9</xmpMM:InstanceID>
         <xmpMM:RenditionClass>proof:pdf</xmpMM:RenditionClass>
         <xmpMM:DerivedFrom rdf:parseType="Resource">
            <stRef:instanceID>xmp.iid:6ab340a5-4e81-4a26-9336-f60430132bdc</stRef:instanceID>
            <stRef:documentID>xmp.did:6ab340a5-4e81-4a26-9336-f60430132bdc</stRef:documentID>
            <stRef:originalDocumentID>uuid:9E3E5C9A8C81DB118734DB58FDDE4BA7</stRef:originalDocumentID>
            <stRef:renditionClass>proof:pdf</stRef:renditionClass>
         </xmpMM:DerivedFrom>
         <illustrator:StartupProfile>Basic RGB</illustrator:StartupProfile>
         <xmpTPg:NPages>1</xmpTPg:NPages>
         <xmpTPg:HasVisibleTransparency>True</xmpTPg:HasVisibleTransparency>
         <xmpTPg:HasVisibleOverprint>False</xmpTPg:HasVisibleOverprint>
         <xmpTPg:MaxPageSize rdf:parseType="Resource">
            <stDim:w>68.16</stDim:w>
            <stDim:h>14.50</stDim:h>
            <stDim:unit>Millimeters</stDim:unit>
         </xmpTPg:MaxPageSize>
         <xmpRights:Marked>True</xmpRights:Marked>
         <xmpRights:WebStatement>https://coala.io</xmpRights:WebStatement>
         <Iptc4xmpCore:CreatorContactInfo rdf:parseType="Resource">
            <Iptc4xmpCore:CiUrlWork>https://coala.io</Iptc4xmpCore:CiUrlWork>
         </Iptc4xmpCore:CreatorContactInfo>
         <photoshop:CaptionWriter>sangamcse</photoshop:CaptionWriter>
      </rdf:Description>
   </rdf:RDF>
</x:xmpmeta>
</metadata>

<g id="coala.io">
   <g id="coala">
      <path d="M73.8,34.7c1.9,0,3.5-0.5,4.7-1.5s1.9-2.4,2-4.2h1.1c-0.1,2-0.9,3.7-2.4,4.9c-1.5,1.2-3.3,1.9-5.5,1.9
         c-2.6,0-4.7-1-6.3-2.9c-1.6-1.9-2.3-4.5-2.3-7.8v-0.7c0-3.2,0.8-5.8,2.3-7.7c1.6-1.9,3.6-2.9,6.3-2.9c2.2,0,4.1,0.7,5.5,2
         c1.5,1.3,2.2,3.1,2.3,5.4h-1.1c-0.1-1.9-0.8-3.4-2-4.6c-1.2-1.2-2.8-1.7-4.8-1.7c-2.4,0-4.2,0.8-5.5,2.5s-2,4.1-2,7.1v0.7
         c0,3,0.7,5.3,2,7C69.6,33.8,71.4,34.7,73.8,34.7z"/>
      <path d="M85.3,24.3c0-2,0.4-3.8,1.2-5.4c0.8-1.6,1.9-2.9,3.3-3.8s3-1.3,4.8-1.3s3.4,0.4,4.8,1.3c1.4,0.9,2.5,2.1,3.3,3.7
         s1.2,3.4,1.2,5.4v0.9c0,2-0.4,3.8-1.2,5.4s-1.9,2.9-3.3,3.8c-1.4,0.9-3,1.3-4.8,1.3s-3.4-0.4-4.8-1.3s-2.5-2.1-3.3-3.7
         c-0.8-1.6-1.2-3.4-1.2-5.4V24.3z M86.4,25.1c0,1.8,0.3,3.4,1,4.8c0.7,1.5,1.7,2.6,2.9,3.4c1.2,0.8,2.7,1.2,4.3,1.2
         c2.4,0,4.4-0.9,5.9-2.7c1.5-1.8,2.3-4.1,2.3-7v-0.6c0-1.7-0.4-3.3-1.1-4.8s-1.7-2.6-2.9-3.4c-1.2-0.8-2.7-1.2-4.2-1.2
         c-2.4,0-4.4,0.9-5.9,2.8c-1.5,1.9-2.3,4.1-2.3,6.9C86.4,24.6,86.4,25.1,86.4,25.1z"/>
      <path d="M122.6,35.3c-0.3-0.9-0.4-2.2-0.4-3.9c-0.8,1.4-2,2.4-3.4,3.1s-3.1,1.1-4.9,1.1c-2,0-3.5-0.5-4.7-1.6
         c-1.2-1.1-1.8-2.4-1.8-4.2c0-1.9,0.9-3.5,2.6-4.7c1.8-1.2,4.1-1.8,7-1.8h5.2v-3.1c0-1.8-0.6-3.1-1.7-4.1s-2.7-1.5-4.8-1.5
         c-1.9,0-3.5,0.5-4.8,1.5s-1.9,2.2-1.9,3.7h-1.1c0-1.7,0.8-3.2,2.3-4.4s3.4-1.8,5.5-1.8c2.3,0,4.1,0.6,5.4,1.7s2,2.7,2.1,4.8v10.1
         c0,2.3,0.2,3.9,0.5,4.7v0.2h-1.1V35.3z M113.9,34.7c2,0,3.7-0.4,5.1-1.3c1.4-0.9,2.5-2.1,3.2-3.7v-5h-4.9c-3,0-5.3,0.6-6.9,1.8
         c-1.3,1-2,2.2-2,3.7c0,1.3,0.5,2.4,1.5,3.3C110.9,34.3,112.3,34.7,113.9,34.7z"/>
      <path d="M131.3,35.3h-1.1v-30h1.1V35.3z"/>
      <path d="M151.9,35.3c-0.3-0.9-0.4-2.2-0.4-3.9c-0.8,1.4-2,2.4-3.4,3.1s-3.1,1.1-4.9,1.1c-2,0-3.5-0.5-4.7-1.6
         c-1.2-1.1-1.8-2.4-1.8-4.2c0-1.9,0.9-3.5,2.6-4.7c1.8-1.2,4.1-1.8,7-1.8h5.2v-3.1c0-1.8-0.6-3.1-1.7-4.1s-2.7-1.5-4.8-1.5
         c-1.9,0-3.5,0.5-4.8,1.5s-1.9,2.2-1.9,3.7h-1.1c0-1.7,0.8-3.2,2.3-4.4s3.4-1.8,5.5-1.8c2.3,0,4.1,0.6,5.4,1.7
         c1.3,1.1,2,2.7,2.1,4.8v10.1c0,2.3,0.2,3.9,0.5,4.7v0.2h-1.1V35.3z M143.2,34.7c2,0,3.7-0.4,5.1-1.3c1.4-0.9,2.5-2.1,3.2-3.7v-5
         h-4.9c-3,0-5.3,0.6-6.9,1.8c-1.3,1-2,2.2-2,3.7c0,1.3,0.5,2.4,1.5,3.3C140.2,34.3,141.6,34.7,143.2,34.7z"/>
   </g>
   <g id="_x2E_io">
      <path class="st0" d="M158.9,34.3c0-0.3,0.1-0.6,0.3-0.8c0.2-0.2,0.5-0.3,0.8-0.3s0.6,0.1,0.8,0.3c0.2,0.2,0.3,0.5,0.3,0.8
         s-0.1,0.6-0.3,0.8c-0.2,0.2-0.5,0.3-0.8,0.3s-0.6-0.1-0.8-0.3C159,35,158.9,34.7,158.9,34.3z"/>
      <path class="st0" d="M167.7,7.7c0-0.3,0.1-0.6,0.3-0.8c0.2-0.2,0.5-0.3,0.8-0.3s0.6,0.1,0.8,0.3c0.2,0.2,0.3,0.5,0.3,0.8
         c0,0.3-0.1,0.6-0.3,0.8s-0.5,0.3-0.8,0.3s-0.6-0.1-0.8-0.3C167.8,8.1,167.7,8,167.7,7.7z M169.3,35.3h-1.1V14.2h1.1V35.3z"/>
      <path class="st0" d="M174.6,24.3c0-2,0.4-3.8,1.2-5.4s1.9-2.9,3.3-3.8c1.4-0.9,3-1.3,4.8-1.3s3.4,0.4,4.8,1.3
         c1.4,0.9,2.5,2.1,3.3,3.7s1.2,3.4,1.2,5.4v0.9c0,2-0.4,3.8-1.2,5.4s-1.9,2.9-3.3,3.8c-1.4,0.9-3,1.3-4.8,1.3s-3.4-0.4-4.8-1.3
         c-1.4-0.9-2.5-2.1-3.3-3.7c-0.8-1.6-1.2-3.4-1.2-5.4V24.3z M175.7,25.1c0,1.8,0.3,3.4,1,4.8s1.7,2.6,2.9,3.4s2.7,1.2,4.3,1.2
         c2.4,0,4.4-0.9,5.9-2.7c1.5-1.8,2.3-4.1,2.3-7v-0.6c0-1.7-0.4-3.3-1.1-4.8c-0.7-1.5-1.7-2.6-2.9-3.4s-2.7-1.2-4.2-1.2
         c-2.4,0-4.4,0.9-5.9,2.8c-1.5,1.9-2.3,4.1-2.3,6.9V25.1z"/>
   </g>
</g>

<g id="logo">
   <path id="path4187-7-9" class="st1" d="M20.1,0C9,0,0,9,0,20s9,20.1,20.1,20.1s20.1-9,20.1-20.1S31.1,0,20.1,0z"/>
   <circle id="path4332-0-1" class="st2" cx="20.6" cy="19.5" r="18.5"/>
   <path id="path3504" class="st3" d="M31.7,30c-0.7,0.3-1,1.4-2.3,0.9c-1.7,1.6-4.2,1.7-6.2,1.4c-1.4-0.2-2.2,0-5.8-0.3
      c0.5,1.8,1,2.5,2.5,3.6c-0.5,0.5-1,0.6-1.7,0.4c0.9,1.2,1.4,2.4,1.5,4C6.3,39.7-2.3,27.3,0.5,15.5C0.1,12.6,1.1,2.9,9.4,3
      c1.4,0,2.8,1,4.5,2.4c4.6,0.1,7.8,0.2,10.1,1.1c3.3-1.2,6-0.8,5.2,5.5c1.3,2.9,2.8,6,3.9,8.8c0.7,1.9,1.4,3.6,1.3,5
      C34.4,28.8,33.9,29.2,31.7,30z"/>
   <path id="path3504-7" class="st4" d="M8.9,23.6c-1,3.4,2.4,7.7,8.5,8.4c0.5,1.8,1,2.5,2.5,3.6c-0.5,0.5-1,0.6-1.7,0.4
      c0.9,1.2,1.4,2.4,1.5,4C6.3,39.7-2.3,27.3,0.5,15.5C1.3,20.7,6,23.7,8.9,23.6z"/>

      <linearGradient id="path3504-7-8_1_" gradientUnits="userSpaceOnUse" x1="14.8357" y1="832.7375" x2="12.7919" y2="840.8199" gradientTransform="matrix(1 0 0 -1 0 869.31)">
      <stop  offset="0" style="stop-color:#FCFCFC"/>
      <stop  offset="1" style="stop-color:#E0D8C1"/>
   </linearGradient>
   <path id="path3504-7-8" class="st5" d="M8.9,23.6c-1,3.4,2.4,7.7,8.5,8.4c0.5,1.8,1,2.5,2.5,3.6c-0.5,0.5-1,0.6-1.7,0.4
      c0.9,1.2,1.4,2.4,1.5,4c-1.6-2.4-4.9-3.4-6.9-4.7c-7-4.5-5.4-9.9-5.5-12C7.7,23.6,8.4,23.7,8.9,23.6z"/>

      <linearGradient id="path3504-22_1_" gradientUnits="userSpaceOnUse" x1="25.112" y1="859.0078" x2="33.1434" y2="864.8352" gradientTransform="matrix(1 0 0 -1 0 869.31)">
      <stop  offset="0" style="stop-color:#6C5852"/>
      <stop  offset="1" style="stop-color:#6C5852;stop-opacity:0"/>
   </linearGradient>
   <path id="path3504-22" class="st6" d="M24.1,6.4c2.4,0.9,3.9,2.5,5.2,5.5C30.2,5.7,27.4,5.2,24.1,6.4z"/>

      <linearGradient id="path3504-1_1_" gradientUnits="userSpaceOnUse" x1="18.1222" y1="865.7083" x2="19.1662" y2="862.8729" gradientTransform="matrix(1 0 0 -1 0 869.31)">
      <stop  offset="0" style="stop-color:#000000"/>
      <stop  offset="1" style="stop-color:#000000;stop-opacity:0"/>
   </linearGradient>
   <path id="path3504-1" class="st7" d="M16.3,8c-0.7-1.2-1.7-2.2-2.4-2.7c4.6,0.1,7.8,0.2,10.1,1.1C24,6.9,24,7,24,8
      C22.9,8,16.8,8,16.3,8L16.3,8z"/>

      <linearGradient id="path3504-9_1_" gradientUnits="userSpaceOnUse" x1="9.2543" y1="855.4518" x2="-2.4749" y2="862.2186" gradientTransform="matrix(1 0 0 -1 0 869.31)">
      <stop  offset="0" style="stop-color:#6C5852"/>
      <stop  offset="1" style="stop-color:#6C5852;stop-opacity:0"/>
   </linearGradient>
   <path id="path3504-9" class="st8" d="M2.4,14.9c-0.6-3.5,1.3-9.3,6.2-9.3c1.5,0,3,0.7,4.1,2c0.7,0.8,1.1,2.2,1.4,2.8
      c-1.3,3.1-0.5,4-1.1,6.5c-0.5,1.9-2.5,3.6-3.1,4.5C5.3,21.9,2.9,18.1,2.4,14.9z"/>

      <linearGradient id="path3504-9-6_1_" gradientUnits="userSpaceOnUse" x1="4.2938" y1="857.952" x2="13.2618" y2="852.9398" gradientTransform="matrix(1 0 0 -1 0 869.31)">
      <stop  offset="0" style="stop-color:#FCFCFC"/>
      <stop  offset="1" style="stop-color:#E0D8C1"/>
   </linearGradient>
   <path id="path3504-9-6" class="st9" d="M6.1,11.5c2.3,0.6,2.8-1.2,5.2-0.5c-0.3-0.9-0.9-1.7-1.9-1.6C10,8.1,12.7,7.6,13.5,9
      c0.4,0.9,0.4,1.1,0.6,1.4c-1.3,3.1-0.5,4-1.1,6.5c-0.5,1.9-2.5,3.6-3.1,4.5c-0.4,0-0.8,0.1-1.4,0c-1.3-0.2-0.9-3.2-2.3-3.5
      c0.4-0.8,1.1-1,1.9-0.8C6.5,15.6,5.9,13.9,6.1,11.5z"/>
   <path id="path4194-2-1-8" d="M24.6,22.7c-0.8-0.3-1.2-0.9-1.2-2c0-0.7,0.2-0.9,0.9-0.9c1.2,0,1.9,0.9,1.8,2
      C26,22.8,25.5,23.1,24.6,22.7z"/>

      <linearGradient id="path4194-2-1-7-6-5_1_" gradientUnits="userSpaceOnUse" x1="-77.5839" y1="969.0347" x2="-79.1039" y2="968.2204" gradientTransform="matrix(0.77 0 0 -0.77 85.11 766.947)">
      <stop  offset="0" style="stop-color:#FCFCFC"/>
      <stop  offset="1" style="stop-color:#C7C7C7"/>
   </linearGradient>
   <path id="path4194-2-1-7-6-5" class="st10" d="M24.8,21.8c-0.4-0.2-0.6-0.5-0.6-1.1c0-0.4,0.1-0.5,0.5-0.5c0.6,0,1,0.5,1,1.1
      C25.6,21.9,25.3,22,24.8,21.8z"/>

      <linearGradient id="path3504-95_1_" gradientUnits="userSpaceOnUse" x1="31.1063" y1="843.1716" x2="40.7947" y2="849.625" gradientTransform="matrix(1 0 0 -1 0 869.31)">
      <stop  offset="0" style="stop-color:#6C5852"/>
      <stop  offset="1" style="stop-color:#6C5852;stop-opacity:0"/>
   </linearGradient>
   <path id="path3504-95" class="st11" d="M32.2,30.3c-0.7,0.4-1.6,1-2.9,0.6c-1.2-2.7,0.4-2.7,0.4-5.6c0-2.8,2.8-6,3.4-4.6
      c0.3,0.7,1.4,3.9,1.4,5.3C34.6,28.8,33,29.9,32.2,30.3z"/>

      <linearGradient id="path3504-74_1_" gradientUnits="userSpaceOnUse" x1="134.8129" y1="909.8181" x2="131.6959" y2="907.4385" gradientTransform="matrix(0.97 -0.23 -0.23 -0.97 105.773 941.167)">
      <stop  offset="0" style="stop-color:#000000"/>
      <stop  offset="1" style="stop-color:#000000;stop-opacity:0"/>
   </linearGradient>
   <path id="path3504-74" class="st12" d="M29.7,30.8c-3.1,2.2-4.5,1.3-7.2,1.4c-3.2-4.1,0-3.8,0.6-3.9C24.5,29.6,27.4,32.4,29.7,30.8
      z"/>
   <path id="path4187-9-5" class="st13" d="M0,20.5c0,0.2,0,0.3,0,0.5c0,11.1,9,20.1,20.1,20.1s20.1-9,20.1-20.1c0-0.2,0-0.3,0-0.5
      C39.9,31.3,31.1,40,20.2,40S0.3,31.4,0,20.5z"/>
</g>
</svg>
