<?xml version="1.0" encoding="UTF-8" standalone="no"?>

<svg version="1.1" id="coala_text"
   xmlns="http://www.w3.org/2000/svg"
   x="0px"
   y="0px"
   viewBox="0 0 165 41.1">

  <style type="text/css">
    .coala {
      fill: #000000;
    }
    .io {
      fill: #b7b7b7;
    }
  </style>

  <g id="coala.io">
    <g transform="translate(0)">
      <g class="coala">
        <path d="M11.132834,38.785419c2.468639,0,4.504169-0.655045,6.107562-1.964157
          c1.603394-1.310089,2.48135-3.123684,2.631912-5.440784h1.359953c-0.133944,2.636803-1.149752,4.756409-3.047426,6.359806
          c-1.897676,1.603394-4.248017,2.40509-7.052001,2.40509c-3.409168,0-6.116362-1.233833-8.122561-3.702473
          C1.003099,33.975239,0,30.624733,0,26.393335v-0.906307c0-4.130695,1.003099-7.430363,3.010274-9.898514
          c2.006198-2.46864,4.696772-3.702471,8.07172-3.702471c2.888064,0,5.272625,0.864757,7.153679,2.594272
          c1.880077,1.729514,2.879265,4.029504,2.996588,6.900949h-1.359953c-0.117321-2.45153-0.977678-4.420088-2.581074-5.90616
          c-1.604371-1.486073-3.673141-2.229109-6.20924-2.229109c-3.038628,0-5.419277,1.09549-7.139992,3.286957
          C2.22031,18.72393,1.359952,21.767935,1.359952,25.66301v0.881866c0,3.811972,0.869157,6.804649,2.607471,8.979008
          C5.704759,37.698242,8.093229,38.785419,11.132834,38.785419z"/>
        <path d="M25.992582,25.487028c0-2.602583,0.499594-4.940702,1.498781-7.014849
          c0.999189-2.073658,2.409002-3.689761,4.231396-4.848311c1.821419-1.15855,3.883343-1.737824,6.183823-1.737824
          c2.282879,0,4.332096,0.562654,6.145691,1.687474c1.812618,1.12482,3.227322,2.719903,4.244106,4.785251
          c1.014832,2.065348,1.532024,4.391735,1.548645,6.976719v1.209389c0,2.619204-0.495686,4.961723-1.486073,7.026581
          c-0.991367,2.065838-2.39727,3.678032-4.218689,4.836578c-1.822392,1.15855-3.883339,1.737339-6.183819,1.737339
          s-4.361427-0.569988-6.182844-1.712894c-1.822395-1.140953-3.237097-2.740437-4.244106-4.797474
          c-1.007988-2.057037-1.52029-4.370226-1.536911-6.939568V25.487028z M27.352533,26.544876
          c0,2.26626,0.449732,4.344807,1.348219,6.233685c0.897511,1.888874,2.148939,3.36224,3.752335,4.420086
          c1.603394,1.05785,3.438496,1.586773,5.503357,1.586773c3.106087,0,5.637299-1.16637,7.593636-3.501068
          c1.956333-2.333721,2.93499-5.339106,2.93499-9.017136v-0.780188c0-2.233021-0.45364-4.298368-1.359951-6.196043
          c-0.907284-1.897186-2.162624-3.379348-3.766018-4.445507c-1.603397-1.066159-3.420902-1.599483-5.452518-1.599483
          c-3.107067,0-5.642189,1.18397-7.606346,3.55142c-1.965136,2.367449-2.947702,5.347904-2.947702,8.940876V26.544876z"/>
        <path d="M74.049431,39.641869c-0.335342-1.15855-0.50351-2.820606-0.50351-4.987141
          c-1.074463,1.747112-2.543915,3.098263-4.407372,4.055412c-1.864441,0.95715-3.971336,1.435234-6.321678,1.435234
          c-2.519478,0-4.546207-0.683399-6.083122-2.052151c-1.535931-1.368752-2.30439-3.153015-2.30439-5.352795
          c0-2.501881,1.129223-4.504168,3.387661-6.006861s5.259914-2.271149,9.004429-2.30439h6.724472v-3.979643
          c0-2.283371-0.717613-4.055414-2.152847-5.314664c-1.436211-1.259251-3.489334-1.888877-6.158401-1.888877
          c-2.48526,0-4.558918,0.638425-6.220974,1.914296c-1.663033,1.276361-2.494061,2.854823-2.494061,4.7349l-1.359951-0.05035
          c0-2.2164,0.97377-4.096476,2.921307-5.641698c1.947536-1.544733,4.332096-2.3171,7.153679-2.3171
          c2.937927,0,5.271645,0.734726,7.002136,2.203689c1.728539,1.469452,2.619209,3.538709,2.669067,6.208751v13.021711
          c0,2.988766,0.235619,5.020382,0.705887,6.094852v0.226822H74.049431z M62.816872,38.785419
          c2.551743,0,4.747612-0.570965,6.585648-1.712891c1.839012-1.140953,3.219498-2.745327,4.143402-4.810184v-6.473213h-6.296249
          c-3.896053,0-6.876022,0.772366-8.941856,2.317099c-1.678677,1.259251-2.518501,2.829405-2.518501,4.710459
          c0,1.662056,0.662865,3.071869,1.989574,4.231396C59.105602,38.206635,60.784275,38.785419,62.816872,38.785419z"/>
        <path d="M85.359222,39.641869h-1.360931V0.954611h1.360931V39.641869z"/>
        <path d="M111.906151,39.641869c-0.336327-1.15855-0.504486-2.820606-0.504486-4.987141
          c-1.074471,1.747112-2.543922,3.098263-4.407379,4.055412s-3.971329,1.435234-6.321671,1.435234
          c-2.518501,0-4.546211-0.683399-6.083122-2.052151c-1.535934-1.368752-2.30439-3.153015-2.30439-5.352795
          c0-2.501881,1.129219-4.504168,3.387657-6.006861s5.259918-2.271149,9.004425-2.30439h6.72448v-3.979643
          c0-2.283371-0.717613-4.055414-2.152847-5.314664c-1.436211-1.259251-3.488358-1.888877-6.158401-1.888877
          c-2.48526,0-4.558922,0.638425-6.220978,1.914296c-1.663033,1.276361-2.494057,2.854823-2.494057,4.7349l-1.359955-0.05035
          c0-2.2164,0.97377-4.096476,2.922287-5.641698c1.947533-1.544733,4.3321-2.3171,7.152702-2.3171
          c2.937927,0,5.272621,0.734726,7.002136,2.203689c1.729515,1.469452,2.619202,3.538709,2.670044,6.208751v13.021711
          c0,2.988766,0.234642,5.020382,0.704903,6.094852v0.226822H111.906151z M100.672615,38.785419
          c2.551743,0,4.747612-0.570965,6.586624-1.712891c1.838036-1.140953,3.219498-2.745327,4.142426-4.810184v-6.473213h-6.296249
          c-3.896057,0-6.876022,0.772366-8.941856,2.317099c-1.67868,1.259251-2.518501,2.829405-2.518501,4.710459
          c0,1.662056,0.663841,3.071869,1.989578,4.231396C96.961342,38.206635,98.640999,38.785419,100.672615,38.785419z"/>
		  </g>
      <g class="io">
        <path d="M120.897865,38.408035c0-0.386181,0.133942-0.718594,0.402802-0.995277
          c0.268867-0.27668,0.59639-0.415512,0.982567-0.415512c0.386185,0,0.717621,0.138832,0.995277,0.415512
          c0.276688,0.276684,0.41552,0.609097,0.41552,0.995277c0,0.386185-0.138832,0.713707-0.41552,0.98159
          c-0.277657,0.268864-0.609093,0.403782-0.995277,0.403782c-0.386177,0-0.713699-0.134918-0.982567-0.403782
          C121.031807,39.121742,120.897865,38.79422,120.897865,38.408035z"/>
        <path d="M132.20668,3.876406c0-0.386184,0.133942-0.717617,0.402802-0.994789
          c0.267883-0.277172,0.595413-0.415514,0.982574-0.415514c0.385208,0,0.717621,0.138341,0.994293,0.415514
          c0.277664,0.277172,0.415512,0.608605,0.415512,0.994789c0,0.386672-0.137848,0.713706-0.415512,0.982568
          c-0.276672,0.268373-0.609085,0.402803-0.994293,0.402803c-0.387161,0-0.714691-0.134431-0.982574-0.402803
          C132.340622,4.590111,132.20668,4.263078,132.20668,3.876406z M134.271545,39.641869h-1.359955V12.389548h1.359955V39.641869z"/>
        <path d="M141.148529,25.487028c0-2.602583,0.498627-4.940702,1.497818-7.014849
          c0.999176-2.073658,2.409973-3.689761,4.231384-4.848311c1.822403-1.15855,3.883347-1.737824,6.183823-1.737824
          c2.282883,0,4.332108,0.562654,6.145691,1.687474c1.813599,1.12482,3.227325,2.719903,4.24411,4.785251
          c1.015808,2.065348,1.532028,4.391735,1.548645,6.976719v1.209389c0,2.619204-0.495682,4.961723-1.486069,7.026581
          c-0.990387,2.065838-2.397278,3.678032-4.218689,4.836578c-1.822388,1.15855-3.883347,1.737339-6.183823,1.737339
          s-4.36142-0.569988-6.182846-1.712894c-1.822388-1.140953-3.236115-2.740437-4.24411-4.797474
          c-1.007004-2.057037-1.520279-4.370226-1.535934-6.939568V25.487028z M142.508484,26.544876
          c0,2.26626,0.448761,4.344807,1.347244,6.233685c0.898483,1.888874,2.148941,3.36224,3.753311,4.420086
          c1.602417,1.05785,3.437515,1.586773,5.50238,1.586773c3.107071,0,5.638275-1.16637,7.59462-3.501068
          c1.955353-2.333721,2.934006-5.339106,2.934006-9.017136v-0.780188c0-2.233021-0.453644-4.298368-1.359955-6.196043
          c-0.907288-1.897186-2.162628-3.379348-3.766022-4.445507s-3.420898-1.599483-5.452515-1.599483
          c-3.107056,0-5.642181,1.18397-7.606339,3.55142c-1.965134,2.367449-2.946732,5.347904-2.946732,8.940876V26.544876z"/>
      </g>
    </g>
  </g>
</svg>
